<?xml version="1.0" encoding="UTF-8"?>
<svg version="1.1" xmlns="http://www.w3.org/2000/svg" width="512" height="512">
<path d="M0 0 C16.59574493 13.82978744 26.91343809 33.51544435 29.390625 54.9921875 C30.43029387 74.82587063 26.67194964 93.2844029 15.390625 109.9921875 C15.060625 110.3221875 14.730625 110.6521875 14.390625 110.9921875 C15.10089844 111.36214844 15.81117188 111.73210937 16.54296875 112.11328125 C19.90158283 114.32932154 22.34686621 117.03634341 24.953125 120.0546875 C29.62532674 125.4595316 32.55675329 127.89311363 39.703125 128.7421875 C45.29962439 129.71354253 48.91112149 131.43215441 52.390625 135.9921875 C53.72661573 138.65459196 54.54679916 141.11325228 55.390625 143.9921875 C55.98230469 144.01796875 56.57398438 144.04375 57.18359375 144.0703125 C62.40523145 144.44511194 65.69372302 144.95920352 69.390625 148.9921875 C71.23615567 152.4196016 71.6114792 155.12723908 71.390625 158.9921875 C72.586875 159.3840625 73.783125 159.7759375 75.015625 160.1796875 C84.31129543 163.22482092 88.23775709 171.02535889 92.47851562 179.18310547 C100.85205111 195.79121519 102.61033141 211.68331995 102.390625 229.9921875 C117.20311726 209.54184357 127.74174183 187.69510392 133.390625 162.9921875 C133.63619141 161.94587158 133.63619141 161.94587158 133.88671875 160.87841797 C138.29039551 141.23019491 138.09269572 118.47980904 134.83911133 98.6484375 C134.11828549 93.81282513 134.79243109 91.1198147 137.390625 86.9921875 C139.29511985 84.79469344 140.60764366 84.11117716 143.47265625 83.67578125 C147.33567359 83.477185 149.51763388 83.44039123 152.875 85.5625 C155.94696804 88.52952503 158.01224885 91.66124124 160.203125 95.3046875 C160.63399414 96.01036865 161.06486328 96.7160498 161.50878906 97.44311523 C170.2175565 111.85435788 177.08243307 126.43090078 182.203125 142.4921875 C182.41026123 143.13857178 182.61739746 143.78495605 182.83081055 144.45092773 C187.18719431 158.62523833 186.09647594 172.87466012 182.390625 186.9921875 C182.88433594 187.40210938 183.37804687 187.81203125 183.88671875 188.234375 C184.52738281 188.77320313 185.16804688 189.31203125 185.828125 189.8671875 C186.46621094 190.40085938 187.10429687 190.93453125 187.76171875 191.484375 C189.71262277 193.29024778 190.33846788 194.34314745 190.55175781 196.99731445 C191.06423978 227.30228013 187.70925253 259.204526 167.390625 282.9921875 C166.07632841 284.34428958 164.75038384 285.68581411 163.390625 286.9921875 C163.720625 287.6521875 164.050625 288.3121875 164.390625 288.9921875 C165.64922548 294.73900478 164.70050836 299.09838138 161.67822266 304.14111328 C152.65139161 318.02825403 141.90775342 329.8161588 125.390625 333.9921875 C125.50921875 334.57226562 125.6278125 335.15234375 125.75 335.75 C126.41484388 339.7789539 126.68564743 342.28975315 125.078125 346.1171875 C118.4393982 353.21908128 110.26058792 357.30087671 101.390625 360.9921875 C99.99451487 361.59571427 98.59863666 362.19977821 97.203125 362.8046875 C96.275 363.1965625 95.346875 363.5884375 94.390625 363.9921875 C94.66777344 364.91 94.94492187 365.8278125 95.23046875 366.7734375 C95.59269531 368.000625 95.95492188 369.2278125 96.328125 370.4921875 C96.68777344 371.69875 97.04742187 372.9053125 97.41796875 374.1484375 C101.10722779 388.72767804 101.62675751 408.56447038 94.515625 422.1796875 C92.3841305 425.00078316 90.28849493 426.97977783 87.390625 428.9921875 C87.74125 429.6728125 88.091875 430.3534375 88.453125 431.0546875 C89.67254271 434.87552966 89.41038472 437.11710057 88.390625 440.9921875 C86.94944766 443.56901258 85.62381415 444.90787762 83.390625 446.9921875 C80.078125 447.8671875 80.078125 447.8671875 77.390625 447.9921875 C77.720625 448.9821875 78.050625 449.9721875 78.390625 450.9921875 C78.83833335 455.64835429 78.4907354 459.13993274 75.99609375 463.18359375 C73.89624879 465.54911252 71.51068468 467.10065861 68.890625 468.8671875 C63.40367948 472.65631322 61.38778219 475.75491197 59.390625 481.9921875 C58.69450046 483.80941148 57.98610619 485.62198199 57.265625 487.4296875 C56.95367187 488.25339844 56.64171875 489.07710938 56.3203125 489.92578125 C55.390625 491.9921875 55.390625 491.9921875 53.390625 493.9921875 C50.453125 494.3046875 50.453125 494.3046875 47.390625 493.9921875 C40.68951836 488.49769434 37.21192429 475.81329946 36.265625 467.5546875 C36.02173591 458.1585394 39.31043107 450.10909652 45.390625 442.9921875 C47.64299889 441.05641235 49.85501042 439.56426854 52.390625 437.9921875 C51.6171875 436.47625 51.6171875 436.47625 50.828125 434.9296875 C49.14609935 430.94594254 49.14200667 428.20627437 50.390625 423.9921875 C52.828125 421.1796875 52.828125 421.1796875 55.390625 418.9921875 C56.050625 418.3321875 56.710625 417.6721875 57.390625 416.9921875 C57.28225319 414.64413156 56.87545974 412.40236251 56.484375 410.0859375 C56.39740052 407.21577963 56.72269423 405.15819008 57.34375 402.3828125 C58.58494104 396.63909397 58.68657341 391.10060923 58.640625 385.2421875 C58.64835937 384.24058594 58.65609375 383.23898437 58.6640625 382.20703125 C58.65047246 377.07679244 58.44621519 372.7885646 56.390625 367.9921875 C56.25527344 368.87777344 56.11992187 369.76335937 55.98046875 370.67578125 C52.45438951 390.96657257 43.66587218 407.09402044 29.390625 421.9921875 C28.80539062 422.62898438 28.22015625 423.26578125 27.6171875 423.921875 C11.57271595 440.87026044 -12.6595213 449.44791914 -35.57470703 450.19921875 C-40.20849953 450.30125815 -44.840801 450.31849157 -49.47558594 450.30786133 C-52.34088477 450.30470785 -55.20514085 450.32822314 -58.0703125 450.35351562 C-86.17671426 450.45169349 -112.08208124 444.36218399 -132.609375 423.9921875 C-133.49625 423.1465625 -134.383125 422.3009375 -135.296875 421.4296875 C-136.06 420.6253125 -136.823125 419.8209375 -137.609375 418.9921875 C-138.12757813 418.45722656 -138.64578125 417.92226563 -139.1796875 417.37109375 C-151.85024281 403.70621235 -158.43153747 387.08356083 -161.609375 368.9921875 C-161.939375 368.9921875 -162.269375 368.9921875 -162.609375 368.9921875 C-164.67687958 379.7750191 -164.41764002 389.14706606 -162.89404297 399.96826172 C-162.50380233 402.74278565 -162.1630212 405.51938968 -161.859375 408.3046875 C-161.76140625 409.10519531 -161.6634375 409.90570313 -161.5625 410.73046875 C-161.61993299 413.5016107 -162.45883388 415.49197314 -163.609375 417.9921875 C-162.4646875 418.3634375 -162.4646875 418.3634375 -161.296875 418.7421875 C-158.22899008 420.16911072 -157.20930204 421.03232248 -155.609375 423.9921875 C-154.07152878 429.81403391 -154.97668291 432.832111 -157.609375 437.9921875 C-156.94550781 438.52585937 -156.28164062 439.05953125 -155.59765625 439.609375 C-148.05232525 445.97609226 -143.07698968 452.01587325 -141.671875 461.9921875 C-141.13816296 473.09684123 -145.51757552 482.38501868 -150.609375 491.9921875 C-152.609375 493.9921875 -152.609375 493.9921875 -156.234375 494.1171875 C-157.348125 494.0759375 -158.461875 494.0346875 -159.609375 493.9921875 C-161.87041092 489.12133885 -163.86627164 484.28323403 -165.546875 479.1796875 C-167.15543035 474.70802784 -168.46516039 472.53522828 -172.609375 469.9921875 C-181.74751314 463.81050582 -181.74751314 463.81050582 -183.609375 457.9921875 C-183.94904731 454.50401413 -184.21362409 451.20068567 -182.609375 447.9921875 C-183.49625 447.9509375 -184.383125 447.9096875 -185.296875 447.8671875 C-188.86014572 446.92594618 -190.43249142 445.75310734 -192.63671875 442.8046875 C-195.12554841 438.16686837 -195.01545665 432.99158892 -193.609375 427.9921875 C-194.3725 427.4353125 -195.135625 426.8784375 -195.921875 426.3046875 C-203.04756011 420.17328403 -204.09630163 410.63669969 -204.78662109 401.69677734 C-205.34306827 390.40113435 -204.03872077 380.00606083 -201.609375 368.9921875 C-201.26320712 366.99436896 -200.92528776 364.99501306 -200.609375 362.9921875 C-201.27582031 362.77304687 -201.94226563 362.55390625 -202.62890625 362.328125 C-212.40876155 358.96330765 -225.15746208 354.41204236 -230.78125 345.0390625 C-232.01409283 341.99184721 -231.78970456 339.23811965 -231.609375 335.9921875 C-231.279375 335.3321875 -230.949375 334.6721875 -230.609375 333.9921875 C-231.8675 333.6415625 -233.125625 333.2909375 -234.421875 332.9296875 C-247.45586607 328.54403642 -256.39377876 319.55390157 -263.984375 308.4921875 C-264.41371338 307.87537109 -264.84305176 307.25855469 -265.28540039 306.62304688 C-268.22291378 302.17834916 -269.69181649 298.2557866 -270.609375 292.9921875 C-270.3 291.8784375 -269.990625 290.7646875 -269.671875 289.6171875 C-269.59380922 285.0893724 -270.57220178 284.51599881 -273.609375 281.3046875 C-274.43953125 280.44746094 -275.2696875 279.59023438 -276.125 278.70703125 C-292.61611627 260.68607872 -295.78242417 229.99863264 -295.796875 206.6171875 C-295.81524414 205.01810547 -295.81524414 205.01810547 -295.83398438 203.38671875 C-295.83591797 202.36191406 -295.83785156 201.33710938 -295.83984375 200.28125 C-295.84395264 199.36037598 -295.84806152 198.43950195 -295.85229492 197.49072266 C-295.48936792 193.75786346 -294.41859565 191.70025557 -291.609375 189.2421875 C-289.609375 187.9921875 -289.609375 187.9921875 -287.609375 187.9921875 C-287.8259375 187.19039062 -288.0425 186.38859375 -288.265625 185.5625 C-295.98163337 154.05546583 -283.42949577 124.95405687 -267.46630859 98.06689453 C-264.10002527 92.56648063 -261.03487792 87.63965424 -255.609375 83.9921875 C-252.53204891 83.27554992 -249.71108027 83.41904631 -246.609375 83.9921875 C-243.73907631 85.78612418 -242.11805862 86.97482026 -240.609375 89.9921875 C-240.51089391 92.01104979 -240.47964691 94.03343019 -240.484375 96.0546875 C-240.48050781 97.68083984 -240.48050781 97.68083984 -240.4765625 99.33984375 C-240.609375 102.9921875 -240.609375 102.9921875 -241.09765625 106.9140625 C-245.21869111 142.02068408 -238.83826647 177.07744272 -221.609375 207.9921875 C-221.01125 209.07757813 -220.413125 210.16296875 -219.796875 211.28125 C-216.10546508 217.79065589 -212.01185975 223.943789 -207.609375 229.9921875 C-207.64417969 228.96222656 -207.67898437 227.93226563 -207.71484375 226.87109375 C-208.23387921 204.76490157 -203.48377292 183.68204484 -189.609375 165.9921875 C-185.55492013 162.00524003 -182.0830592 160.19639802 -176.609375 158.9921875 C-176.526875 157.7753125 -176.444375 156.5584375 -176.359375 155.3046875 C-175.83283253 151.17279176 -174.70001065 148.91112117 -171.609375 145.9921875 C-167.43526119 143.51028199 -164.27257688 144.07783419 -159.609375 144.9921875 C-159.568125 143.9815625 -159.526875 142.9709375 -159.484375 141.9296875 C-158.79272615 137.13685323 -156.20716562 134.10013808 -152.609375 130.9921875 C-149.88043568 129.71868248 -147.47953452 129.11857938 -144.51171875 128.6875 C-135.04664969 127.09645923 -129.93417284 120.73368028 -124.15234375 113.49609375 C-122.609375 111.9921875 -122.609375 111.9921875 -119.609375 111.9921875 C-120.49689453 110.55552734 -120.49689453 110.55552734 -121.40234375 109.08984375 C-133.42340039 89.0496643 -138.33878777 66.28483858 -132.58203125 43.2578125 C-126.16239872 21.70434744 -113.94526045 3.68404254 -94.171875 -7.6953125 C-92.65866997 -8.48101511 -91.13746204 -9.25146069 -89.609375 -10.0078125 C-88.77921875 -10.43964844 -87.9490625 -10.87148437 -87.09375 -11.31640625 C-58.59300625 -25.35843936 -24.51952162 -18.86681754 0 0 Z M-113.609375 118.9921875 C-113.6187207 119.54567871 -113.62806641 120.09916992 -113.63769531 120.66943359 C-114.16066528 145.30542098 -114.16066528 145.30542098 -123.40625 155.234375 C-128.40882795 159.22579358 -134.61213485 160.99310745 -140.609375 162.9921875 C-140.68285156 163.87970703 -140.68285156 163.87970703 -140.7578125 164.78515625 C-141.66224701 174.34409344 -141.66224701 174.34409344 -143.609375 176.9921875 C-145.24255829 177.43734336 -146.89147489 177.82599009 -148.546875 178.1796875 C-151.27567341 178.78659955 -151.27567341 178.78659955 -153.609375 179.9921875 C-154.84718887 182.34727906 -155.25457872 184.52884333 -155.78515625 187.1328125 C-156.77121216 190.55363206 -158.34453196 192.79557146 -160.421875 195.6796875 C-171.09907358 210.95810977 -175.2253723 229.83598192 -172.24023438 248.27197266 C-171.06865003 253.82952009 -169.78583281 259.22750078 -166.609375 263.9921875 C-166.37863281 263.12078125 -166.14789063 262.249375 -165.91015625 261.3515625 C-160.82025295 242.76235047 -152.8455547 225.89279054 -137.359375 213.6171875 C-136.76600342 213.14168457 -136.17263184 212.66618164 -135.5612793 212.17626953 C-130.81459335 208.54173424 -125.9109647 206.17856851 -120.421875 203.8671875 C-115.1483021 201.71789296 -115.1483021 201.71789296 -111.04296875 197.921875 C-110.31784749 195.60977406 -109.96825474 193.38723757 -109.609375 190.9921875 C-104.20701524 175.02569913 -94.57872324 163.260111 -79.609375 155.6171875 C-78.95710938 155.28307861 -78.30484375 154.94896973 -77.6328125 154.60473633 C-65.00900886 148.49872573 -47.56254762 147.3887231 -34.2421875 151.8984375 C-18.40117912 158.47927184 -6.09052615 166.84492744 1.390625 182.9921875 C1.73808193 184.3283323 2.04864249 185.67454407 2.32421875 187.02734375 C3.71579821 194.63028789 3.71579821 194.63028789 8.31201172 200.56152344 C13.05499942 203.50405402 18.12512979 205.73316781 23.22412109 207.98095703 C27.51721686 209.98478875 30.94018623 212.79455316 34.390625 215.9921875 C35.21691406 216.73984375 36.04320312 217.4875 36.89453125 218.2578125 C50.11924935 230.79271669 56.95921888 246.60543524 61.390625 263.9921875 C68.91230335 252.70966997 69.02875741 235.6392314 66.6953125 222.71875 C64.3847853 211.8089986 59.75546805 202.50979786 53.640625 193.2421875 C50.73638558 188.82492268 49.27319948 185.18957053 48.390625 179.9921875 C47.318125 179.7446875 46.245625 179.4971875 45.140625 179.2421875 C41.36273598 177.98289116 39.85414896 177.02421698 37.390625 173.9921875 C36.24247503 171.69588756 36.08292691 169.91520664 35.828125 167.3671875 C35.74433594 166.54992187 35.66054688 165.73265625 35.57421875 164.890625 C35.51363281 164.26414063 35.45304688 163.63765625 35.390625 162.9921875 C34.66617188 162.74984375 33.94171875 162.5075 33.1953125 162.2578125 C23.19875631 158.79233969 15.90540677 154.60242508 11.140625 144.8671875 C8.04306338 136.77355875 8.53515086 127.55160679 8.390625 118.9921875 C7.95637207 119.37310547 7.52211914 119.75402344 7.07470703 120.14648438 C-13.34393985 137.88065206 -34.82002487 145.61923966 -61.82421875 144.2109375 C-82.0215037 142.62461498 -98.50207068 131.66918635 -113.609375 118.9921875 Z " fill="#F5B02A" transform="translate(308.609375,18.0078125)"/>
<path d="M0 0 C1.65708984 0.67869141 1.65708984 0.67869141 3.34765625 1.37109375 C17.07429147 7.59961049 27.60804423 17.11244142 34 31 C34.57274562 33.05788252 35.040531 35.12536416 35.51098633 37.20874023 C36.84663082 43.4518775 36.84663082 43.4518775 40.62695312 48.38916016 C44.57246686 50.84055641 48.82596118 52.55671445 53.14111328 54.24560547 C70.14037247 61.144438 81.3168455 78.74621964 88.640625 94.56640625 C92.24516721 103.67098268 93.52201804 111.55495608 93.5 121.375 C93.52835937 122.51710938 93.55671875 123.65921875 93.5859375 124.8359375 C93.60910241 135.02849942 91.15771729 144.61380531 83.875 152.125 C83.21242188 152.82882812 82.54984375 153.53265625 81.8671875 154.2578125 C80 156 80 156 77 158 C76.54561501 159.99836905 76.54561501 159.99836905 76.61523438 162.33178711 C76.60006775 163.68106544 76.60006775 163.68106544 76.58459473 165.05760193 C76.58761597 166.03761673 76.59063721 167.01763153 76.59375 168.02734375 C76.57749573 169.55362144 76.57749573 169.55362144 76.56091309 171.11073303 C76.52654813 174.38638464 76.51107261 177.66169186 76.5 180.9375 C76.39027804 212.50641682 73.19324432 239.41676047 50 263 C39.50287403 272.49254665 25.85159716 279.84503403 12 283 C11.39469955 283.15885681 10.78939911 283.31771362 10.16575623 283.48138428 C4.13447426 284.97842078 -1.58304423 285.32141887 -7.78125 285.3359375 C-8.79360718 285.3425943 -9.80596436 285.3492511 -10.84899902 285.35610962 C-12.98362427 285.36618558 -15.11828069 285.37092822 -17.25292969 285.37060547 C-20.46344182 285.37495052 -23.67254539 285.41124785 -26.8828125 285.44921875 C-52.90281311 285.59236564 -75.10475024 278.93765815 -94.4375 260.6484375 C-100.64504004 254.23271776 -105.16997971 247.07699989 -109.25 239.1875 C-109.56735107 238.58470215 -109.88470215 237.9819043 -110.21166992 237.36083984 C-115.63505376 226.38294172 -117.57302956 215.37408927 -117.29296875 203.2265625 C-117.28310458 200.66536959 -117.27468283 198.1041708 -117.26757812 195.54296875 C-117.23431276 191.56640256 -117.18904581 187.59070246 -117.11352539 183.61474609 C-117.05041867 179.73451606 -117.04304736 175.857235 -117.04296875 171.9765625 C-117.00584274 170.79309235 -116.96871674 169.60962219 -116.9304657 168.39028931 C-116.94258422 161.97285491 -116.94258422 161.97285491 -119.99771118 156.52362061 C-122.37652388 154.36415273 -122.37652388 154.36415273 -124.86958313 152.58676147 C-127 151 -127 151 -129 148 C-129.58814978 153.03078114 -130.04964699 157.81336413 -129.6875 162.875 C-129.64453125 165.08203125 -129.64453125 165.08203125 -130 167 C-134.48780488 171 -134.48780488 171 -138 171 C-138 171.66 -138 172.32 -138 173 C-139.2353864 173.96390642 -140.51646188 174.86932961 -141.8125 175.75 C-150.24115966 182.08483123 -156.28336567 191.24515441 -162 200 C-167.79398402 199.4912229 -172.15563936 197.82089222 -177.3125 195.1875 C-178.02728516 194.84396484 -178.74207031 194.50042969 -179.47851562 194.14648438 C-180.16236328 193.80294922 -180.84621094 193.45941406 -181.55078125 193.10546875 C-182.16606689 192.79762451 -182.78135254 192.48978027 -183.4152832 192.17260742 C-185 191 -185 191 -187 187 C-183.7 186.01 -180.4 185.02 -177 184 C-178.670625 184.061875 -180.34125 184.12375 -182.0625 184.1875 C-198.91819056 184.12786902 -212.09422648 178.97145152 -224.05859375 167.203125 C-227.28350969 163.82779121 -230.0050495 160.16985027 -232.625 156.3125 C-233.03886963 155.70736572 -233.45273926 155.10223145 -233.87915039 154.47875977 C-236.69388501 150.10350927 -238.08675341 146.13233901 -239 141 C-238.690625 139.88625 -238.38125 138.7725 -238.0625 137.625 C-237.98443422 133.0971849 -238.96282678 132.52381131 -242 129.3125 C-242.83015625 128.45527344 -243.6603125 127.59804688 -244.515625 126.71484375 C-261.00674127 108.69389122 -264.17304917 78.00644514 -264.1875 54.625 C-264.20586914 53.02591797 -264.20586914 53.02591797 -264.22460938 51.39453125 C-264.22654297 50.36972656 -264.22847656 49.34492188 -264.23046875 48.2890625 C-264.23457764 47.36818848 -264.23868652 46.44731445 -264.24291992 45.49853516 C-263.88683316 41.83603073 -262.79949826 39.74619837 -260.125 37.25 C-258 36 -258 36 -254 36 C-253.8040625 36.55945313 -253.608125 37.11890625 -253.40625 37.6953125 C-247.22142442 54.27704315 -236.91540917 67.89708709 -225.01953125 80.79296875 C-223.26095093 82.71482152 -221.59180225 84.67647489 -219.9375 86.6875 C-216.63230519 90.54954828 -212.92975481 93.78592902 -209 97 C-208.09765625 97.73992187 -207.1953125 98.47984375 -206.265625 99.2421875 C-189.52651478 112.54000856 -171.34439907 122.04102299 -152 131 C-147.84011577 132.94191392 -144.47801251 135.01419253 -140.9375 137.9375 C-140.12152344 138.60652344 -139.30554688 139.27554688 -138.46484375 139.96484375 C-137.24474609 140.97224609 -137.24474609 140.97224609 -136 142 C-134.33536813 143.33587286 -132.66927613 144.66993506 -131 146 C-131.27714844 145.33613281 -131.55429688 144.67226563 -131.83984375 143.98828125 C-132.20207031 143.10527344 -132.56429687 142.22226562 -132.9375 141.3125 C-133.47697266 140.00732422 -133.47697266 140.00732422 -134.02734375 138.67578125 C-139.62531527 123.27573912 -135.41865468 103.8031505 -128.8046875 89.390625 C-125.69486308 83.54792458 -121.98774198 78.27081801 -118 73 C-117.53207031 72.34644531 -117.06414062 71.69289063 -116.58203125 71.01953125 C-110.13701089 62.67075103 -100.96090066 55.97270209 -91.19970703 52.19360352 C-84.70586541 49.87808818 -84.70586541 49.87808818 -79.86230469 45.26025391 C-78.15585104 41.27422451 -77.32955102 37.10307736 -76.46142578 32.87109375 C-73.6970102 21.66131543 -62.87839479 11.62694092 -53.60546875 5.53125 C-37.95316425 -3.66770557 -17.23143343 -7.14349172 0 0 Z " fill="#FBB825" transform="translate(277,170)"/>
<path d="M0 0 C4.6196373 2.91995943 7.06026803 6.73551407 9.8125 11.3125 C10.24336914 12.01818115 10.67423828 12.7238623 11.11816406 13.45092773 C19.8269315 27.86217038 26.69180807 42.43871328 31.8125 58.5 C32.01963623 59.14638428 32.22677246 59.79276855 32.44018555 60.45874023 C36.79656931 74.63305083 35.70585094 88.88247262 32 103 C32.49371094 103.40992188 32.98742187 103.81984375 33.49609375 104.2421875 C34.13675781 104.78101563 34.77742188 105.31984375 35.4375 105.875 C36.07558594 106.40867187 36.71367187 106.94234375 37.37109375 107.4921875 C39.32199777 109.29806028 39.94784288 110.35095995 40.16113281 113.00512695 C40.67361478 143.31009263 37.31862753 175.2123385 17 199 C15.68570341 200.35210208 14.35975884 201.69362661 13 203 C13.33 203.66 13.66 204.32 14 205 C15.25860048 210.74681728 14.30988336 215.10619388 11.28759766 220.14892578 C2.26076661 234.03606653 -8.48287158 245.8239713 -25 250 C-24.88140625 250.58007812 -24.7628125 251.16015625 -24.640625 251.7578125 C-23.97578112 255.7867664 -23.70497757 258.29756565 -25.3125 262.125 C-31.9512268 269.22689378 -40.13003708 273.30868921 -49 277 C-50.39611013 277.60352677 -51.79198834 278.20759071 -53.1875 278.8125 C-54.115625 279.204375 -55.04375 279.59625 -56 280 C-55.72285156 280.9178125 -55.44570313 281.835625 -55.16015625 282.78125 C-54.79792969 284.0084375 -54.43570312 285.235625 -54.0625 286.5 C-53.70285156 287.7065625 -53.34320313 288.913125 -52.97265625 290.15625 C-49.28339721 304.73549054 -48.76386749 324.57228288 -55.875 338.1875 C-58.0064945 341.00859566 -60.10213007 342.98759033 -63 345 C-62.649375 345.680625 -62.29875 346.36125 -61.9375 347.0625 C-60.71808229 350.88334216 -60.98024028 353.12491307 -62 357 C-63.44117734 359.57682508 -64.76681085 360.91569012 -67 363 C-70.3125 363.875 -70.3125 363.875 -73 364 C-72.67 364.99 -72.34 365.98 -72 367 C-71.55229165 371.65616679 -71.8998896 375.14774524 -74.39453125 379.19140625 C-76.49437621 381.55692502 -78.87994032 383.10847111 -81.5 384.875 C-86.98694552 388.66412572 -89.00284281 391.76272447 -91 398 C-91.69612454 399.81722398 -92.40451881 401.62979449 -93.125 403.4375 C-93.43695313 404.26121094 -93.74890625 405.08492188 -94.0703125 405.93359375 C-95 408 -95 408 -97 410 C-99.9375 410.3125 -99.9375 410.3125 -103 410 C-109.70110664 404.50550684 -113.17870071 391.82111196 -114.125 383.5625 C-114.36888909 374.1663519 -111.08019393 366.11690902 -105 359 C-102.74762611 357.06422485 -100.53561458 355.57208104 -98 354 C-98.7734375 352.4840625 -98.7734375 352.4840625 -99.5625 350.9375 C-101.24452565 346.95375504 -101.24861833 344.21408687 -100 340 C-97.5625 337.1875 -97.5625 337.1875 -95 335 C-94.34 334.34 -93.68 333.68 -93 333 C-93.10837181 330.65194406 -93.51516526 328.41017501 -93.90625 326.09375 C-93.99322448 323.22359213 -93.66793077 321.16600258 -93.046875 318.390625 C-91.80568396 312.64690647 -91.70405159 307.10842173 -91.75 301.25 C-91.74226563 300.24839844 -91.73453125 299.24679687 -91.7265625 298.21484375 C-91.74015254 293.08460494 -91.94440981 288.7963771 -94 284 C-94.13535156 284.88558594 -94.27070313 285.77117187 -94.41015625 286.68359375 C-97.93623549 306.97438507 -106.72475282 323.10183294 -121 338 C-121.58523438 338.63679688 -122.17046875 339.27359375 -122.7734375 339.9296875 C-138.81790905 356.87807294 -163.0501463 365.45573164 -185.96533203 366.20703125 C-190.59912453 366.30907065 -195.231426 366.32630407 -199.86621094 366.31567383 C-202.73150977 366.31252035 -205.59576585 366.33603564 -208.4609375 366.36132812 C-236.56733926 366.45950599 -262.47270624 360.36999649 -283 340 C-283.886875 339.154375 -284.77375 338.30875 -285.6875 337.4375 C-286.450625 336.633125 -287.21375 335.82875 -288 335 C-288.51820313 334.46503906 -289.03640625 333.93007813 -289.5703125 333.37890625 C-302.24086781 319.71402485 -308.82216247 303.09137333 -312 285 C-312.33 285 -312.66 285 -313 285 C-315.06750458 295.7828316 -314.80826502 305.15487856 -313.28466797 315.97607422 C-312.89442733 318.75059815 -312.5536462 321.52720218 -312.25 324.3125 C-312.15203125 325.11300781 -312.0540625 325.91351563 -311.953125 326.73828125 C-312.01055799 329.5094232 -312.84945888 331.49978564 -314 334 C-312.8553125 334.37125 -312.8553125 334.37125 -311.6875 334.75 C-308.61961508 336.17692322 -307.59992704 337.04013498 -306 340 C-304.46215378 345.82184641 -305.36730791 348.8399235 -308 354 C-307.33613281 354.53367187 -306.67226563 355.06734375 -305.98828125 355.6171875 C-298.44295025 361.98390476 -293.46761468 368.02368575 -292.0625 378 C-291.52878796 389.10465373 -295.90820052 398.39283118 -301 408 C-303 410 -303 410 -306.625 410.125 C-308.295625 410.063125 -308.295625 410.063125 -310 410 C-312.26103592 405.12915135 -314.25689664 400.29104653 -315.9375 395.1875 C-317.54605535 390.71584034 -318.85578539 388.54304078 -323 386 C-332.13813814 379.81831832 -332.13813814 379.81831832 -334 374 C-334.33967231 370.51182663 -334.60424909 367.20849817 -333 364 C-333.886875 363.95875 -334.77375 363.9175 -335.6875 363.875 C-339.25077072 362.93375868 -340.82311642 361.76091984 -343.02734375 358.8125 C-345.51617341 354.17468087 -345.40608165 348.99940142 -344 344 C-344.763125 343.443125 -345.52625 342.88625 -346.3125 342.3125 C-353.43818511 336.18109653 -354.48692663 326.64451219 -355.17724609 317.70458984 C-355.73369327 306.40894685 -354.42934577 296.01387333 -352 285 C-351.65383212 283.00218146 -351.31591276 281.00282556 -351 279 C-351.66644531 278.78085937 -352.33289063 278.56171875 -353.01953125 278.3359375 C-362.79938655 274.97112015 -375.54808708 270.41985486 -381.171875 261.046875 C-382.40471783 257.99965971 -382.18032956 255.24593215 -382 252 C-381.505 251.01 -381.505 251.01 -381 250 C-379.700625 250.165 -378.40125 250.33 -377.0625 250.5 C-369.39496481 251.28556277 -361.69712133 251.08036438 -354 251 C-358.88529565 253.5497815 -363.45157389 255 -369 255 C-365.50271349 258.82231313 -362.34106743 261.12160853 -357.625 263.25 C-356.54476562 263.75015625 -355.46453125 264.2503125 -354.3515625 264.765625 C-350.87411269 266.04636409 -347.67595185 266.6091393 -344 267 C-343.45472656 266.17757813 -342.90945313 265.35515625 -342.34765625 264.5078125 C-330.15920627 246.37104983 -330.15920627 246.37104983 -322 241 C-321.34 241 -320.68 241 -320 241 C-320 240.34 -320 239.68 -320 239 C-314.58823529 235 -314.58823529 235 -312 235 C-312.08378906 234.39414062 -312.16757812 233.78828125 -312.25390625 233.1640625 C-313.01157955 226.93004164 -312.85947067 221.21463404 -312 215 C-310.87645604 216.15865471 -309.75365396 217.31803365 -308.63349915 218.47996521 C-307.01059831 220.06747485 -307.01059831 220.06747485 -304.98600769 221.36781311 C-301.59882742 223.78648298 -299.35112163 225.63300986 -298.29214478 229.75582886 C-298.06110714 233.13146994 -298.07537344 236.42648816 -298.17578125 239.80859375 C-298.17676315 241.04811295 -298.17774506 242.28763214 -298.17875671 243.56471252 C-298.18450655 246.85572742 -298.22167507 250.14416121 -298.27856445 253.43463135 C-299.13063878 277.77132271 -299.13063878 277.77132271 -293 301 C-292.67523682 301.82346924 -292.35047363 302.64693848 -292.01586914 303.49536133 C-283.46211308 324.3031614 -267.41071906 337.66359349 -247.1875 346.6875 C-233.63122197 351.98668958 -220.69719831 352.5046893 -206.31494141 352.44604492 C-203.13768659 352.43753398 -199.96223473 352.46638898 -196.78515625 352.49804688 C-170.76066109 352.58740224 -148.13769781 345.25839818 -129 327 C-112.49919151 308.50064638 -106.84808571 286.41368738 -106.8671875 262.28125 C-106.86537979 261.24548325 -106.86357208 260.20971649 -106.86170959 259.14256287 C-106.85854646 254.83179294 -106.86072934 250.52232614 -106.92089844 246.21191406 C-106.95995314 243.02562225 -106.94884821 239.84265373 -106.9296875 236.65625 C-106.95537811 235.68949341 -106.98106873 234.72273682 -107.00753784 233.72668457 C-106.95051522 229.71409956 -106.88477986 227.06164915 -104.25567627 223.90698242 C-102.11767578 222.05273437 -102.11767578 222.05273437 -99.99197388 220.49841309 C-97.99446811 218.99583877 -96.67035161 217.49799515 -95.1875 215.5 C-92.00561973 211.61200384 -88.07631987 209.30357923 -83.78125 206.7734375 C-80.88548077 205.02587551 -80.88548077 205.02587551 -78.17578125 202.5234375 C-74.69915676 199.55640503 -70.88424437 197.9748018 -66.6875 196.25 C-52.02535781 189.94859064 -38.72212609 182.65752519 -26 173 C-27.98 170.69 -29.96 168.38 -32 166 C-35.84168599 167.92084299 -39.46587134 170.07588114 -43.125 172.3125 C-48.94790899 175.84487071 -54.82667122 179.10942958 -61 182 C-58.27380111 174.94744201 -54.34033003 170.24230147 -48.97265625 165.03515625 C-46.26020527 162.23676623 -44.15908744 159.23863116 -42 156 C-44.31 153.69 -46.62 151.38 -49 149 C-47.64952979 145.17932299 -45.92251255 142.37534438 -43.4375 139.1875 C-30.26840829 121.32706821 -21.92883538 100.55410278 -17 79 C-16.75443359 77.95368408 -16.75443359 77.95368408 -16.50390625 76.88623047 C-12.10022949 57.23800741 -12.29792928 34.48762154 -15.55151367 14.65625 C-16.27233951 9.82063763 -15.59819391 7.1276272 -13 3 C-9.66686124 -0.84592934 -4.76469805 -1.0204328 0 0 Z " fill="#FCBD2A" transform="translate(459,102)"/>
<path d="M0 0 C3.00333012 1.67393023 5.79788926 3.41121499 8.5625 5.44604492 C17.59062871 11.97302982 26.82853057 13.61062621 37.7890625 13.53125 C39.56487198 13.53699036 39.56487198 13.53699036 41.3765564 13.54284668 C43.86237445 13.54555193 46.34822165 13.5382888 48.83398438 13.52148438 C52.62174235 13.50001846 56.40761194 13.52135538 60.1953125 13.546875 C62.62239998 13.54423223 65.0494863 13.5391083 67.4765625 13.53125 C68.59866119 13.53934692 69.72075989 13.54744385 70.87686157 13.55578613 C77.09200436 13.48220146 81.74022705 12.7581731 87.2762146 9.85632324 C89 9 89 9 91 9 C91.07671175 16.57643063 91.12887489 24.15275935 91.16479492 31.72949219 C91.17978577 34.30147036 91.20018528 36.8734234 91.22631836 39.4453125 C91.54445523 71.58337439 91.54445523 71.58337439 84.8125 86.1875 C84.51279297 86.85330078 84.21308594 87.51910156 83.90429688 88.20507812 C81.01527245 94.38222932 77.32087508 99.72853241 73 105 C72.45859375 105.70382812 71.9171875 106.40765625 71.359375 107.1328125 C60.93751914 120.03365349 44.09645905 129.33372384 28 133 C27.39469955 133.15885681 26.78939911 133.31771362 26.16575623 133.48138428 C20.13447426 134.97842078 14.41695577 135.32141887 8.21875 135.3359375 C6.70021423 135.3459227 6.70021423 135.3459227 5.15100098 135.35610962 C3.01637573 135.36618558 0.88171931 135.37092822 -1.25292969 135.37060547 C-4.46344182 135.37495052 -7.67254539 135.41124785 -10.8828125 135.44921875 C-36.90281311 135.59236564 -59.10475024 128.93765815 -78.4375 110.6484375 C-84.64504004 104.23271776 -89.16997971 97.07699989 -93.25 89.1875 C-93.72602661 88.28330322 -93.72602661 88.28330322 -94.21166992 87.36083984 C-99.66955199 76.31311114 -101.60158887 65.17102884 -101.390625 52.9453125 C-101.38496521 51.67775116 -101.37930542 50.41018982 -101.37347412 49.10421753 C-101.35507853 45.7864785 -101.31935282 42.46956766 -101.2746582 39.15209961 C-101.23322585 35.7460323 -101.21536243 32.33984214 -101.1953125 28.93359375 C-101.15153983 22.28874804 -101.08485336 15.64444148 -101 9 C-100.3513649 9.28299454 -99.7027298 9.56598907 -99.03443909 9.8575592 C-91.66934374 12.8331494 -85.36042044 13.57724246 -77.46484375 13.49609375 C-76.30553848 13.49754898 -75.14623322 13.49900421 -73.95179749 13.50050354 C-71.51723703 13.49885392 -69.08266512 13.48739886 -66.64819336 13.46655273 C-62.94404366 13.43755123 -59.24132446 13.44597507 -55.53710938 13.45898438 C-53.15884729 13.45274695 -50.78058967 13.44435598 -48.40234375 13.43359375 C-46.75974831 13.43799721 -46.75974831 13.43799721 -45.08396912 13.44248962 C-36.2583488 13.33535027 -28.28167219 11.8914803 -20.75 7.0625 C-19.91984375 6.54558594 -19.0896875 6.02867187 -18.234375 5.49609375 C-15.82148376 3.9233681 -15.82148376 3.9233681 -13 1.625 C-8.48140969 -0.82256975 -5.00963836 -1.24735275 0 0 Z " fill="#06A6F0" transform="translate(261,320)"/>
<path d="M0 0 C2.87029869 1.79393668 4.49131638 2.98263276 6 6 C6.09848109 8.01886229 6.12972809 10.04124269 6.125 12.0625 C6.12886719 13.68865234 6.12886719 13.68865234 6.1328125 15.34765625 C6 19 6 19 5.51171875 22.921875 C1.39068389 58.02849658 7.77110853 93.08525522 25 124 C25.598125 125.08539063 26.19625 126.17078125 26.8125 127.2890625 C30.50390992 133.79846839 34.59751525 139.9516015 39 146 C38.96519531 144.97003906 38.93039063 143.94007813 38.89453125 142.87890625 C38.37549579 120.77271407 43.12560208 99.68985734 57 82 C61.05445487 78.01305253 64.5263158 76.20421052 70 75 C70.0825 73.783125 70.165 72.56625 70.25 71.3125 C70.77654247 67.18060426 71.90936435 64.91893367 75 62 C79.17411381 59.51809449 82.33679812 60.08564669 87 61 C87.04125 59.989375 87.0825 58.97875 87.125 57.9375 C87.81664885 53.14466573 90.40220938 50.10795058 94 47 C96.72893932 45.72649498 99.12984048 45.12639188 102.09765625 44.6953125 C111.53232792 43.10938141 116.64698775 36.84624679 122.26171875 29.50390625 C124 28 124 28 126.45703125 27.46484375 C129 28 129 28 131.28125 29.83203125 C133.78249204 34.44227509 133.5830097 38.52360515 133.5 43.6875 C133.52320313 45.10192383 133.52320313 45.10192383 133.546875 46.54492188 C133.49412127 56.13950662 130.68981242 64.19740895 124.05859375 71.2421875 C118.92840548 75.62280367 112.75465813 78.46673752 106 79 C106.03480469 79.59167969 106.06960937 80.18335938 106.10546875 80.79296875 C106.27348484 85.69743851 106.32986734 89.0960176 103 93 C99.58511082 95.60609964 97.27788797 96.36667611 93 96 C92.92136719 97.18464844 92.84273437 98.36929688 92.76171875 99.58984375 C92.19542673 104.08756625 90.47036949 106.86285252 87.8125 110.5625 C77.05760336 126.26289126 72.08594451 145.24325762 75.38525391 164.21533203 C76.11819846 167.43684419 77.03255643 170.55118237 78.02734375 173.703125 C79.77438882 179.624836 80.07100302 185.10857204 79.875 191.25 C79.81461825 198.01946564 80.87931173 203.61595915 83 210 C83.34554148 211.33022178 83.68333086 212.66261092 84 214 C81.69 214 79.38 214 77 214 C78.32 213.34 79.64 212.68 81 212 C80.25234375 211.45730469 79.5046875 210.91460937 78.734375 210.35546875 C77.74953125 209.64003906 76.7646875 208.92460937 75.75 208.1875 C74.77546875 207.47980469 73.8009375 206.77210938 72.796875 206.04296875 C71.2187241 204.89021327 69.65552342 203.71378584 68.15234375 202.46484375 C64.92557181 200.26876485 61.39676868 198.89475731 57.8125 197.375 C30.45863817 185.43851744 3.8844177 168.53224556 -15 145 C-15.75667969 144.06929687 -16.51335938 143.13859375 -17.29296875 142.1796875 C-22.6359525 135.48679797 -27.3395304 128.52978314 -31.77661133 121.20507812 C-34.09275823 117.37913421 -34.09275823 117.37913421 -37 114 C-37 113.01 -37 112.02 -37 111 C-37.33 110.34 -37.66 109.68 -38 109 C-39 107 -39 107 -39 104 C-39.66 104 -40.32 104 -41 104 C-49.38549656 72.95369727 -38.45256726 45.16094086 -23.20947266 18.09326172 C-11.52484348 -2.12959064 -11.52484348 -2.12959064 0 0 Z " fill="#FDBC27" transform="translate(62,102)"/>
<path d="M0 0 C16.95477137 8.85023367 29.32716773 21.31431076 35.375 39.76171875 C35.71337891 40.76525391 35.71337891 40.76525391 36.05859375 41.7890625 C40.47458523 57.6561767 36.81459698 74.57623448 29.2578125 88.81640625 C20.18717654 103.00574134 5.69615322 114.41927436 -10.82421875 118.21875 C-25.1299098 120.26242015 -40.08581351 120.26509557 -52.875 112.88671875 C-53.7825 112.18546875 -54.69 111.48421875 -55.625 110.76171875 C-57.06210509 109.86525204 -58.49964714 108.96948562 -59.9375 108.07421875 C-74.48342173 98.29544784 -82.90706986 83.69651035 -86.625 66.76171875 C-88.03756804 49.16026485 -85.05264936 33.19606902 -74.40234375 18.74609375 C-65.10614023 7.92319664 -54.13129977 1.17193908 -40.625 -3.23828125 C-28.32650074 -7.337781 -11.62581449 -5.43116177 0 0 Z " fill="#F64973" transform="translate(280.625,24.23828125)"/>
<path d="M0 0 C4.6295586 2.37594871 8.72575468 5.22768639 12.80859375 8.44140625 C13.56914062 9.02535156 14.3296875 9.60929687 15.11328125 10.2109375 C26.69747274 19.73081805 35.9102286 34.97520107 38.5546875 49.83984375 C40.58614157 70.6544347 40.58614157 70.6544347 33.80859375 79.44140625 C28.42639327 85.29924305 21.87117468 89.1424964 13.81118774 89.53988647 C11.36839488 89.59029775 8.9276891 89.60621898 6.484375 89.609375 C5.58293259 89.6127034 4.68149017 89.6160318 3.75273132 89.61946106 C1.84728504 89.62451442 -0.05817007 89.62686988 -1.96362305 89.62670898 C-4.85155187 89.62888563 -7.7390923 89.64703114 -10.62695312 89.66601562 C-12.48567579 89.668952 -14.34440025 89.67093516 -16.203125 89.671875 C-17.0545256 89.67906052 -17.90592621 89.68624603 -18.78312683 89.69364929 C-30.15719848 89.65117994 -38.81799554 87.53771214 -47.16796875 79.55078125 C-53.24021543 72.98758696 -57.25679424 65.87387482 -57.3684082 56.81567383 C-57.38124344 55.90404984 -57.39407867 54.99242584 -57.40730286 54.05317688 C-57.41468979 53.07398788 -57.42207672 52.09479889 -57.4296875 51.0859375 C-57.43775925 50.06972824 -57.44583099 49.05351898 -57.45414734 48.0065155 C-57.46796969 45.85551652 -57.4787001 43.70449578 -57.48657227 41.5534668 C-57.49808157 39.36264583 -57.5185166 37.17185268 -57.5480957 34.98120117 C-57.59094033 31.80758701 -57.60696603 28.63480564 -57.6171875 25.4609375 C-57.63469559 24.49186966 -57.65220367 23.52280182 -57.67024231 22.52436829 C-57.6410688 13.27656555 -54.80086109 6.05086109 -48.19140625 -0.55859375 C-33.76358948 -10.99754353 -15.39197512 -6.84769146 0 0 Z " fill="#05B1F0" transform="translate(319.19140625,232.55859375)"/>
<path d="M0 0 C6.24377194 6.13227601 9.317124 13.37746383 9.4168396 22.04130554 C9.41076691 22.9081044 9.40469421 23.77490326 9.3984375 24.66796875 C9.40130768 25.58403397 9.40417786 26.50009918 9.40713501 27.44392395 C9.40916865 29.37611512 9.40368798 31.3083272 9.39111328 33.24047852 C9.37514242 36.16145256 9.39093799 39.08102345 9.41015625 42.00195312 C9.42605426 55.84408733 9.1914079 69.27086292 -0.78515625 79.90234375 C-12.50873782 90.92670574 -25.97938372 90.26164091 -41.12939453 90.35009766 C-43.20275101 90.36664298 -45.27605079 90.39391412 -47.34912109 90.43212891 C-50.36325179 90.48728006 -53.37605574 90.50882797 -56.390625 90.5234375 C-57.30450989 90.54610687 -58.21839478 90.56877625 -59.15997314 90.59213257 C-66.89135149 90.56711622 -73.39211353 88.31165558 -79.15167236 83.0249939 C-86.01193771 75.72615832 -87.54485394 69.68007035 -87.2734375 59.8046875 C-85.87565922 40.35560115 -77.9535779 24.35504316 -63.875 10.875 C-47.29439185 -3.22279764 -19.47420931 -14.1548651 0 0 Z " fill="#05B2F0" transform="translate(241,232)"/>
<path d="M0 0 C4.6196373 2.91995943 7.06026803 6.73551407 9.8125 11.3125 C10.24336914 12.01818115 10.67423828 12.7238623 11.11816406 13.45092773 C19.8269315 27.86217038 26.69180807 42.43871328 31.8125 58.5 C32.12320435 59.46957642 32.12320435 59.46957642 32.44018555 60.45874023 C37.92742541 78.31250298 35.64447157 96.94264532 27.11303711 113.31152344 C26.09057292 115.21652832 25.05041841 117.11029206 24 119 C23.49210937 119.928125 22.98421875 120.85625 22.4609375 121.8125 C15.12337395 134.60199624 5.40619441 145.64198242 -5 156 C-5.77859375 156.80179688 -6.5571875 157.60359375 -7.359375 158.4296875 C-12.59143224 163.78143233 -17.95240035 168.58846596 -24 173 C-27.74020498 171.31847927 -29.56134348 169.30960527 -32 166 C-35.87588717 167.82108266 -39.47671265 170.08250782 -43.125 172.3125 C-48.94790899 175.84487071 -54.82667122 179.10942958 -61 182 C-58.27380111 174.94744201 -54.34033003 170.24230147 -48.97265625 165.03515625 C-46.26020527 162.23676623 -44.15908744 159.23863116 -42 156 C-45.465 152.535 -45.465 152.535 -49 149 C-47.64952979 145.17932299 -45.92251255 142.37534438 -43.4375 139.1875 C-30.26840829 121.32706821 -21.92883538 100.55410278 -17 79 C-16.83628906 78.30245605 -16.67257812 77.60491211 -16.50390625 76.88623047 C-12.10022949 57.23800741 -12.29792928 34.48762154 -15.55151367 14.65625 C-16.27233951 9.82063763 -15.59819391 7.1276272 -13 3 C-9.66686124 -0.84592934 -4.76469805 -1.0204328 0 0 Z " fill="#FCC130" transform="translate(459,102)"/>
<path d="M0 0 C4.26309855 1.18941076 6.42005108 4.32114321 9.22265625 7.6171875 C10.34351852 8.9109828 11.46965952 10.20022776 12.6015625 11.484375 C13.09342041 12.0604248 13.58527832 12.63647461 14.09204102 13.22998047 C17.35164513 16.37336952 20.58881941 16.9713356 24.97265625 17.4921875 C30.56915564 18.46354253 34.18065274 20.18215441 37.66015625 24.7421875 C38.99614698 27.40459196 39.81633041 29.86325228 40.66015625 32.7421875 C41.25183594 32.76796875 41.84351563 32.79375 42.453125 32.8203125 C47.6747627 33.19511194 50.96325427 33.70920352 54.66015625 37.7421875 C56.50568692 41.1696016 56.88101045 43.87723908 56.66015625 47.7421875 C57.85640625 48.1340625 59.05265625 48.5259375 60.28515625 48.9296875 C69.58082668 51.97482092 73.50728834 59.77535889 77.74804688 67.93310547 C84.0847876 80.50142687 88.16212069 93.95652105 87.46875 108.12109375 C86.78132674 116.59424983 86.78132674 116.59424983 89.21484375 124.45703125 C90.94785899 126.15872694 92.56916051 127.51532776 94.66015625 128.7421875 C90.86654783 134.20200825 86.72211519 138.79092671 81.80859375 143.2734375 C79.03420835 146.46145854 77.39485153 149.91340847 75.66015625 153.7421875 C84.64976138 148.8235574 93.43394459 143.89207169 101.66015625 137.7421875 C106.21031518 139.25890714 108.16072889 142.91109803 110.66015625 146.7421875 C95.9286416 156.78730085 80.40375063 166.11451815 63.72265625 172.5546875 C59.12471839 174.33796876 56.08609061 176.69212881 52.55078125 180.09375 C49.55837651 182.70283017 46.27035933 184.13048969 42.66015625 185.7421875 C42.97738647 184.85623901 42.97738647 184.85623901 43.30102539 183.95239258 C45.50433959 177.32175551 46.04640631 171.38046091 46.09765625 164.4296875 C46.28534513 156.5118798 46.91211725 149.81327618 49.72265625 142.36328125 C54.87485759 127.958585 52.01069876 110.26122256 46.3046875 96.46484375 C43.85510093 91.36208567 40.99345738 86.69155025 37.84765625 81.9921875 C34.83474073 77.41972319 33.76306535 74.19636959 33.66015625 68.7421875 C32.60828125 68.6803125 31.55640625 68.6184375 30.47265625 68.5546875 C25.99678369 67.60081302 24.53732758 66.21171763 21.66015625 62.7421875 C20.45742806 60.33673112 20.55944153 58.79221797 20.59765625 56.1171875 C20.60667969 55.29992187 20.61570312 54.48265625 20.625 53.640625 C20.63660156 53.01414063 20.64820313 52.38765625 20.66015625 51.7421875 C20.10328125 51.65582031 19.54640625 51.56945312 18.97265625 51.48046875 C10.72853641 49.96254804 4.26839585 46.53106366 -0.9284668 39.828125 C-5.87577993 32.51626833 -6.98184187 25.08565647 -6.83984375 16.4296875 C-6.8553125 15.46740234 -6.87078125 14.50511719 -6.88671875 13.51367188 C-6.86277954 9.1896514 -6.70857014 6.42181727 -4.62109375 2.57421875 C-2.33984375 0.7421875 -2.33984375 0.7421875 0 0 Z " fill="#FEBA22" transform="translate(323.33984375,129.2578125)"/>
<path d="M0 0 C0.07515048 6.23980185 0.12906613 12.47933009 0.16479492 18.71948242 C0.17971722 20.83443806 0.20006237 22.94936368 0.22631836 25.06420898 C0.36801161 36.78585279 0.15513644 47.87325872 -2.36865234 59.35205078 C-3.90234438 68.21377792 -2.30771594 77.028599 -0.34765625 85.7109375 C0.32436102 90.13568044 0.01740486 94.96519028 -2 99 C-0.8553125 99.37125 -0.8553125 99.37125 0.3125 99.75 C3.38038492 101.17692322 4.40007296 102.04013498 6 105 C7.53784622 110.82184641 6.63269209 113.8399235 4 119 C4.66386719 119.53367187 5.32773438 120.06734375 6.01171875 120.6171875 C13.55704975 126.98390476 18.53238532 133.02368575 19.9375 143 C20.47121204 154.10465373 16.09179948 163.39283118 11 173 C9 175 9 175 5.375 175.125 C4.26125 175.08375 3.1475 175.0425 2 175 C-0.26103592 170.12915135 -2.25689664 165.29104653 -3.9375 160.1875 C-5.54605535 155.71584034 -6.85578539 153.54304078 -11 151 C-20.13813814 144.81831832 -20.13813814 144.81831832 -22 139 C-22.33967231 135.51182663 -22.60424909 132.20849817 -21 129 C-21.886875 128.95875 -22.77375 128.9175 -23.6875 128.875 C-27.25077072 127.93375868 -28.82311642 126.76091984 -31.02734375 123.8125 C-33.51617341 119.17468087 -33.40608165 113.99940142 -32 109 C-32.763125 108.443125 -33.52625 107.88625 -34.3125 107.3125 C-41.43818511 101.18109653 -42.48692663 91.64451219 -43.17724609 82.70458984 C-43.73369327 71.40894685 -42.42934577 61.01387333 -40 50 C-39.65383212 48.00218146 -39.31591276 46.00282556 -39 44 C-39.66644531 43.78085937 -40.33289063 43.56171875 -41.01953125 43.3359375 C-50.79938655 39.97112015 -63.54808708 35.41985486 -69.171875 26.046875 C-70.40471783 22.99965971 -70.18032956 20.24593215 -70 17 C-69.67 16.34 -69.34 15.68 -69 15 C-67.700625 15.165 -66.40125 15.33 -65.0625 15.5 C-57.39496481 16.28556277 -49.69712133 16.08036438 -42 16 C-46.88529565 18.5497815 -51.45157389 20 -57 20 C-53.50271349 23.82231313 -50.34106743 26.12160853 -45.625 28.25 C-44.00464844 29.00023437 -44.00464844 29.00023437 -42.3515625 29.765625 C-38.87411269 31.04636409 -35.67595185 31.6091393 -32 32 C-31.18208984 30.76636719 -31.18208984 30.76636719 -30.34765625 29.5078125 C-18.15920627 11.37104983 -18.15920627 11.37104983 -10 6 C-9.34 6 -8.68 6 -8 6 C-8 5.34 -8 4.68 -8 4 C-2.58823529 0 -2.58823529 0 0 0 Z " fill="#FEBC25" transform="translate(147,337)"/>
<path d="M0 0 C4.10512519 0.86127677 6.91284798 2.84432594 10.1875 5.375 C10.76048828 5.81763184 11.33347656 6.26026367 11.92382812 6.71630859 C19.9051877 13.09111791 26.00135071 21.13142868 31 30 C31 30.66 31 31.32 31 32 C40.29169822 29.4293447 49.05279517 26.94720483 56 20 C53.03 19.01 50.06 18.02 47 17 C47 16.67 47 16.34 47 16 C47.9178125 15.93941406 48.835625 15.87882812 49.78125 15.81640625 C56.218508 15.37688758 62.60935705 14.89469001 69 14 C69.91444126 18.4728105 70.4878217 21.83851976 68.6875 26.125 C62.0487732 33.22689378 53.86996292 37.30868921 45 41 C43.60388987 41.60352677 42.20801166 42.20759071 40.8125 42.8125 C39.4203125 43.4003125 39.4203125 43.4003125 38 44 C38.27714844 44.9178125 38.55429687 45.835625 38.83984375 46.78125 C39.38318359 48.62203125 39.38318359 48.62203125 39.9375 50.5 C40.29714844 51.7065625 40.65679687 52.913125 41.02734375 54.15625 C44.71660279 68.73549054 45.23613251 88.57228288 38.125 102.1875 C35.9935055 105.00859566 33.89786993 106.98759033 31 109 C31.350625 109.680625 31.70125 110.36125 32.0625 111.0625 C33.28191771 114.88334216 33.01975972 117.12491307 32 121 C30.55882266 123.57682508 29.23318915 124.91569012 27 127 C23.6875 127.875 23.6875 127.875 21 128 C21.33 128.99 21.66 129.98 22 131 C22.44770835 135.65616679 22.1001104 139.14774524 19.60546875 143.19140625 C17.50562379 145.55692502 15.12005968 147.10847111 12.5 148.875 C7.01305448 152.66412572 4.99715719 155.76272447 3 162 C2.30387546 163.81722398 1.59548119 165.62979449 0.875 167.4375 C0.56304687 168.26121094 0.25109375 169.08492187 -0.0703125 169.93359375 C-1 172 -1 172 -3 174 C-5.9375 174.3125 -5.9375 174.3125 -9 174 C-15.70110664 168.50550684 -19.17870071 155.82111196 -20.125 147.5625 C-20.36888909 138.1663519 -17.08019393 130.11690902 -11 123 C-8.74762611 121.06422485 -6.53561458 119.57208104 -4 118 C-4.515625 116.989375 -5.03125 115.97875 -5.5625 114.9375 C-7.24452565 110.95375504 -7.24861833 108.21408687 -6 104 C-3.5625 101.1875 -3.5625 101.1875 -1 99 C-0.01 98.01 -0.01 98.01 1 97 C0.89162819 94.65194406 0.48483474 92.41017501 0.09375 90.09375 C0.00671234 87.22150738 0.33276122 85.15699698 0.953125 82.37890625 C2.18012872 76.69766745 2.29608348 71.23249733 2.25 65.4375 C2.25773437 64.46103516 2.26546875 63.48457031 2.2734375 62.47851562 C2.26957031 61.0331543 2.26957031 61.0331543 2.265625 59.55859375 C2.26336914 58.70579834 2.26111328 57.85300293 2.25878906 56.97436523 C2.03797438 54.43645457 1.60685785 52.28019942 0.99560547 49.82275391 C-0.21570141 44.61201671 -0.25396843 39.60659291 -0.1953125 34.27734375 C-0.1924826 33.29125626 -0.18965271 32.30516876 -0.18673706 31.28919983 C-0.17563505 28.17183763 -0.15054945 25.05477383 -0.125 21.9375 C-0.11495729 19.81055105 -0.10583371 17.68359756 -0.09765625 15.55664062 C-0.07572848 10.3709806 -0.04126846 5.18554071 0 0 Z " fill="#FEBC26" transform="translate(365,338)"/>
<path d="M0 0 C1.76953125 0.13671875 1.76953125 0.13671875 4 1 C5.82421875 3.51953125 5.82421875 3.51953125 7.6875 6.8125 C13.43522999 16.62831387 20.22902235 25.40072317 27.9453125 33.7578125 C29.71689757 35.69106313 31.39782341 37.66289334 33.0625 39.6875 C36.36769481 43.54954828 40.07024519 46.78592902 44 50 C45.35351562 51.10988281 45.35351562 51.10988281 46.734375 52.2421875 C63.47345832 65.53998719 81.65556782 75.04114627 101 84 C105.19423502 85.95763033 108.60459741 88.06701927 112.1875 91 C113.02667969 91.680625 113.86585938 92.36125 114.73046875 93.0625 C116.58176246 94.6429504 118.31644981 96.24515942 120 98 C92.84235459 104.23768829 55.92341905 97.81390689 31.609375 84.6953125 C26.90729948 81.64037122 22.9270858 77.98328738 19 74 C18.41347656 73.42378906 17.82695313 72.84757812 17.22265625 72.25390625 C12.75668332 67.51520215 10.33984028 62.02013144 8 56 C7.65066406 55.11441406 7.30132812 54.22882813 6.94140625 53.31640625 C1.08473733 36.52121172 -0.88751494 17.70099235 0 0 Z " fill="#FB406B" transform="translate(24,217)"/>
<path d="M0 0 C0.99 0 1.98 0 3 0 C4.63517935 25.10908738 -0.07028071 54.3210809 -15.88671875 74.39453125 C-31.37729428 91.71446998 -60.97657732 97.30846716 -83 99 C-94.98756774 99.50726901 -107.0086908 99.26175303 -119 99 C-116.38992042 96.31431418 -113.61088987 94.1839211 -110.5625 92 C-106.7976652 89.32350152 -106.7976652 89.32350152 -103.1640625 86.4765625 C-99.93411897 84.27273821 -96.40309264 82.89743872 -92.8125 81.375 C-70.52879112 71.65099451 -49.91796855 59.30512936 -32.8125 41.8125 C-31.884375 40.884375 -30.95625 39.95625 -30 39 C-29.34 39 -28.68 39 -28 39 C-27.64615234 38.16275391 -27.64615234 38.16275391 -27.28515625 37.30859375 C-25.69429103 34.4508389 -23.70393395 32.42115192 -21.4375 30.0625 C-13.55933448 21.53728054 -7.40440911 11.93355263 -1.5078125 1.94921875 C-1.01023437 1.30597656 -0.51265625 0.66273438 0 0 Z " fill="#EE3B64" transform="translate(485,217)"/>
<path d="M0 0 C11.59926111 11.21592627 19.1864491 30.79680458 24 46 C24.35835938 47.03125 24.71671875 48.0625 25.0859375 49.125 C26.26076251 54.10545476 26.29149779 58.77768835 26.25 63.875 C26.26160156 65.28845703 26.26160156 65.28845703 26.2734375 66.73046875 C26.20981889 89.72859496 12.81993209 108.52689088 -2 125 C-2.87011719 125.99128906 -3.74023438 126.98257813 -4.63671875 128.00390625 C-9.45569419 133.42802103 -14.32658895 138.47598341 -20 143 C-20.77561279 143.62745117 -20.77561279 143.62745117 -21.56689453 144.26757812 C-32.65037657 153.16405994 -44.5340599 160.21428115 -57 167 C-57 161.84957167 -53.75844113 157.84198698 -50.2734375 154.19140625 C-49.64695312 153.59199219 -49.02046875 152.99257813 -48.375 152.375 C-32.28879246 136.8643818 -20.8071518 116.29773267 -12 96 C-11.505 94.89011719 -11.01 93.78023438 -10.5 92.63671875 C-8.78317338 88.47430839 -7.32984823 84.2998426 -6 80 C-5.7205957 79.10071777 -5.44119141 78.20143555 -5.15332031 77.27490234 C2.22245693 52.09308207 0.60193118 25.95606428 0 0 Z " fill="#08B6F5" transform="translate(456,117)"/>
<path d="M0 0 C1.41515512 2.83031025 0.65722784 4.58225506 0.08203125 7.6796875 C-1.14307493 15.19133264 -1.34558569 22.52521646 -1.3125 30.125 C-1.31034485 30.80319794 -1.3081897 31.48139587 -1.30596924 32.18014526 C-1.07651372 77.36630314 17.16813138 121.60306778 48.37109375 154.1953125 C52.53762701 158.64044011 55.34699582 162.076735 57 168 C51.57485357 166.48680543 47.18248616 163.94001481 42.4375 161 C41.24278076 160.26088379 41.24278076 160.26088379 40.02392578 159.50683594 C22.91855527 148.77337946 7.08749128 135.25323686 -5 119 C-5.59820557 118.22221191 -5.59820557 118.22221191 -6.20849609 117.42871094 C-11.2597978 110.85523194 -15.69285226 104.15572922 -19.4375 96.75 C-19.75533447 96.12520752 -20.07316895 95.50041504 -20.40063477 94.85668945 C-24.81527331 85.75320384 -26.53831238 77.29454639 -26.4375 67.1875 C-26.42722778 65.60146973 -26.42722778 65.60146973 -26.41674805 63.98339844 C-26.2517788 55.94871624 -25.17893525 49.43141256 -22 42 C-21.63777344 41.04996094 -21.27554688 40.09992188 -20.90234375 39.12109375 C-15.44094077 25.21765769 -8.34143035 12.35767459 0 0 Z " fill="#08B4F5" transform="translate(56,115)"/>
<path d="M0 0 C1.9713265 3.942653 1.83350077 7.72830853 1 12 C-6.65885669 27.66091686 -19.35394215 41.09944616 -36 47 C-42.89678905 48.80069748 -49.90776726 49.48763338 -57 50 C-54.69 50.99 -52.38 51.98 -50 53 C-53.87649752 57.38377356 -57.63333344 59.56978787 -63 61.8125 C-63.69867188 62.12380859 -64.39734375 62.43511719 -65.1171875 62.75585938 C-72.5103998 65.92936088 -72.5103998 65.92936088 -76 65 C-77.7252001 62.82978362 -79.0231338 60.88523779 -80.375 58.5 C-81.1676454 57.19923608 -81.96451503 55.9010367 -82.765625 54.60546875 C-83.34280273 53.66453369 -83.34280273 53.66453369 -83.93164062 52.70458984 C-87.1450675 47.57749971 -90.71746311 43.78469891 -95.76953125 40.4609375 C-96.79312744 39.77294067 -96.79312744 39.77294067 -97.83740234 39.07104492 C-99.2088902 38.16750834 -100.60380399 37.29831541 -102.02197266 36.4699707 C-104.11629993 35.1001575 -105.54042831 34.04251878 -107 32 C-107.58378277 28.25975524 -107.42219711 24.75161779 -107 21 C-105.92331055 21.01571045 -104.84662109 21.0314209 -103.73730469 21.04760742 C-72.74973298 21.45935323 -44.04726868 20.25178867 -15.06298828 7.74975586 C-13 7 -13 7 -10 7 C-10 6.34 -10 5.68 -10 5 C-8.3203125 3.7109375 -8.3203125 3.7109375 -6.125 2.375 C-5.40570313 1.92898438 -4.68640625 1.48296875 -3.9453125 1.0234375 C-2 0 -2 0 0 0 Z " fill="#F1A620" transform="translate(472,305)"/>
<path d="M0 0 C3.23318592 1.5088201 5.35302722 2.70605444 7 6 C8.63630215 6.73806335 10.31373385 7.38459062 12 8 C13.29094183 8.51548382 14.58125058 9.0325545 15.87109375 9.55078125 C24.55928761 12.93972485 33.2104938 15.75326922 42.3125 17.8125 C43.169646 18.00690674 44.02679199 18.20131348 44.90991211 18.40161133 C47.59975447 18.98104428 50.29378872 19.50261703 53 20 C54.01191406 20.18981445 55.02382812 20.37962891 56.06640625 20.57519531 C66.50979289 22.31269538 76.81774922 22.22785557 87.375 22.125 C89.19009918 22.11494135 91.00520381 22.10582065 92.8203125 22.09765625 C97.2136793 22.07589144 101.60677736 22.04152384 106 22 C106.07767825 23.7766554 106.13341511 25.55428065 106.1796875 27.33203125 C106.22971924 28.8166687 106.22971924 28.8166687 106.28076172 30.33129883 C106 33 106 33 103.125 35.6875 C100 37 100 37 98 37 C98 37.66 98 38.32 98 39 C96.7646136 39.96390642 95.48353812 40.86932961 94.1875 41.75 C85.75884034 48.08483123 79.71663433 57.24515441 74 66 C68.20601598 65.4912229 63.84436064 63.82089222 58.6875 61.1875 C57.97271484 60.84396484 57.25792969 60.50042969 56.52148438 60.14648438 C55.83763672 59.80294922 55.15378906 59.45941406 54.44921875 59.10546875 C53.52629028 58.64370239 53.52629028 58.64370239 52.5847168 58.17260742 C51 57 51 57 49 53 C52.3 52.01 55.6 51.02 59 50 C56.4940625 50.0928125 56.4940625 50.0928125 53.9375 50.1875 C37.08180944 50.12786902 23.90577352 44.97145152 11.94140625 33.203125 C8.71649031 29.82779121 5.9949505 26.16985027 3.375 22.3125 C2.96113037 21.70736572 2.54726074 21.10223145 2.12084961 20.47875977 C-0.89548996 15.79013259 -3.67774805 10.40022751 -2.5390625 4.6875 C-1.69270833 3.125 -0.84635417 1.5625 0 0 Z " fill="#FBBE2C" transform="translate(41,304)"/>
<path d="M0 0 C4.24646526 1.6965045 7.21694674 4.73417229 10.5 7.8125 C11.06847656 8.33392578 11.63695312 8.85535156 12.22265625 9.39257812 C15.4622948 12.40296151 18.29722971 15.48459277 21 19 C23.58350893 21.70953375 25.88143016 23.92095344 29 26 C31.46270287 44.22883006 25.35850702 64.09643378 15 79 C13.57495133 80.83437116 12.10513063 82.57809535 10.54296875 84.296875 C9.48739315 85.46201668 8.47011383 86.66270002 7.48828125 87.890625 C-4.94371452 103.18228082 -24.02116595 111.90389158 -43.32958984 114.28759766 C-56.39318102 115.54958786 -56.39318102 115.54958786 -61.66796875 112.4140625 C-63.67152676 110.39112772 -65.30435549 108.28275629 -67 106 C-68.30332531 104.8403682 -69.63564916 103.71217503 -71 102.625 C-71.99 101.75875 -72.98 100.8925 -74 100 C-74 99.34 -74 98.68 -74 98 C-74.85851562 97.63261719 -74.85851562 97.63261719 -75.734375 97.2578125 C-78.38024402 95.78889901 -80.14853139 94.04651756 -82.25 91.875 C-82.95640625 91.15054688 -83.6628125 90.42609375 -84.390625 89.6796875 C-84.92171875 89.12539062 -85.4528125 88.57109375 -86 88 C-85.505 87.01 -85.505 87.01 -85 86 C-80.35122273 87.46803493 -75.86973062 89.23912989 -71.3671875 91.09765625 C-57.23379464 96.48513769 -39.60640176 93.48787884 -26.12890625 87.78515625 C-11.16315767 80.46149205 -0.73385503 67.69515663 4.95703125 52.2734375 C7.02654918 45.77809658 8.39116499 39.81085547 8.375 32.9375 C8.37338867 32.20724609 8.37177734 31.47699219 8.37011719 30.72460938 C8.12973258 19.8177472 4.79057799 9.75224805 0 0 Z " fill="#F59B06" transform="translate(309,49)"/>
<path d="M0 0 C8.23419952 5.63707555 15.14678988 12.48013561 19.1875 21.75 C19.6825 25.215 19.6825 25.215 20.1875 28.75 C-10.1725 28.75 -40.5325 28.75 -71.8125 28.75 C-70.25616724 17.85567065 -64.25268694 9.71966435 -55.8125 2.75 C-38.72327061 -9.71270366 -18.23089954 -10.95860124 0 0 Z " fill="#08AEF8" transform="translate(281.8125,185.25)"/>
<path d="M0 0 C3.59546771 0.2054553 4.93816851 0.94401373 7.64453125 3.39453125 C11.07509572 7.72234001 10.66878179 12.25539815 10.5 17.5625 C10.48155029 18.57538086 10.46310059 19.58826172 10.4440918 20.63183594 C9.71728309 46.36446832 5.10035853 75.56442251 -13 95 C-21.58961418 103.06121159 -21.58961418 103.06121159 -27 104 C-27 104.66 -27 105.32 -27 106 C-58.40874308 118.20474115 -90.20523055 124.54014238 -124 120 C-124.09765625 113.06640625 -124.09765625 113.06640625 -124 111 C-122.08354351 109.08354351 -118.52042147 109.83897538 -115.90625 109.82421875 C-114.39809545 109.80453179 -112.88995722 109.78356331 -111.38183594 109.76147461 C-110.18729797 109.74478226 -110.18729797 109.74478226 -108.96862793 109.72775269 C-81.55534463 109.28076014 -42.84216385 107.87900713 -22.25 86.875 C-4.12281183 67.38827272 -1.70001729 36.44562861 -1 11 C-1.99 11 -2.98 11 -4 11 C-2.7874262 7.27566618 -1.49140021 3.62197194 0 0 Z " fill="#F6AE26" transform="translate(489,206)"/>
<path d="M0 0 C-1.24703105 1.89778755 -2.49776058 3.79314511 -3.75 5.6875 C-4.79414063 7.27111328 -4.79414063 7.27111328 -5.859375 8.88671875 C-14.38728991 21.2895439 -25.65250156 27.81929547 -40.39453125 30.65234375 C-58.45520888 32.08076137 -78.80954491 21.97120314 -95 15 C-95 14.67 -95 14.34 -95 14 C-93.98389648 13.98541748 -92.96779297 13.97083496 -91.92089844 13.95581055 C-61.9123719 13.49086142 -32.98228025 12.10677044 -5.06298828 -0.34790039 C-3 -1 -3 -1 0 0 Z " fill="#039E8D" transform="translate(462,313)"/>
<path d="M0 0 C4.70761923 0.6028049 8.61894105 1.94931052 13 3.75 C19.59139369 6.33516748 26.22200837 8.18872254 33.125 9.75 C33.99382812 9.94819336 34.86265625 10.14638672 35.7578125 10.35058594 C49.63395801 13.370506 63.22773754 14.36087375 77.375 14.625 C79.09376725 14.6632958 80.8125177 14.70235366 82.53125 14.7421875 C86.68735921 14.83688521 90.84355725 14.92135941 95 15 C92.43052446 17.56947554 90.04440211 18.24390901 86.62890625 19.49609375 C85.99194321 19.73030533 85.35498016 19.96451691 84.69871521 20.20582581 C83.34546262 20.70185782 81.99118709 21.19510657 80.63598633 21.68579102 C78.59889201 22.42430666 76.56589705 23.17329879 74.53320312 23.92382812 C59.12238527 29.57476056 43.49812998 35.07251527 27.46484375 28.2734375 C23.39788298 26.17228186 19.6515121 23.75585819 16 21 C14.79730469 20.13568359 14.79730469 20.13568359 13.5703125 19.25390625 C10.39301712 16.4677369 8.14805269 13.39457297 5.75 9.9375 C5.08097656 9.00067383 5.08097656 9.00067383 4.3984375 8.04492188 C2.52681968 5.38779172 1.03328107 3.09984322 0 0 Z " fill="#039F8D" transform="translate(50,312)"/>
<path d="M0 0 C1.27674591 0.00358521 2.55349182 0.00717041 3.868927 0.01086426 C19.230257 0.06531114 34.59012832 0.31118404 49.94934082 0.55731201 C53.85291964 0.6193478 57.7565397 0.67867602 61.66015625 0.73828125 C69.2292077 0.85422938 76.79821098 0.97299892 84.3671875 1.09375 C81.05516043 3.65996952 77.84017078 5.40310288 73.9921875 7.09375 C72.89132812 7.58875 71.79046875 8.08375 70.65625 8.59375 C57.86590404 13.37691331 45.22004417 13.59487841 31.73706055 13.53979492 C28.57078773 13.53129323 25.40632983 13.56012364 22.24023438 13.59179688 C5.09322287 13.6518221 -10.42187134 11.61187705 -25.6328125 3.09375 C-26.2928125 2.43375 -26.9528125 1.77375 -27.6328125 1.09375 C-18.40261166 0.32390325 -9.26062807 -0.05111589 0 0 Z " fill="#0672A0" transform="translate(227.6328125,441.90625)"/>
<path d="M0 0 C0.65978348 0.2816803 1.31956696 0.5633606 1.99934387 0.85357666 C9.02955893 3.65915819 15.04278525 4.60005794 22.57421875 4.609375 C24.14898735 4.63417938 24.14898735 4.63417938 25.75556946 4.65948486 C29.06627482 4.7075683 32.37652226 4.72924757 35.6875 4.75 C37.94989234 4.77819281 40.21226372 4.8081248 42.47460938 4.83984375 C47.98299084 4.91331597 53.49124563 4.96518955 59 5 C59 5.33 59 5.66 59 6 C50.585 6.495 50.585 6.495 42 7 C41.67 18.55 41.34 30.1 41 42 C33.12084327 35.24643709 33.12084327 35.24643709 30.08422852 32.22949219 C29.40405167 31.55569519 28.72387482 30.88189819 28.02308655 30.18768311 C27.31550705 29.48121643 26.60792755 28.77474976 25.87890625 28.046875 C25.13414536 27.3054425 24.38938446 26.56401001 23.62205505 25.80010986 C22.06191619 24.24500222 20.50310113 22.68856545 18.94555664 21.13085938 C16.55048778 18.73799886 14.14750692 16.35327308 11.74414062 13.96875 C10.22607432 12.45361396 8.70847899 10.93800587 7.19140625 9.421875 C6.46965714 8.7073114 5.74790802 7.9927478 5.00428772 7.25653076 C4.34617599 6.59534241 3.68806427 5.93415405 3.01000977 5.25292969 C2.42711685 4.67146179 1.84422394 4.0899939 1.2436676 3.49090576 C0 2 0 2 0 0 Z " fill="#0AA6E2" transform="translate(160,329)"/>
<path d="M0 0 C4.55015893 1.51671964 6.50057264 5.16891053 9 9 C-3.79676452 17.72584749 -17.09023857 25.1866027 -31 32 C-31.7022168 32.34417969 -32.40443359 32.68835938 -33.12792969 33.04296875 C-37.62446558 35.12517814 -37.62446558 35.12517814 -41 34 C-40.31292969 33.19175781 -39.62585938 32.38351562 -38.91796875 31.55078125 C-38.00762725 30.4715104 -37.09748135 29.39207453 -36.1875 28.3125 C-35.73568359 27.78205078 -35.28386719 27.25160156 -34.81835938 26.70507812 C-32.83882598 24.34986686 -31.08602281 22.17282765 -29.7109375 19.41015625 C-27.07787136 15.7010197 -23.42468045 14.17163924 -19.4375 12.125 C-12.5903755 8.48040825 -6.18987415 4.69683918 0 0 Z " fill="#E99922" transform="translate(425,267)"/>
<path d="M0 0 C0.91444126 4.4728105 1.4878217 7.83851976 -0.3125 12.125 C-8.70259079 21.10044596 -20.07620818 26.52525075 -32 29 C-33.65 25.37 -35.3 21.74 -37 18 C-36.10539062 17.70867187 -35.21078125 17.41734375 -34.2890625 17.1171875 C-26.57830269 14.50309196 -19.8102904 11.56634679 -13 7 C-15.94952958 5.50002556 -18.91489173 4.19976433 -22 3 C-22 2.67 -22 2.34 -22 2 C-21.03578125 1.93941406 -20.0715625 1.87882812 -19.078125 1.81640625 C-17.81484375 1.73261719 -16.5515625 1.64882813 -15.25 1.5625 C-13.99703125 1.48128906 -12.7440625 1.40007812 -11.453125 1.31640625 C-7.46667487 0.95113197 -4.02076952 0 0 0 Z " fill="#F7A515" transform="translate(434,352)"/>
<path d="M0 0 C7.32421096 -0.02573031 14.64840992 -0.04302307 21.97265625 -0.05493164 C24.45508255 -0.05990548 26.93750602 -0.06668692 29.41992188 -0.07543945 C44.31531943 -0.1265747 59.13245396 0.04797045 74 1 C63.84446201 9.7609315 50.11892143 8.52973034 37.41796875 8.50097656 C34.37405066 8.4999997 31.33262131 8.54182795 28.2890625 8.5859375 C26.32552601 8.5911429 24.36198089 8.59383272 22.3984375 8.59375 C21.50337494 8.61014526 20.60831238 8.62654053 19.68612671 8.64343262 C12.94802669 8.57064705 7.60725707 6.79659003 2 3 C1.34 2.01 0.68 1.02 0 0 Z " fill="#0379B4" transform="translate(162,314)"/>
<path d="M0 0 C0.66 0.33 1.32 0.66 2 1 C1.46632812 1.41507812 0.93265625 1.83015625 0.3828125 2.2578125 C-6.86992401 8.2557503 -11.74771441 15.30170415 -17 23 C-17.99028696 24.34056313 -18.98539783 25.67774427 -20 27 C-25.79398402 26.4912229 -30.15563936 24.82089222 -35.3125 22.1875 C-36.02728516 21.84396484 -36.74207031 21.50042969 -37.47851562 21.14648438 C-38.16236328 20.80294922 -38.84621094 20.45941406 -39.55078125 20.10546875 C-40.16606689 19.79762451 -40.78135254 19.48978027 -41.4152832 19.17260742 C-43.38551704 17.71473758 -44.06192651 16.23438419 -45 14 C-44.20529297 13.78907715 -43.41058594 13.5781543 -42.59179688 13.36083984 C-38.89227068 12.37383539 -35.19522145 11.37797829 -31.5 10.375 C-30.83849945 10.19558868 -30.1769989 10.01617737 -29.49545288 9.83132935 C-20.34815764 7.33760094 -11.44599922 4.56037562 -2.67578125 0.93359375 C-1.79277344 0.62550781 -0.90976563 0.31742187 0 0 Z " fill="#FA4069" transform="translate(135,343)"/>
<path d="M0 0 C24.68974439 -0.11703861 49.32786403 0.00271736 74 1 C69.59644902 5.66411613 64.37567261 7.78576133 58.00357056 8.0977478 C55.5604348 8.14893343 53.11945376 8.16481227 50.67578125 8.16796875 C49.77433884 8.17129715 48.87289642 8.17462555 47.94413757 8.17805481 C46.03869129 8.18310817 44.13323618 8.18546363 42.2277832 8.18530273 C39.33985438 8.18747938 36.45231395 8.20562489 33.56445312 8.22460938 C31.70573046 8.22754575 29.847006 8.22952891 27.98828125 8.23046875 C26.71118034 8.24124702 26.71118034 8.24124702 25.40827942 8.25224304 C17.93950865 8.22435559 9.69716977 7.79537422 3.375 3.4375 C2.72273438 3.00308594 2.07046875 2.56867188 1.3984375 2.12109375 C0.93695313 1.75113281 0.47546875 1.38117188 0 1 C0 0.67 0 0.34 0 0 Z " fill="#0479B3" transform="translate(275,314)"/>
<path d="M0 0 C8.38422376 2.44241111 16.64365792 5.2044684 24.90234375 8.0390625 C31.86080924 10.39147277 38.84901629 12.32302048 46 14 C46 14.99 46 15.98 46 17 C39.70487717 22.02270439 31.37629896 25.91640486 23.48046875 27.5078125 C21 27 21 27 18.7890625 24.21875 C18.05193922 22.98847851 17.33137856 21.74817787 16.625 20.5 C15.84613886 19.20661551 15.06227848 17.91622829 14.2734375 16.62890625 C13.89026367 16.00258301 13.50708984 15.37625977 13.11230469 14.73095703 C10.80412608 11.1389934 7.96530518 8.05360211 5 5 C4.49082031 4.47535156 3.98164063 3.95070313 3.45703125 3.41015625 C2.31886737 2.25923983 1.16202899 1.12681599 0 0 Z " fill="#FA3F69" transform="translate(375,343)"/>
<path d="M0 0 C3.94139078 1.66751148 6.7892812 4.22710649 10 7 C6.74620687 10.6053336 3.02996716 13.00625243 -1.125 15.4375 C-1.7857251 15.82929443 -2.4464502 16.22108887 -3.12719727 16.62475586 C-8.29954692 19.66180675 -13.56641815 22.4558052 -19 25 C-16.27699484 17.95570403 -12.33467363 13.18043044 -6.97265625 7.96875 C-4.44851276 5.44960482 -2.2264246 2.78303075 0 0 Z " fill="#0E86CC" transform="translate(417,259)"/>
<path d="M0 0 C19.47 0 38.94 0 59 0 C53.22741211 3.84839192 46.4613091 3.15999913 39.74609375 3.16796875 C38.2783828 3.17296135 38.2783828 3.17296135 36.78102112 3.17805481 C34.7193346 3.18310209 32.65763996 3.18546382 30.59594727 3.18530273 C27.444688 3.187495 24.29377581 3.2056899 21.14257812 3.22460938 C19.13541786 3.22754261 17.12825594 3.22952787 15.12109375 3.23046875 C14.18140244 3.23765427 13.24171112 3.24483978 12.27354431 3.25224304 C7.74616299 3.23643592 4.10482048 3.16644794 0 1 C0 0.67 0 0.34 0 0 Z " fill="#117599" transform="translate(169,319)"/>
<path d="M0 0 C19.8 0 39.6 0 60 0 C54.59308282 3.60461145 48.97014516 3.15983835 42.67578125 3.16796875 C41.77433884 3.17129715 40.87289642 3.17462555 39.94413757 3.17805481 C38.03869129 3.18310817 36.13323618 3.18546363 34.2277832 3.18530273 C31.33985438 3.18747938 28.45231395 3.20562489 25.56445312 3.22460938 C23.70573046 3.22754575 21.847006 3.22952891 19.98828125 3.23046875 C18.71118034 3.24124702 18.71118034 3.24124702 17.40827942 3.25224304 C11.40511858 3.22982799 5.84143441 2.36591528 0 1 C0 0.67 0 0.34 0 0 Z " fill="#107499" transform="translate(283,319)"/>
<path d="M0 0 C4.63268926 1.71581084 5.37625207 3.65150248 9 8 C4.71 12.62 0.42 17.24 -4 22 C-5.11810525 17.527579 -4.67303286 16.32070285 -3.125 12.125 C-1.64294994 8.07268131 -0.60016238 4.27775312 0 0 Z " fill="#E69824" transform="translate(409,251)"/>
</svg>
