<?xml version="1.0" encoding="UTF-8"?>
<svg version="1.1" xmlns="http://www.w3.org/2000/svg" width="512" height="512">
<path d="M0 0 C0.66 0 1.32 0 2 0 C3.15900165 3.47700496 3.13879293 6.21018144 3.15771484 9.87963867 C3.16279556 10.57614029 3.16787628 11.27264191 3.17311096 11.99024963 C3.18381156 13.5043684 3.19243296 15.01850295 3.19923019 16.53264427 C3.21106681 18.94431494 3.23053966 21.35581032 3.25234985 23.76741028 C3.31374859 30.62539641 3.36763762 37.48337042 3.40136719 44.34155273 C3.42256889 48.54030263 3.45808442 52.73874156 3.50212479 56.93731117 C3.51610345 58.52334182 3.52496526 60.10942759 3.52817917 61.69551659 C3.57729056 83.64433627 7.53742251 102.88873473 23.09765625 119.3828125 C27.45161191 123.65860539 32.42220621 126.81320413 37.5625 130.0625 C38.55596436 130.70010254 39.54942871 131.33770508 40.57299805 131.99462891 C43.71000198 134.0049015 46.85479374 136.00259104 50 138 C52.1098397 139.34953419 54.2192211 140.69978517 56.328125 142.05078125 C60.14931249 144.49436799 63.97178662 146.93584871 67.80078125 149.3671875 C68.56559814 149.85300293 69.33041504 150.33881836 70.1184082 150.83935547 C71.98762639 152.030874 71.98762639 152.030874 74 153 C73.43205747 156.76609369 72.4088209 159.34711765 70.34765625 162.5390625 C69.81849609 163.36664063 69.28933594 164.19421875 68.74414062 165.046875 C68.18919922 165.89765625 67.63425781 166.7484375 67.0625 167.625 C66.51142578 168.48351562 65.96035156 169.34203125 65.39257812 170.2265625 C63.28676099 173.50170945 61.15986049 176.76020927 59 180 C55.88331597 179.36572746 53.54996861 178.30341406 50.83203125 176.6640625 C49.62824829 175.94138184 49.62824829 175.94138184 48.40014648 175.20410156 C47.54622314 174.68299805 46.6922998 174.16189453 45.8125 173.625 C44.92699463 173.08842773 44.04148926 172.55185547 43.12915039 171.99902344 C30.75801781 164.46463317 18.57620184 156.71813425 7 148 C5.66679459 146.99982946 4.33348014 145.99980422 3 145 C3.08378906 145.77150391 3.16757812 146.54300781 3.25390625 147.33789062 C5.44016098 170.84704749 -0.1875748 186.20719515 -12.0057373 206.2901001 C-13.48595914 208.83573636 -14.88835273 211.42168547 -16.2890625 214.01171875 C-18.47148975 218.04125043 -20.70746034 222.0321429 -23 226 C-26.79564257 225.39172395 -29.83000507 224.2776787 -33.265625 222.56640625 C-34.72355469 221.8403418 -34.72355469 221.8403418 -36.2109375 221.09960938 C-37.21382813 220.59236328 -38.21671875 220.08511719 -39.25 219.5625 C-40.26835937 219.05912109 -41.28671875 218.55574219 -42.3359375 218.03710938 C-43.30273438 217.55177734 -44.26953125 217.06644531 -45.265625 216.56640625 C-46.59255371 215.90040405 -46.59255371 215.90040405 -47.94628906 215.22094727 C-50 214 -50 214 -51 212 C-50.28504944 210.20347595 -50.28504944 210.20347595 -49.09399414 208.00366211 C-48.65346207 207.17777084 -48.21292999 206.35187958 -47.75904846 205.5009613 C-47.02947182 204.15277061 -47.02947182 204.15277061 -46.28515625 202.77734375 C-45.27767537 200.85696961 -44.27187265 198.9357143 -43.26757812 197.01367188 C-41.67929964 193.99036343 -40.08211847 190.97368412 -38.4543457 187.97143555 C-31.65736652 175.38974868 -27.06986178 165.45362134 -29 151 C-29.92039062 151.56291748 -30.84078125 152.12583496 -31.7890625 152.70581055 C-46.08872923 161.36261207 -61.02949525 166.16176412 -77.8984375 166.04296875 C-79.62199463 166.03366333 -79.62199463 166.03366333 -81.38037109 166.02416992 C-82.24484863 166.01619385 -83.10932617 166.00821777 -84 166 C-84.09348581 149.41453483 -84.1639999 132.82915527 -84.20724869 116.24349022 C-84.22786458 108.54228273 -84.25596638 100.84123906 -84.30175781 93.14013672 C-84.34165561 86.42700643 -84.3674399 79.71399479 -84.37635398 73.00074923 C-84.38156382 69.44683621 -84.39378797 65.89326259 -84.42292023 62.33945847 C-84.4551955 58.3699589 -84.45595751 54.40078988 -84.45410156 50.43115234 C-84.46848267 49.25582947 -84.48286377 48.08050659 -84.49768066 46.86956787 C-84.45913067 39.26102813 -83.51460822 35.84811119 -78.39453125 30.2421875 C-68.6068572 21.78370376 -57.5924718 20.28444987 -45 19.5625 C-28.49204258 18.4427042 -11.87304335 11.87304335 0 0 Z " fill="#000000" transform="translate(355,286)"/>
<path d="M0 0 C3.31152351 1.49626177 5.90534171 3.43915983 8.75 5.6875 C13.33895407 9.06462572 17.93293033 11.59812977 23.125 13.875 C23.76920898 14.16076904 24.41341797 14.44653809 25.07714844 14.7409668 C33.49240925 18.28776299 41.82914658 19.2590921 50.875 19.875 C63.12591094 20.85515438 73.85707816 22.99299823 82.3125 32.625 C85.35330904 36.28035575 86.12493958 38.31174458 86.12025452 43.09988403 C86.12231651 44.7195256 86.12231651 44.7195256 86.12442017 46.37188721 C86.12082489 47.56159119 86.11722961 48.75129517 86.11352539 49.97705078 C86.11367142 51.22579987 86.11381744 52.47454895 86.1139679 53.76113892 C86.11338952 57.19068663 86.10836519 60.62017457 86.10139394 64.0497117 C86.09515378 67.63184338 86.09455608 71.21397579 86.09336853 74.79611206 C86.09025717 81.5817525 86.08204641 88.36737689 86.07201904 95.15301025 C86.06085184 102.87721216 86.05534592 110.60141483 86.05032361 118.3256228 C86.03986364 134.21709117 86.02226797 150.10854352 86 166 C83.9224614 166.01302927 81.84489912 166.02231739 79.76733398 166.0300293 C78.61039536 166.03560349 77.45345673 166.04117767 76.26145935 166.04692078 C59.91468278 165.81174892 44.65898816 159.54642974 31 151 C29.42773232 165.52442359 33.46351465 175.12199111 40.3125 187.75 C41.20561429 189.45930033 42.0956093 191.17023426 42.98242188 192.8828125 C47.15543423 201.00142183 47.15543423 201.00142183 51.84057617 208.82519531 C52.22318604 209.54288086 52.6057959 210.26056641 53 211 C51.45105709 215.64682874 47.79731478 216.44576866 43.57617188 218.578125 C42.45791016 219.12984375 41.33964844 219.6815625 40.1875 220.25 C39.08083984 220.8171875 37.97417969 221.384375 36.83398438 221.96875 C35.23586914 222.76539063 35.23586914 222.76539063 33.60546875 223.578125 C32.62731201 224.06700195 31.64915527 224.55587891 30.64135742 225.05957031 C28 226 28 226 25.81616211 225.94384766 C23.19880754 224.58362548 22.59454131 222.96701808 21.3359375 220.3203125 C20.85825928 219.33724121 20.38058105 218.35416992 19.88842773 217.34130859 C19.38899658 216.27992676 18.88956543 215.21854492 18.375 214.125 C17.3129678 211.93143388 16.24914019 209.73873619 15.18359375 207.546875 C14.65233887 206.44666016 14.12108398 205.34644531 13.57373047 204.21289062 C11.28950077 199.54946171 8.87750119 194.95838199 6.4375 190.375 C5.64428319 188.88294435 4.85129839 187.39076532 4.05859375 185.8984375 C3.56830688 184.98070557 3.56830688 184.98070557 3.06811523 184.04443359 C2.71563721 183.36977051 2.36315918 182.69510742 2 182 C1.4730957 181.08154297 0.94619141 180.16308594 0.40332031 179.21679688 C-1.22437773 175.4856644 -1.42782546 172.69324785 -1.51171875 168.6328125 C-1.53864555 167.61343094 -1.53864555 167.61343094 -1.56611633 166.57345581 C-1.61986817 164.42403181 -1.65399936 162.27482523 -1.6875 160.125 C-1.72070438 158.65882413 -1.7551969 157.19267683 -1.79101562 155.7265625 C-1.87557198 152.15125052 -1.94255006 148.57586208 -2 145 C-2.53512207 145.50499023 -3.07024414 146.00998047 -3.62158203 146.53027344 C-9.03311733 151.50594118 -14.56577949 155.5018477 -20.875 159.25 C-22.71407091 160.36501297 -24.5525999 161.48092017 -26.390625 162.59765625 C-27.31681641 163.15727051 -28.24300781 163.71688477 -29.19726562 164.29345703 C-33.70637229 167.03898452 -38.16617123 169.86129917 -42.625 172.6875 C-43.42405762 173.19249023 -44.22311523 173.69748047 -45.04638672 174.21777344 C-48.05084851 176.11870223 -51.04156733 178.02771156 -54 180 C-55.98754883 179.90722656 -55.98754883 179.90722656 -58 179 C-59.6315918 177.03808594 -59.6315918 177.03808594 -61.19921875 174.484375 C-61.76833984 173.56269531 -62.33746094 172.64101563 -62.92382812 171.69140625 C-63.50583984 170.72074219 -64.08785156 169.75007812 -64.6875 168.75 C-65.57791992 167.31720703 -65.57791992 167.31720703 -66.48632812 165.85546875 C-71.24950932 158.04537232 -71.24950932 158.04537232 -72 153 C-71.04867187 152.43796875 -70.09734375 151.8759375 -69.1171875 151.296875 C-59.38436423 145.47981551 -49.84110245 139.37862907 -40.37896729 133.13317871 C-39.05506715 132.26068606 -37.72904861 131.39139841 -36.40081787 130.5255127 C-18.62994891 118.92422257 -7.95038648 105.80012172 -3 85 C-2.23810409 79.74311019 -1.86230714 74.66698751 -1.81054688 69.34643555 C-1.80225357 68.62832199 -1.79396027 67.91020844 -1.78541565 67.17033386 C-1.76815667 65.62736266 -1.7529528 64.08436732 -1.73963928 62.54135704 C-1.71842466 60.09926784 -1.69142442 57.65730112 -1.66296387 55.21528625 C-1.59351455 49.158012 -1.53364069 43.10065082 -1.47393799 37.04327393 C-1.42299905 31.90699035 -1.36821017 26.770777 -1.30812073 21.63459206 C-1.28157641 19.22880261 -1.26075402 16.82300631 -1.2401123 14.41716003 C-1.22351313 12.94696735 -1.20664163 11.47677771 -1.18945312 10.0065918 C-1.17692505 8.72278122 -1.16439697 7.43897064 -1.15148926 6.11625671 C-1 3 -1 3 0 0 Z " fill="#000000" transform="translate(155,286)"/>
<path d="M0 0 C0.81644485 -0.00570007 1.63288971 -0.01140015 2.47407532 -0.01727295 C4.20137239 -0.02670683 5.92868733 -0.03325052 7.65600586 -0.03710938 C10.27425363 -0.04677705 12.89170317 -0.07779939 15.50976562 -0.109375 C17.19400579 -0.11590971 18.87825154 -0.12115834 20.5625 -0.125 C21.72080574 -0.1435202 21.72080574 -0.1435202 22.9025116 -0.16241455 C31.4571465 -0.12805511 38.55279291 2.2218535 44.8203125 8.1015625 C49.66528941 13.78042433 52.75051571 20.83703717 52.72680664 28.32910156 C52.72673111 29.12962952 52.72665558 29.93015747 52.72657776 30.75494385 C52.72141647 31.60924988 52.71625519 32.46355591 52.7109375 33.34375 C52.70881508 34.66702301 52.70881508 34.66702301 52.70664978 36.01702881 C52.70106126 38.82909565 52.68851086 41.6410823 52.67578125 44.453125 C52.67076477 46.36197802 52.66620212 48.27083228 52.66210938 50.1796875 C52.65109559 54.85419747 52.63383883 59.52864765 52.61328125 64.203125 C54.22831543 64.40216431 54.22831543 64.40216431 55.87597656 64.60522461 C58.81250637 65.07501567 60.80915126 65.48204121 63.41015625 66.76953125 C64.37501953 67.24422852 64.37501953 67.24422852 65.359375 67.72851562 C66.02066406 68.07076172 66.68195313 68.41300781 67.36328125 68.765625 C68.06066406 69.12205078 68.75804687 69.47847656 69.4765625 69.84570312 C80.39550295 75.56658445 93.02205775 83.76653148 98.61328125 95.203125 C96.13018436 103.76841426 88.80123567 109.57142618 81.3984375 113.9140625 C73.95879677 117.35737448 67.13852084 118.64980233 58.98828125 119.140625 C40.94829962 120.53551563 25.58401264 125.27861184 11.61328125 137.203125 C8.52696822 135.79889012 5.83104201 134.00585889 3.04736328 132.08032227 C-10.70304475 122.71413016 -25.06984462 120.29495946 -41.30859375 118.85546875 C-55.36499885 117.37811189 -65.42572299 111.9869627 -74.8984375 101.53515625 C-76.07421875 100.015625 -76.07421875 100.015625 -77.38671875 97.203125 C-74.33158183 86.34041594 -62.00930196 77.36963003 -52.62890625 72 C-38.48388823 64.203125 -38.48388823 64.203125 -31.38671875 64.203125 C-31.40766602 63.04901123 -31.42861328 61.89489746 -31.45019531 60.70581055 C-31.52322902 56.37651236 -31.56874624 52.04726731 -31.60644531 47.7175293 C-31.6264177 45.85252693 -31.65360543 43.98758602 -31.68847656 42.12280273 C-31.93033979 28.84522291 -32.04438203 17.06442001 -22.3203125 6.859375 C-15.62130901 1.12123868 -8.5730075 0.04657174 0 0 Z " fill="#000000" transform="translate(245.38671875,158.796875)"/>
<path d="M0 0 C10.40903161 7.50618286 18.23644567 18.75285358 22 31 C22.22300781 31.66644531 22.44601562 32.33289062 22.67578125 33.01953125 C26.86786883 47.93423739 24.1511371 64.93228723 16.8125 78.3125 C7.57520773 92.9038916 -5.28591984 102.58845283 -22.15625 106.78515625 C-38.99859511 109.87155687 -55.73809218 106.5150024 -70 97 C-82.15009616 87.70455198 -90.87997255 74.87257454 -93.71484375 59.65234375 C-95.68773181 41.30178217 -92.41378808 25.50605111 -81.12109375 10.50390625 C-60.99321662 -13.60888393 -25.70275761 -16.86006577 0 0 Z " fill="#000000" transform="translate(291,10)"/>
<path d="M0 0 C45.21 0 90.42 0 137 0 C137 30 137 30 133 41 C132.44997314 42.53076172 131.89994629 44.06152344 131.33325195 45.63867188 C129.31967814 48.61777492 128.16596163 48.96738725 124.5796814 49.67211914 C119.94122804 50.03813899 115.31434951 49.8992512 110.66796875 49.78125 C108.94878269 49.76632206 107.22956251 49.75493764 105.5103302 49.74694824 C100.99339209 49.71645646 96.47852441 49.6379226 91.96240234 49.54931641 C87.35087088 49.46735887 82.73900354 49.43091584 78.12695312 49.390625 C69.08358106 49.30492118 60.0422869 49.16425015 51 49 C51 58.57 51 68.14 51 78 C64.53 78 78.06 78 92 78 C90.33044096 91.35647235 84.53327981 100.72568874 75 110 C74.31292969 110.70769531 73.62585938 111.41539062 72.91796875 112.14453125 C60.69915018 124.00063907 44.93987332 128.40076865 28.25976562 128.26367188 C27.08091797 128.23853516 25.90207031 128.21339844 24.6875 128.1875 C23.45837891 128.17396484 22.22925781 128.16042969 20.96289062 128.14648438 C17.97477487 128.11160365 14.98764127 128.06259698 12 128 C11.99635437 126.91466476 11.99270874 125.82932953 11.98895264 124.71110535 C11.95174839 114.40083297 11.89370339 104.09085228 11.81609726 93.78080273 C11.77686161 88.48235663 11.74455735 83.18407079 11.72900391 77.88549805 C11.71367792 72.75646815 11.67895686 67.62787961 11.63169098 62.49904823 C11.61703946 60.55823959 11.60896851 58.61736789 11.60811615 56.67650414 C11.59387143 40.48000318 10.20207075 24.31135094 3.25 9.4375 C0 2.14821429 0 2.14821429 0 0 Z " fill="#000000" transform="translate(375,249)"/>
<path d="M0 0 C45.21 0 90.42 0 137 0 C135.24216709 5.27349873 133.47884561 10.39340009 131.5 15.5625 C126.30258821 30.29261221 125.53881981 44.5591995 125.48828125 60.03125 C125.47139239 62.00379522 125.45323667 63.97632996 125.43388367 65.94885254 C125.38683373 71.08441894 125.35673551 76.21994284 125.33044434 81.35565186 C125.30040891 86.61869705 125.25395895 91.88159627 125.20898438 97.14453125 C125.12346482 107.42961042 125.05589409 117.71472007 125 128 C120.67581938 128.0475596 116.351707 128.07619313 112.02734375 128.1015625 C110.81026733 128.11517822 109.59319092 128.12879395 108.3392334 128.14282227 C99.21897115 128.18292489 91.54794633 127.39153592 83 124 C81.96359375 123.59910156 80.9271875 123.19820313 79.859375 122.78515625 C71.45943952 119.06980017 65.37531498 113.44182348 59 107 C58.39285156 106.41476562 57.78570312 105.82953125 57.16015625 105.2265625 C50.03613766 97.7813017 46.25079353 88.00634826 45 78 C58.53 78 72.06 78 86 78 C86 68.43 86 58.86 86 49 C82.54829346 49.07855225 82.54829346 49.07855225 79.02685547 49.15869141 C71.41577811 49.32454039 63.8046199 49.43490343 56.19221306 49.51812172 C51.57736363 49.57026988 46.96436814 49.64096349 42.35058594 49.75439453 C37.89596559 49.86322447 33.44312523 49.92287407 28.98727798 49.94877243 C27.28938894 49.96722122 25.59159528 50.00325285 23.8944664 50.05730057 C10.70284398 50.46061803 10.70284398 50.46061803 6.69586182 47.02362061 C5.00449621 44.35363165 3.98404901 42.00563158 3 39 C2.01 36.03 1.02 33.06 0 30 C0 20.1 0 10.2 0 0 Z " fill="#000000" transform="translate(0,249)"/>
<path d="M0 0 C10.23 0 20.46 0 31 0 C31.06938267 7.11300812 31.12896198 14.22481201 31.16479492 21.33789062 C31.17975429 23.75069182 31.20012911 26.16346644 31.22631836 28.57617188 C31.43186616 48.01857542 30.54117291 64.26534273 22.0234375 82.03759766 C21.31119125 83.52375221 20.60053642 85.01067036 19.89135742 86.49829102 C19.19218443 87.95755159 18.48451572 89.41278402 17.7668457 90.86303711 C12.214189 102.32584101 11.11381704 114.43558005 14.625 126.8125 C17.86631922 136.07179302 22.63969514 143.08603088 29.55859375 149.9921875 C31 152 31 152 30.79248047 153.90698242 C29.84479836 156.40990255 28.68548374 157.64337764 26.76171875 159.49609375 C26.10623047 160.13740234 25.45074219 160.77871094 24.77539062 161.43945312 C23.74188477 162.42848633 23.74188477 162.42848633 22.6875 163.4375 C16.5057289 169.40831679 16.5057289 169.40831679 11 176 C6.91517263 174.43478577 4.48735741 171.51986121 1.75 168.25 C1.26837402 167.67507812 0.78674805 167.10015625 0.29052734 166.5078125 C-15.46121662 147.17255986 -20.64080612 125.48752793 -19 101 C-17.80794174 90.68378251 -13.76418116 81.91437887 -8.96875 72.83984375 C-3.03769974 61.52237333 -0.88311172 51.16359676 -0.68359375 38.4765625 C-0.66281265 37.37524994 -0.64203156 36.27393738 -0.62062073 35.13925171 C-0.5554381 31.63456227 -0.49638603 28.12980034 -0.4375 24.625 C-0.39428502 22.2434822 -0.35066978 19.86197163 -0.30664062 17.48046875 C-0.19903862 11.65371893 -0.09973227 5.82691107 0 0 Z " fill="#000000" transform="translate(134,61)"/>
<path d="M0 0 C10.23 0 20.46 0 31 0 C31.02578125 3.51914063 31.0515625 7.03828125 31.078125 10.6640625 C31.11666473 14.11628828 31.16178649 17.56837069 31.20751953 21.02050781 C31.2355436 23.3983665 31.25684927 25.77631513 31.27099609 28.15429688 C31.37150057 44.10100633 31.51440668 58.33095133 39.9375 72.375 C50.4874816 90.83070342 53.20041831 113.27293188 47.97460938 133.88476562 C43.27971269 150.27790986 33.37690733 163.5622235 22 176 C18.34924186 174.49867699 16.36723727 172.41104665 13.8125 169.4375 C9.95823437 165.00605648 5.89170444 160.96515792 1.5546875 157.0078125 C0 155 0 155 0.03125 152.984375 C1.22243809 150.54436069 2.69680492 149.03830555 4.625 147.125 C14.6216603 136.22935945 18.58534843 123.16474652 18.3046875 108.6015625 C17.48076011 98.86231821 13.46018578 90.68903044 9.00952148 82.17260742 C2.18018346 68.83913795 -0.16591334 55.57653134 -0.09765625 40.72265625 C-0.0962413 39.5561705 -0.09482635 38.38968475 -0.09336853 37.18785095 C-0.08779206 33.47937403 -0.07524384 29.77095853 -0.0625 26.0625 C-0.05748196 23.5410165 -0.05291959 21.01953205 -0.04882812 18.49804688 C-0.03868325 12.33198882 -0.01910312 6.16606278 0 0 Z " fill="#000000" transform="translate(347,61)"/>
</svg>
