<?xml version="1.0" encoding="UTF-8"?>
<svg version="1.1" xmlns="http://www.w3.org/2000/svg" width="512" height="512">
<path d="M0 0 C0.825 -0.00128906 1.65 -0.00257812 2.5 -0.00390625 C8.08645564 1.2617751 11.16527062 5.79806233 14.4375 10.1875 C15.31557349 11.35479356 16.19453012 12.52142315 17.07421875 13.6875 C17.77877197 14.62529297 17.77877197 14.62529297 18.49755859 15.58203125 C20.63003679 18.39299373 22.81066988 21.16524823 24.98876953 23.94091797 C32.87088989 33.99515578 40.48478691 44.23203019 48 54.5625 C48.55574707 55.32594727 49.11149414 56.08939453 49.68408203 56.87597656 C56.98821361 66.92210529 64.20967289 77.02547875 71.33984375 87.19580078 C72.50493339 88.85673886 73.67175131 90.51646531 74.83984375 92.17529297 C84.23635549 105.52561863 93.36395435 119.01987438 102.19287109 132.75244141 C103.95234767 135.48840134 105.72007622 138.21889483 107.48828125 140.94921875 C150.05895804 206.96147365 200.12438567 285.23012917 182.93359375 366.8671875 C175.39631755 399.94249141 159.3412289 429.9889702 136 454.5625 C135.51080078 455.08424805 135.02160156 455.60599609 134.51757812 456.14355469 C120.27329692 471.2508615 104.32723065 482.85206456 86 492.5625 C85.29407715 492.93745605 84.5881543 493.31241211 83.86083984 493.69873047 C42.55213774 515.24558359 -9.65633974 519.33070778 -54.06469727 505.54663086 C-56.04851041 504.90027389 -58.02462909 504.23416574 -60 503.5625 C-60.63744141 503.35431641 -61.27488281 503.14613281 -61.93164062 502.93164062 C-87.35443777 494.5604055 -109.59679551 479.78392291 -129 461.5625 C-129.53141602 461.06508301 -130.06283203 460.56766602 -130.61035156 460.05517578 C-165.73760723 426.90395362 -185.00181714 380.48876006 -187.28515625 332.51953125 C-188.96966452 274.30244773 -152.74099454 216.2166584 -123 168.5625 C-122.47180664 167.71042969 -121.94361328 166.85835937 -121.39941406 165.98046875 C-102.42600323 135.42588507 -81.73079704 105.87110301 -60.60449219 76.77587891 C-58.99495681 74.55554297 -57.39107213 72.33123958 -55.7890625 70.10546875 C-50.23587409 62.3920993 -44.64681757 54.70763842 -39 47.0625 C-24.93834436 28.1566023 -24.93834436 28.1566023 -12 8.48046875 C-6.07678149 -0.16141451 -6.07678149 -0.16141451 0 0 Z " fill="#000000" transform="translate(256,-0.5625)"/>
</svg>
