<?xml version="1.0" encoding="UTF-8"?>
<svg version="1.1" xmlns="http://www.w3.org/2000/svg" width="512" height="512">
<path d="M0 0 C1.14770355 -0.00453111 2.29540709 -0.00906223 3.47788954 -0.01373065 C7.29108775 -0.02630479 11.10414186 -0.02475878 14.9173584 -0.02310181 C17.66497326 -0.02800969 20.41257826 -0.03584246 23.16018677 -0.04345703 C29.83083949 -0.06000065 36.50145685 -0.0655636 43.17212838 -0.06668179 C48.60169072 -0.06763564 54.03124149 -0.07176271 59.46080017 -0.07808304 C74.89377801 -0.09567912 90.32672815 -0.10492474 105.75971609 -0.10342209 C107.00515626 -0.10330222 107.00515626 -0.10330222 108.27575684 -0.10317993 C109.10707797 -0.10309817 109.93839911 -0.10301641 110.7949118 -0.10293217 C124.25046041 -0.10212025 137.70589682 -0.12123853 151.16141301 -0.14945666 C165.01584947 -0.17827933 178.87023139 -0.19199175 192.72469854 -0.19026911 C200.48739713 -0.18960833 208.24997816 -0.19496249 216.01264954 -0.21662521 C222.62506167 -0.23496129 229.23730299 -0.2390838 235.84972972 -0.22560637 C239.21442687 -0.21913781 242.57853418 -0.22096667 245.94324112 -0.23631287 C280.51319552 -0.38365543 312.20276227 7.3457087 338.98571777 30.26742554 C339.74441162 30.90285278 339.74441162 30.90285278 340.51843262 31.55111694 C365.5222702 52.61073181 380.75571597 83.08545904 384.98571777 115.26742554 C385.2423671 119.27551951 385.26500286 123.26630206 385.25314331 127.28170776 C385.25767442 128.42941131 385.26220554 129.57711486 385.26687396 130.7595973 C385.27944811 134.57279552 385.27790209 138.38584962 385.27624512 142.19906616 C385.281153 144.94668102 385.28898577 147.69428602 385.29660034 150.44189453 C385.31314396 157.11254725 385.31870691 163.78316461 385.3198251 170.45383614 C385.32077895 175.88339848 385.32490602 181.31294926 385.33122635 186.74250793 C385.34882244 202.17548577 385.35806805 217.60843591 385.3565654 233.04142386 C385.35644553 234.28686402 385.35644553 234.28686402 385.35632324 235.5574646 C385.35624148 236.38878574 385.35615972 237.22010688 385.35607548 238.07661957 C385.35526356 251.53216818 385.37438184 264.98760459 385.40259998 278.44312078 C385.43142264 292.29755723 385.44513506 306.15193915 385.44341242 320.00640631 C385.44275164 327.7691049 385.4481058 335.53168593 385.46976852 343.2943573 C385.4881046 349.90676943 385.49222711 356.51901075 385.47874968 363.13143748 C385.47228112 366.49613463 385.47410998 369.86024194 385.48945618 373.22494888 C385.63679874 407.79490329 377.90743461 439.48447003 354.98571777 466.26742554 C354.56209961 466.77322144 354.13848145 467.27901733 353.70202637 467.80014038 C336.42004561 488.3188366 312.02720018 502.93570002 285.98571777 509.26742554 C284.51056513 509.64037546 284.51056513 509.64037546 283.00561142 510.02085972 C269.6124756 512.9763755 256.25784692 512.69719861 242.59997559 512.67147827 C239.85176711 512.67555121 237.10357598 512.68405732 234.3553772 512.692276 C227.69862068 512.70936835 221.04195896 512.71032393 214.38518623 512.7050631 C208.9671566 512.70100164 203.54915473 512.70248825 198.1311264 512.70781136 C197.35641683 512.70855978 196.58170726 512.7093082 195.78352164 512.7100793 C194.2090668 512.71161098 192.63461197 512.71314932 191.06015715 512.71469427 C176.33396008 512.72838511 161.60781631 512.72300609 146.8816205 512.71150906 C133.45218743 512.70158375 120.02289229 512.71451127 106.5934805 512.73844325 C92.75699127 512.76291214 78.92056606 512.77242285 65.08405566 512.76579052 C57.33483795 512.76231509 49.58572614 512.76441837 41.83652496 512.78204155 C35.23883978 512.79686161 28.64133505 512.79727268 22.04365304 512.77997064 C18.68703629 512.7715371 15.33100085 512.77134229 11.97436142 512.78462219 C-27.07809843 512.92721857 -61.44802122 502.02777086 -89.91271973 474.46664429 C-106.45575054 457.80493297 -118.47138977 436.06455029 -124.01428223 413.26742554 C-124.26291551 412.28399044 -124.51154879 411.30055534 -124.76771641 410.28731918 C-127.72323219 396.89418336 -127.4440553 383.53955468 -127.41833496 369.88168335 C-127.4224079 367.13347487 -127.43091401 364.38528374 -127.43913269 361.63708496 C-127.45622504 354.98032845 -127.45718062 348.32366672 -127.45191979 341.66689399 C-127.44785832 336.24886437 -127.44934494 330.83086249 -127.45466805 325.41283417 C-127.45541647 324.63812459 -127.45616489 323.86341502 -127.45693599 323.0652294 C-127.45846767 321.49077457 -127.46000601 319.91631974 -127.46155096 318.34186491 C-127.4752418 303.61566785 -127.46986278 288.88952408 -127.45836575 274.16332826 C-127.44844044 260.7338952 -127.46136796 247.30460006 -127.48529994 233.87518826 C-127.50976883 220.03869903 -127.51927954 206.20227383 -127.51264721 192.36576343 C-127.50917178 184.61654572 -127.51127506 176.8674339 -127.52889824 169.11823273 C-127.5437183 162.52054754 -127.54412937 155.92304282 -127.52682733 149.3253608 C-127.51839379 145.96874405 -127.51819898 142.61270861 -127.53147888 139.25606918 C-127.65762284 104.70938526 -119.91972913 73.03137039 -97.01428223 46.26742554 C-96.59066406 45.76162964 -96.1670459 45.25583374 -95.73059082 44.73471069 C-72.30801115 16.92535228 -36.34923907 -0.10735794 0 0 Z " fill="#780116" transform="translate(127.0142822265625,-0.267425537109375)"/>
<path d="M0 0 C5.28683058 3.68226721 8.58101858 9.17242765 10.0078125 15.3984375 C12.9330376 33.64317476 11.96190512 53.40150122 8.0078125 71.3984375 C3.90326366 90.28875362 3.90326366 90.28875362 2.4453125 109.5234375 C2.42368042 110.84553223 2.42368042 110.84553223 2.40161133 112.19433594 C2.49346929 118.02139904 3.62452108 122.58686404 7.0078125 127.3984375 C9.28571852 129.61900424 9.28571852 129.61900424 11.8828125 131.1484375 C12.75679688 131.71433594 13.63078125 132.28023437 14.53125 132.86328125 C15.34851563 133.36988281 16.16578125 133.87648438 17.0078125 134.3984375 C22.80662907 138.19725407 22.80662907 138.19725407 25.0078125 140.3984375 C25.88127809 147.92115988 21.80329706 154.20010815 18.0078125 160.3984375 C12.78922824 166.68397927 4.24455833 171.8069574 -4.02587891 172.59130859 C-24.50045281 173.30298011 -24.50045281 173.30298011 -30.9921875 167.3984375 C-37.15476411 161.39803396 -39.08775366 152.43830101 -39.33496094 144.10375977 C-39.52765222 129.04902311 -36.47291384 114.82261115 -31.8671875 100.5234375 C-28.24908071 89.25730009 -26.72932512 78.13945999 -26.6171875 66.3359375 C-26.60333008 65.46775391 -26.58947266 64.59957031 -26.57519531 63.70507812 C-26.6330992 55.81186401 -28.30553025 49.15517679 -33.9921875 43.3984375 C-37.21637606 41.28561697 -40.53376285 39.43771824 -43.8984375 37.55859375 C-47.33544859 35.15876151 -49.03513151 33.08820404 -50.9921875 29.3984375 C-51.81498142 24.51204913 -50.29271744 20.31769655 -47.4921875 16.3359375 C-36.31626282 3.04636276 -17.42087178 -8.80409649 0 0 Z " fill="#FEFDFD" transform="translate(268.9921875,216.6015625)"/>
<path d="M0 0 C1.13985352 -0.0299707 1.13985352 -0.0299707 2.30273438 -0.06054688 C9.08814647 -0.05475233 14.22671199 1.90801661 19.3046875 6.4375 C19.84351563 7.0975 20.38234375 7.7575 20.9375 8.4375 C21.76894531 9.4275 21.76894531 9.4275 22.6171875 10.4375 C27.36184074 17.00307421 26.84562106 24.62390958 26.0625 32.4375 C24.29779409 40.20822204 20.32641357 46.11737757 14.0859375 50.9765625 C6.30016667 55.76574799 -3.10173625 55.70036665 -11.9375 54.4375 C-18.32946451 52.51567756 -23.45096949 48.11883004 -26.9375 42.4375 C-30.09261933 34.810815 -30.31173108 25.37834013 -28.09765625 17.41796875 C-24.59185821 9.73354275 -18.73463371 4.2153584 -10.90917969 1.02856445 C-7.29949969 -0.05353501 -3.74246245 -0.03474016 0 0 Z " fill="#FDFDFD" transform="translate(259.9375,121.5625)"/>
</svg>
