<?xml version="1.0" encoding="UTF-8"?>
<svg version="1.1" xmlns="http://www.w3.org/2000/svg" width="512" height="512">
<path d="M0 0 C6.73194276 -0.64113741 10.57203503 0.10782429 16.05078125 4.15234375 C20.86487265 8.71560073 22.83513058 14.71339498 23.0859375 21.234375 C23.1876929 27.6246142 23.1876929 27.6246142 22 30 C22.98226562 29.14728516 22.98226562 29.14728516 23.984375 28.27734375 C40.65389109 14.17417971 58.01455211 7.53884232 80 9 C90.30346484 10.41311019 100.87153429 14.00633792 108 22 C108.49886719 22.88816406 108.99773437 23.77632812 109.51171875 24.69140625 C112.62759649 30.31890642 112.62759649 30.31890642 117.90966797 33.63085938 C122.49855965 34.45250142 127.14237284 34.5823129 131.79052734 34.81787109 C141.13509403 35.5881525 149.39337627 39.7856666 157 45 C157.886875 45.5775 158.77375 46.155 159.6875 46.75 C168.65806247 55.47811484 173.11765665 65.41482223 173.36352539 77.82299805 C173.39517635 85.55189295 172.90556536 92.48445022 171 100 C171.66 100.2475 172.32 100.495 173 100.75 C175.32260688 101.71775287 177.4185859 102.75257391 179.625 103.9375 C184.51652224 106.43948551 189.68276073 107.70978753 195 109 C195 113 195 113 193.671875 114.74609375 C181.72310528 125.26198255 170.20092514 125.67593047 155 125 C165.08459935 138.57250589 180.47543476 145.62145096 195.375 152.625 C197.09433678 153.44538596 198.81309083 154.26699434 200.53125 155.08984375 C204.68094418 157.07399593 208.83807736 159.04163646 213 161 C211.37614225 164.55013253 210.3608903 165.71453662 206.6875 167.1875 C193.50558645 171.97401616 182.53658105 169.72073242 170.1875 164 C156.03751995 156.76497702 145.27950333 145.58348606 134.28710938 134.35327148 C133.37251953 133.41942627 132.45792969 132.48558105 131.515625 131.5234375 C130.69352539 130.67700684 129.87142578 129.83057617 129.02441406 128.95849609 C127.15204527 126.95082025 127.15204527 126.95082025 125 126 C136.40356659 149.3299328 152.64933571 165.04150325 174.25 179.0625 C180.01834525 182.88508204 185.06249593 187.16010721 190 192 C191.15822266 193.10408203 191.15822266 193.10408203 192.33984375 194.23046875 C207.57933048 209.78256034 211.65211332 230.07034216 211.47094727 251.12670898 C210.94970098 270.16395074 207.34138464 292.78899258 195 308 C194.34 308 193.68 308 193 308 C192.9906543 307.30140869 192.98130859 306.60281738 192.97167969 305.88305664 C192.50786355 278.19732568 188.86617658 255.52561896 168.3359375 235.38671875 C161.64861873 229.17975668 154.52949059 223.5474329 147.3515625 217.92578125 C140.04178798 212.09262307 133.49900002 205.70315709 127 199 C127 206.65412244 132.54395368 214.08237049 137 220 C137.55558594 220.53882813 138.11117188 221.07765625 138.68359375 221.6328125 C140 223 140 223 140 225 C140.55171875 225.23332031 141.1034375 225.46664062 141.671875 225.70703125 C144.61255267 227.34019284 146.79077251 229.39339207 149.25 231.6875 C152.46758786 234.68466116 155.71255169 237.59981614 159.125 240.375 C173.01375265 252.55611913 180.08256782 269.87150375 181.8125 287.9375 C183.02823792 313.28692894 177.45923729 340.53497421 162.48046875 361.375 C161.99191406 361.91125 161.50335938 362.4475 161 363 C160.34 363 159.68 363 159 363 C157.82966447 360.65932894 157.77071972 359.0161622 157.60546875 356.40625 C154.88795999 317.73400998 140.58157477 293.68016111 114.46289062 265.85424805 C104 254.64194486 104 254.64194486 104 251 C103.34 251 102.68 251 102 251 C106.94084216 265.26147846 113.32985576 276.98840635 122.51049805 288.99462891 C127.14054356 295.08207903 131.20995785 301.3475484 135 308 C135.72123047 309.25490234 135.72123047 309.25490234 136.45703125 310.53515625 C146.36781488 328.94945212 147.58151134 351.08415273 142 371 C134.92338127 392.72884853 121.88166454 411.01885563 103 424 C102.04402898 420.26904596 102.04498846 417.70197856 102.9609375 413.97265625 C103.18515381 413.02269775 103.40937012 412.07273926 103.64038086 411.09399414 C103.88280518 410.09360107 104.12522949 409.09320801 104.375 408.0625 C109.43295223 385.85495554 109.40135084 364.8443889 96.9375 344.9375 C92.80925849 338.61399071 87.8451265 333.15268307 82.6015625 327.7421875 C80.53907426 325.56821341 78.71944408 323.44465179 77 321 C78.88174326 330.99676109 82.80955514 339.73118529 87.03515625 348.89794922 C94.4061488 364.95671588 98.3859212 381.50684711 93.15625 399.01171875 C85.81229541 417.99187165 73.33847293 430.83383222 55.76953125 440.83984375 C53 442 53 442 50 441 C50.29245605 440.40574219 50.58491211 439.81148438 50.88623047 439.19921875 C52.22379464 436.46997237 53.54944516 433.735098 54.875 431 C55.33519531 430.06542969 55.79539062 429.13085938 56.26953125 428.16796875 C58.85349173 422.81280428 60.80396617 417.8289465 62 412 C61.52691406 412.67804688 61.05382812 413.35609375 60.56640625 414.0546875 C49.07947358 430.22148163 34.77069702 444.94803877 19 457 C18.34386719 457.57234375 17.68773437 458.1446875 17.01171875 458.734375 C14.3428913 460.41340431 13.10607896 460.59893002 10 460 C7.86335837 458.37025818 6.07419598 456.8168891 4.1875 454.9375 C3.1230356 453.91860203 2.0579312 452.90037227 0.9921875 451.8828125 C0.47881836 451.38555664 -0.03455078 450.88830078 -0.56347656 450.37597656 C-2.38804617 448.62830928 -4.27537118 446.96353492 -6.1875 445.3125 C-6.80882812 444.77109375 -7.43015625 444.2296875 -8.0703125 443.671875 C-9.45752022 442.47000272 -10.8486171 441.27261392 -12.2421875 440.078125 C-21.30294325 432.20716546 -29.33544464 422.99683305 -36 413 C-34.96513219 420.2440747 -32.20272371 426.00617365 -28.83203125 432.4140625 C-27.16499931 435.59377158 -25.76753611 438.49381024 -25 442 C-37.67233005 440.78588455 -50.37078814 427.4697205 -58.25 418.25 C-66.4851452 407.5476453 -70.3641846 395.6053019 -70.3125 382.25 C-70.32861328 381.43273437 -70.34472656 380.61546875 -70.36132812 379.7734375 C-70.3717364 366.40921054 -65.07408325 355.13975515 -59.46484375 343.33447266 C-54.77146464 333.58036472 -54.77146464 333.58036472 -53 323 C-68.95044471 337.91019832 -80.43388605 356.89068234 -82.33984375 378.9296875 C-82.66655466 392.12880829 -80.39829844 405.32557587 -76.55078125 417.93359375 C-76 420 -76 420 -76 423 C-81.0465724 422.61612343 -83.81821738 419.91983269 -87.3125 416.5625 C-87.88572998 416.01972412 -88.45895996 415.47694824 -89.04956055 414.91772461 C-107.57879926 397.0729157 -119.25283545 373.40206846 -120.25 347.5625 C-119.85373021 324.03848429 -108.9321469 305.17023275 -95.56396484 286.50830078 C-92.17765127 281.75212271 -88.96090665 276.93266598 -85.9375 271.9375 C-85.57994629 271.35508545 -85.22239258 270.7726709 -84.85400391 270.17260742 C-81.92426655 265.2391667 -79 259.83043718 -79 254 C-83.75639113 259.2633081 -88.49620683 264.53641847 -93.13671875 269.90234375 C-94.48542612 271.42069984 -95.86766928 272.90948467 -97.26953125 274.37890625 C-118.34822167 296.65260904 -129.8756667 322.10885349 -131.82666016 352.69335938 C-132.08633415 356.14885224 -132.537161 359.56628842 -133 363 C-136.56011615 362.40369685 -136.88128003 362.16577624 -139.1484375 359 C-139.9093748 357.67727762 -140.65034448 356.34294246 -141.375 355 C-141.7671167 354.27941406 -142.1592334 353.55882812 -142.56323242 352.81640625 C-154.93931826 329.38888432 -160.18649938 299.70852089 -154.171875 273.6640625 C-148.46588732 255.82334102 -137.05813777 242.03407732 -122.4375 230.5625 C-113.24924401 223.16517527 -106.20361948 214.09425847 -102 203 C-102 201.68 -102 200.36 -102 199 C-102.63164062 199.72703125 -103.26328125 200.4540625 -103.9140625 201.203125 C-112.57175101 210.9995933 -122.18400077 219.30489152 -132.51171875 227.29394531 C-149.36378158 240.33510239 -162.82376039 256.48048575 -165.80859375 278.2265625 C-166.89420602 287.78543423 -167.32114205 297.38357978 -167 307 C-168.32 307 -169.64 307 -171 307 C-177.09182592 296.11401522 -180.87991252 285.05063727 -184 273 C-184.26941406 271.96488281 -184.53882813 270.92976563 -184.81640625 269.86328125 C-189.39290926 247.94087173 -186.32649525 223.53517153 -174.75 204.375 C-165.58474273 190.67617865 -153.26286174 181.50681892 -139.8125 172.375 C-121.9480085 160.20008095 -111.00330562 147.01863043 -101 128 C-105.14280895 131.07210286 -108.64169967 134.61364103 -112.22900391 138.29541016 C-127.05917448 153.49796418 -144.50879894 168.37796482 -166.5625 170.3125 C-173.51552351 170.24512574 -181.24779326 167.83480449 -187 164 C-186.85375977 162.18017578 -186.85375977 162.18017578 -186 160 C-183.57006836 158.51123047 -183.57006836 158.51123047 -180.33984375 157.1171875 C-178.57133057 156.33359863 -178.57133057 156.33359863 -176.76708984 155.53417969 C-176.14131042 155.26359741 -175.51553101 154.99301514 -174.87078857 154.7142334 C-171.6366208 153.31029317 -168.42856459 151.84993347 -165.22265625 150.3828125 C-164.59121704 150.09390137 -163.95977783 149.80499023 -163.3092041 149.50732422 C-151.53103439 144.05996895 -141.22280341 137.18523599 -132 128 C-131.41863281 127.42121094 -130.83726562 126.84242188 -130.23828125 126.24609375 C-129.82964844 125.83488281 -129.42101562 125.42367187 -129 125 C-129.89460938 125.09539062 -130.78921875 125.19078125 -131.7109375 125.2890625 C-145.07025645 126.51390411 -155.72199795 124.82013166 -166.5625 116.4375 C-169.00896308 113.99103692 -169.3947108 113.21687408 -170 110 C-168.96875 109.649375 -167.9375 109.29875 -166.875 108.9375 C-162.68899339 107.34606325 -158.61107364 105.53582361 -154.5625 103.625 C-153.93520996 103.34519287 -153.30791992 103.06538574 -152.66162109 102.77709961 C-149.82402018 101.40337744 -148.23717919 100.58625341 -147.03125 97.60546875 C-146.99770587 94.8087267 -147.33299372 92.4176558 -147.9375 89.6875 C-150.05470063 78.81146936 -148.82794413 67.93378418 -143.41015625 58.06640625 C-134.29856677 44.71452028 -123.55291849 38.42805912 -108 35 C-105.71140192 34.66576773 -103.41964499 34.3523219 -101.125 34.0625 C-91.87689875 32.71102627 -87.59396841 28.81738662 -81.5 21.9375 C-72.76027164 12.09586384 -63.14924252 9.76090895 -50.1015625 8.67578125 C-27.45254321 8.03057343 -11.51612479 17.25519195 5 32 C3.89642584 15.74956734 3.89642584 15.74956734 0 0 Z M-73 36 C-72.21052979 36.29132812 -71.42105957 36.58265625 -70.60766602 36.8828125 C-44.01428585 46.73264276 -44.01428585 46.73264276 -34.0625 51.4375 C-33.41547119 51.74236328 -32.76844238 52.04722656 -32.10180664 52.36132812 C-28.15645165 54.28283954 -24.59394256 56.50344448 -21 59 C-20.34 58.67 -19.68 58.34 -19 58 C-27.92447428 46.07914426 -37.73754817 38.24954974 -52.34375 34.37890625 C-55.95868388 33.86324656 -59.54406574 33.81579723 -63.1875 33.8125 C-63.91130859 33.80025391 -64.63511719 33.78800781 -65.38085938 33.77539062 C-69.65288104 33.61217021 -69.65288104 33.61217021 -73 36 Z M48 53 C46.44571279 54.9588826 45.23102249 56.81773285 44 59 C44.33 59.66 44.66 60.32 45 61 C45.74121094 60.5153125 46.48242188 60.030625 47.24609375 59.53125 C63.48843653 49.19340637 80.94342702 42.53037315 99 36 C96.56292131 33.56292131 95.13364801 33.69506463 91.79541016 33.61962891 C73.94352095 33.66511669 60.44878064 40.25590157 48 53 Z M-121 68 C-125.92947059 75.04559568 -127.7412021 81.46244994 -127 90 C-125.68312849 96.58435757 -122.71351715 102.19428691 -118 107 C-115.90632348 108.21736197 -115.90632348 108.21736197 -114 109 C-113.21625 107.989375 -112.4325 106.97875 -111.625 105.9375 C-103.09672579 96.05109313 -91.00362831 91.30318751 -79 87 C-82.59870161 83.40129839 -86.64983402 83.83994506 -91.5625 83.8125 C-97.90383194 83.84570069 -103.82673994 84.58896913 -110 86 C-107.03283131 79.11616864 -103.83529622 74.03808561 -96.7109375 71.03515625 C-90.61586397 69.09053755 -84.30615768 68.0190559 -78 67 C-82.54982609 61.50229348 -89.08726735 59.72007632 -96 59 C-105.65902682 58.36662119 -114.07563332 61.00020449 -121 68 Z M103 67 C104.11117188 67.14695312 105.22234375 67.29390625 106.3671875 67.4453125 C115.90760216 68.83443292 125.07144725 70.28557323 131.71484375 77.98828125 C133.37878445 80.59293006 133.65441263 82.95883111 134 86 C133.01 85.67 132.02 85.34 131 85 C126.64656766 83.90774099 122.34123536 83.77453975 117.875 83.75 C117.194375 83.74097656 116.51375 83.73195313 115.8125 83.72265625 C111.50575875 83.74779287 108.00283386 84.42879419 104 86 C104.33 86.66 104.66 87.32 105 88 C106.95834202 88.64982691 108.94351867 89.21951255 110.9375 89.75 C121.11366915 92.78285391 128.14587324 97.74230206 135.7734375 105.046875 C137.79989321 106.82446773 139.53908128 107.94371525 142 109 C148.51609956 102.24497679 152.16639065 96.04122734 152.5 86.5 C152.2412957 78.59103993 149.75394448 71.59843247 144 66 C131.68312814 57.48248579 113.83189136 55.05363606 103 67 Z M24.75 111.6875 C17.40086036 119.44561044 17.40086036 119.44561044 14 129 C13.01 129 12.02 129 11 129 C10.814375 128.195625 10.62875 127.39125 10.4375 126.5625 C8.45096935 121.63935883 5.43066455 118.01177712 2 114 C1.45085937 113.35417969 0.90171875 112.70835937 0.3359375 112.04296875 C-5.56754323 105.62188426 -13.32676763 101.4408499 -22.06640625 100.76171875 C-36.83509144 100.44819359 -46.66833818 105.22198183 -57.41015625 115.25 C-70.28593857 128.67791707 -78.48470981 147.314094 -78.20703125 166.01953125 C-77.19979548 180.51992542 -69.56340718 192.73928393 -62 204.734375 C-58.75823347 210.02757192 -55.87918756 215.50255125 -53 221 C-42.32360021 212.6961335 -31.15383835 200.79736049 -29 187 C-28.40604325 178.67222198 -28.40604325 178.67222198 -31 171 C-33.1034385 169.7993248 -35.23659097 168.93198697 -37.4921875 168.05078125 C-43.23443021 165.64476366 -48.17259654 162.29895983 -52 157.375 C-55.19409516 153.32854799 -59.15532462 151.55998547 -64 150 C-64.66 150 -65.32 150 -66 150 C-65.67 149.01 -65.34 148.02 -65 147 C-57.43083471 143.45269526 -49.37130014 142.59953826 -41.125 142.5 C-40.34141113 142.48171143 -39.55782227 142.46342285 -38.75048828 142.44458008 C-33.62035566 142.49836986 -30.07290091 143.58135025 -25.62451172 146.14257812 C-24.01135854 147.15559198 -24.01135854 147.15559198 -22 147 C-14.07288427 162.50034237 -10.9185865 180.02426513 -15.89453125 197.03125 C-19.49234591 206.69322577 -24.26183945 215.17460637 -31 223 C-39.22369548 232.20633694 -39.22369548 232.20633694 -45 243 C-45.29519531 243.74378906 -45.59039062 244.48757813 -45.89453125 245.25390625 C-49.39374655 255.20829498 -49.42013068 266.33194031 -45 276 C-41.39491163 282.4369924 -37.92665726 287.20503303 -31 290 C-19.86611436 293.07141673 -9.10837121 286.85246253 0.515625 281.68359375 C3.27812817 280.17884696 3.27812817 280.17884696 4 277 C5.23627001 268.63204795 5.23627001 268.63204795 2.53125 261.0625 C0.55965124 259.64055789 0.55965124 259.64055789 -1.66796875 258.41796875 C-4.37575109 256.77152823 -6.12821273 254.84676654 -8.25 252.5 C-13.11020049 247.46956482 -18.63331588 244.74704645 -25 242 C-25 238.7 -25 235.4 -25 232 C-18.21240882 228.60620441 -13.37007847 229.74406034 -6.375 231.9375 C-5.31023437 232.29714844 -4.24546875 232.65679687 -3.1484375 233.02734375 C8.86465468 236.73858439 20.00593691 235.15106918 31.84423828 231.77880859 C43.85738225 228.42869112 43.85738225 228.42869112 49 231 C50.64806913 234.29613827 50.85977172 237.47493597 50 241 C47.47083443 243.26976397 44.9166904 244.55431627 41.87890625 246.03125 C36.32291481 248.88146398 32.78590136 252.11616743 28.79296875 256.9140625 C26.75607799 259.28377855 24.48549262 261.11705105 22 263 C20.65167896 265.69664208 20.83089318 267.86587521 20.8125 270.875 C20.79832031 271.92429687 20.78414063 272.97359375 20.76953125 274.0546875 C21.04986691 277.85980307 21.04986691 277.85980307 23 281 C25.45049431 282.61721056 28.03792563 283.86830377 30.6875 285.125 C31.38294922 285.47175781 32.07839844 285.81851563 32.79492188 286.17578125 C40.31740657 289.84220236 46.70563098 291.83476902 55 290 C62.34354043 287.17556137 66.74278859 281.96681329 70 275 C74.15731687 263.62208014 73.95321973 251.11527211 69.0625 240 C66.11596803 234.54540809 61.88124547 230.25197655 57.64453125 225.796875 C43.21650307 210.5376901 38.11966884 192.92094567 38.6484375 172.2421875 C38.95756021 165.99524015 40.22597995 160.62080128 43 155 C43.36222656 154.22398437 43.72445312 153.44796875 44.09765625 152.6484375 C46.9323884 147.36334367 50.40020109 144.97746679 56 143 C59.10851028 142.49322192 62.1067762 142.47547263 65.25 142.5625 C66.07757813 142.5728125 66.90515625 142.583125 67.7578125 142.59375 C73.65885752 142.7500082 79.08850342 143.60669991 84.75 145.34375 C87.089375 146.14 87.089375 146.14 90 146 C89.74609375 147.8984375 89.74609375 147.8984375 89 150 C87.28515625 150.9140625 87.28515625 150.9140625 85.0625 151.625 C79.58800109 153.7974202 76.41074887 157.44452329 72.41796875 161.66015625 C69.24467114 164.73092405 66.06477628 166.39502396 62 168 C57.59769204 169.68868283 57.59769204 169.68868283 54.87109375 173.2265625 C52.40915955 181.06500771 53.29457041 188.47606195 56.6875 195.875 C61.80167714 205.19347001 69.34301851 216.06381058 79 221 C79.67482422 219.45505859 79.67482422 219.45505859 80.36328125 217.87890625 C83.95226796 209.86730046 87.83527259 202.40919549 92.75 195.125 C96.87031421 189.00494692 100.08289737 183.1955252 102 176 C102.28037109 175.09121094 102.28037109 175.09121094 102.56640625 174.1640625 C105.96998709 157.17682117 100.1407244 139.26087648 91 125 C82.6011193 113.43044447 70.82691104 103.74335565 56.7265625 100.47265625 C44.70029966 98.59487135 33.46000368 103.49875136 24.75 111.6875 Z M-7.625 302.875 C-9.70218114 303.71428954 -11.78106061 304.54914363 -13.86117554 305.38113403 C-15.74471759 306.13682077 -17.62372942 306.90377068 -19.50244141 307.67138672 C-22.98221646 308.99324459 -26.40981609 310.03140248 -30 311 C-29.62264915 318.35834153 -25.07369562 324.3061424 -19.875 329.25 C-9.10267316 337.79193317 5.64650185 340.02966733 19 339 C30.63803833 337.44502202 41.32679258 334.82454088 49.52734375 325.96484375 C53.00809194 321.32076858 55 316.80512759 55 311 C54.45287354 310.82460693 53.90574707 310.64921387 53.34204102 310.46850586 C50.74651698 309.63187824 48.15404219 308.78638417 45.5625 307.9375 C44.61342773 307.62675537 43.66435547 307.31601074 42.68652344 306.99584961 C35.88225781 304.72757124 29.26717559 302.18144168 22.77172852 299.13452148 C11.78340464 294.25409524 2.80356799 298.58590965 -7.625 302.875 Z M-21 363 C-21.9635311 373.83972485 -16.34906379 383.58777545 -10 392 C-6.66706775 395.93591779 -3.10592045 399.65806932 0.46142578 403.38037109 C2.93509822 405.98436078 5.3419944 408.64791439 7.75 411.3125 C8.56984375 412.21613281 9.3896875 413.11976563 10.234375 414.05078125 C11.10835937 415.01564453 11.10835937 415.01564453 12 416 C16.54537308 413.95280034 19.28452117 410.86738159 22.625 407.25 C23.24238037 406.58331299 23.85976074 405.91662598 24.49584961 405.22973633 C39.90341167 388.37427406 39.90341167 388.37427406 46.0625 367.3125 C46.05347656 366.50425781 46.04445313 365.69601562 46.03515625 364.86328125 C46.02355469 364.24839844 46.01195312 363.63351562 46 363 C43.16816544 366.49365657 40.47088697 370.06066604 37.8125 373.6875 C30.76309098 383.07519339 23.4197393 390.95977731 14 398 C9.09846322 396.49465912 6.02812625 393.69040617 2.375 390.25 C1.76543457 389.68015381 1.15586914 389.11030762 0.52783203 388.52319336 C-6.65132027 381.64652817 -12.81552129 373.91512007 -18.2421875 365.58984375 C-18.82226562 364.73519531 -19.40234375 363.88054687 -20 363 C-20.33 363 -20.66 363 -21 363 Z M-38 410 C-37 412 -37 412 -37 412 Z " fill="#000000" transform="translate(243,26)"/>
</svg>
