<?xml version="1.0" encoding="UTF-8"?>
<svg version="1.1" xmlns="http://www.w3.org/2000/svg" width="512" height="512">
<path d="M0 0 C16.58243332 13.09023876 27.45035235 30.31804098 30.39794922 51.49707031 C32.93893084 74.61180632 26.92337137 94.93714384 12.53125 113.22265625 C-0.36506101 128.33844108 -18.62251551 138.21689247 -38.375 140.5625 C-62.16050986 142.06212197 -82.95067512 135.91296607 -101.1640625 120.1484375 C-107.02108873 114.57453036 -111.42191777 108.59695914 -115.375 101.5625 C-115.83648437 100.75039063 -116.29796875 99.93828125 -116.7734375 99.1015625 C-126.67800659 80.55300585 -128.14896651 58.64015629 -122.375 38.5625 C-115.04705515 17.00143151 -100.36744843 1.23167534 -80.3046875 -9.00390625 C-53.42480051 -21.01025577 -23.53484125 -17.08411505 0 0 Z M-68.96484375 48.328125 C-72.69541223 54.23916426 -74.10378661 60.50572086 -72.9375 67.40625 C-70.92022323 75.13914428 -66.83526444 79.9462808 -60.375 84.5625 C-53.97218545 88.23818983 -47.85354488 88.62531886 -40.7578125 86.94140625 C-32.81590723 84.22570916 -28.64791573 79.37513284 -24.4375 72.3125 C-22.37161313 65.02113457 -22.25107816 58.15976957 -25.4375 51.1875 C-29.13212037 44.72191436 -34.07462082 40.32283322 -41.21484375 38.0390625 C-52.39727657 35.572052 -61.86001255 39.39249806 -68.96484375 48.328125 Z " fill="#FF6B37" transform="translate(303.375,193.4375)"/>
</svg>
