<?xml version="1.0" encoding="UTF-8"?>
<svg version="1.1" xmlns="http://www.w3.org/2000/svg" width="512" height="512">
<path d="M0 0 C0.79375031 0.00215515 1.58750061 0.0043103 2.40530396 0.00653076 C14.26751525 0.05818153 25.74647702 0.4499286 37.3125 3.3125 C38.13637207 3.51117676 38.96024414 3.70985352 39.80908203 3.91455078 C84.13057922 14.8901024 122.7397923 42.17432466 146.74755859 81.21630859 C161.1825563 105.30157265 171.33367441 132.94438622 171.515625 161.30078125 C171.52268463 162.03724884 171.52974426 162.77371643 171.53701782 163.53250122 C171.76544406 194.36111687 171.76544406 194.36111687 168.3125 208.3125 C168.11382324 209.13637207 167.91514648 209.96024414 167.71044922 210.80908203 C156.73072037 255.14744773 129.44824674 293.70731388 90.4152832 317.74536133 C75.20746173 326.87005421 59.37413347 333.67424937 42.1875 338.0625 C41.4130957 338.26125732 40.63869141 338.46001465 39.84082031 338.66479492 C26.80586113 341.82597577 13.97171154 342.6903283 0.625 342.625 C-0.16875031 342.62284485 -0.96250061 342.6206897 -1.78030396 342.61846924 C-13.64413673 342.56681141 -25.11917734 342.16992191 -36.6875 339.3125 C-37.93128418 339.01448486 -37.93128418 339.01448486 -39.20019531 338.71044922 C-51.9896589 335.56607834 -63.88438414 331.12804556 -75.6875 325.3125 C-76.34975586 324.99023438 -77.01201172 324.66796875 -77.69433594 324.3359375 C-102.02927522 312.36913077 -122.62580311 294.02606869 -138.6875 272.3125 C-139.32389404 271.45857666 -139.32389404 271.45857666 -139.97314453 270.58740234 C-158.39664097 245.51157659 -170.57371294 212.76006491 -170.92578125 181.46484375 C-170.93552979 180.73913177 -170.94527832 180.0134198 -170.95532227 179.26571655 C-171.13334031 162.5687369 -170.71920422 146.61820927 -166.6875 130.3125 C-166.50558105 129.5503418 -166.32366211 128.78818359 -166.13623047 128.00292969 C-163.32777883 116.54324232 -158.82964685 105.90595049 -153.6875 95.3125 C-153.20192627 94.31041504 -153.20192627 94.31041504 -152.70654297 93.28808594 C-133.23349452 53.70839722 -97.45901299 23.37579179 -56.03125 8.7265625 C-51.26394467 7.12497702 -46.43457817 5.80443871 -41.5625 4.5625 C-40.78825684 4.36382324 -40.01401367 4.16514648 -39.21630859 3.96044922 C-26.18140224 0.79858355 -13.34677311 -0.0653286 0 0 Z " fill="#90C8F9" transform="translate(255.6875,84.6875)"/>
<path d="M0 0 C0.96988861 0.00182281 1.93977722 0.00364563 2.9390564 0.00552368 C17.29056055 0.05091691 31.25442918 0.5562653 45.375 3.3125 C46.72053955 3.55395752 46.72053955 3.55395752 48.09326172 3.80029297 C71.49719555 8.03521303 94.06964498 15.78142316 115.375 26.3125 C116.11927246 26.67843262 116.86354492 27.04436523 117.63037109 27.42138672 C145.72924399 41.38758095 173.31847825 62.02881896 193.375 86.3125 C194.15617187 87.19421875 194.93734375 88.0759375 195.7421875 88.984375 C225.96141385 123.25261926 245.33683514 166.51924294 253.375 211.3125 C253.53726074 212.14378418 253.69952148 212.97506836 253.86669922 213.83154297 C259.16265528 241.55743058 258.77549548 273.64501622 253.375 301.3125 C253.21402832 302.20952637 253.05305664 303.10655273 252.88720703 304.03076172 C248.65228697 327.43469555 240.90607684 350.00714498 230.375 371.3125 C230.00906738 372.05677246 229.64313477 372.80104492 229.26611328 373.56787109 C215.29829677 401.67000789 194.65687395 429.24965776 170.375 449.3125 C169.03501953 450.50166016 169.03501953 450.50166016 167.66796875 451.71484375 C114.86834947 498.31980828 45.32561935 516.46555749 -23.88116455 512.17254639 C-79.21070341 508.04782083 -130.25605056 483.36800639 -171.625 447.3125 C-172.57761719 446.50683594 -173.53023438 445.70117188 -174.51171875 444.87109375 C-185.00494178 435.81781666 -185.00494178 435.81781666 -185.9921875 428.64453125 C-186.26498584 422.69913222 -185.74886019 418.88218291 -181.625 414.3125 C-176.4962485 409.79431416 -173.33287856 408.82584252 -166.56640625 408.9140625 C-158.65195008 409.98614023 -153.47347079 416.3640579 -148.18359375 421.828125 C-134.46458146 435.14918121 -117.46804533 445.46118369 -100.625 454.3125 C-99.97370117 454.65522949 -99.32240234 454.99795898 -98.65136719 455.35107422 C-47.02368948 482.0598951 14.19717107 484.6154253 69.18041992 467.71655273 C104.05172382 456.50802045 133.67708781 437.0934426 159.375 411.3125 C160.05820312 410.66410156 160.74140625 410.01570313 161.4453125 409.34765625 C176.82073465 394.58608175 188.51058994 376.08334718 198.375 357.3125 C198.71772949 356.66120117 199.06045898 356.00990234 199.41357422 355.33886719 C226.1211877 303.71352336 228.6815041 242.48704137 211.77856445 187.50634766 C201.85641062 156.6290663 185.39547825 130.69241541 164.375 106.3125 C163.72402344 105.53648438 163.07304687 104.76046875 162.40234375 103.9609375 C159.10863475 100.07451093 155.66420002 96.62387612 151.76953125 93.33984375 C149.94520156 91.79526446 148.16142183 90.22875625 146.38671875 88.62890625 C132.77956478 76.48203222 117.5115112 66.75732761 101.375 58.3125 C100.74400391 57.97798828 100.11300781 57.64347656 99.46289062 57.29882812 C47.92688611 30.34880742 -13.49425208 28.02404485 -68.43041992 44.90844727 C-100.80064152 55.31306749 -129.18929287 72.85909459 -153.625 96.3125 C-154.18719238 96.84746094 -154.74938477 97.38242188 -155.32861328 97.93359375 C-191.97995196 132.97644144 -215.1975472 181.95078681 -220.625 232.3125 C-220.73585937 233.27929688 -220.84671875 234.24609375 -220.9609375 235.2421875 C-223.1922689 258.46009526 -221.54520285 282.01418573 -216.4375 304.75 C-212.68464471 321.51064826 -212.68464471 321.51064826 -216.75 328.8125 C-219.29583945 332.26352681 -221.42605071 334.06836688 -225.625 335.3125 C-230.80796165 335.93194625 -235.80060811 336.13094595 -240.5625 333.75 C-246.94051555 328.67362027 -248.55211199 321.97048604 -250.1875 314.3125 C-250.50110474 312.84985718 -250.50110474 312.84985718 -250.82104492 311.35766602 C-251.44678277 308.34692196 -252.04095265 305.33158327 -252.625 302.3125 C-252.79451172 301.47315918 -252.96402344 300.63381836 -253.13867188 299.76904297 C-258.5240869 271.97605568 -258.2730476 239.03287933 -252.625 211.3125 C-252.44275879 210.3961377 -252.26051758 209.47977539 -252.07275391 208.53564453 C-250.76113995 202.08276687 -249.26402372 195.68965674 -247.625 189.3125 C-247.43180176 188.55775391 -247.23860352 187.80300781 -247.03955078 187.02539062 C-236.96491642 148.53178337 -216.59992045 113.03387521 -189.84765625 83.7578125 C-187.71451605 81.41098338 -185.63867927 79.02215414 -183.5625 76.625 C-180.48514566 73.15918279 -177.25685938 70.08219533 -173.71484375 67.09765625 C-172.3014755 65.89034917 -170.91871533 64.64642129 -169.56640625 63.37109375 C-157.03542985 51.57851111 -142.66212314 41.62961908 -127.625 33.3125 C-126.86026367 32.88372559 -126.09552734 32.45495117 -125.30761719 32.01318359 C-98.4132978 17.03588483 -69.12394744 6.79235381 -38.625 2.3125 C-37.42037109 2.13517334 -36.21574219 1.95784668 -34.97460938 1.77514648 C-23.31732646 0.176175 -11.75313902 -0.0459053 0 0 Z " fill="#135B9E" transform="translate(255.625,-0.3125)"/>
<path d="M0 0 C0.79375031 0.00215515 1.58750061 0.0043103 2.40530396 0.00653076 C14.26751525 0.05818153 25.74647702 0.4499286 37.3125 3.3125 C38.13637207 3.51117676 38.96024414 3.70985352 39.80908203 3.91455078 C84.13057922 14.8901024 122.7397923 42.17432466 146.74755859 81.21630859 C161.1825563 105.30157265 171.33367441 132.94438622 171.515625 161.30078125 C171.52268463 162.03724884 171.52974426 162.77371643 171.53701782 163.53250122 C171.76544406 194.36111687 171.76544406 194.36111687 168.3125 208.3125 C168.11382324 209.13637207 167.91514648 209.96024414 167.71044922 210.80908203 C156.73072037 255.14744773 129.44824674 293.70731388 90.4152832 317.74536133 C75.20746173 326.87005421 59.37413347 333.67424937 42.1875 338.0625 C41.4130957 338.26125732 40.63869141 338.46001465 39.84082031 338.66479492 C26.80586113 341.82597577 13.97171154 342.6903283 0.625 342.625 C-0.16875031 342.62284485 -0.96250061 342.6206897 -1.78030396 342.61846924 C-13.64413673 342.56681141 -25.11917734 342.16992191 -36.6875 339.3125 C-37.93128418 339.01448486 -37.93128418 339.01448486 -39.20019531 338.71044922 C-51.9896589 335.56607834 -63.88438414 331.12804556 -75.6875 325.3125 C-76.34975586 324.99023438 -77.01201172 324.66796875 -77.69433594 324.3359375 C-102.02927522 312.36913077 -122.62580311 294.02606869 -138.6875 272.3125 C-139.32389404 271.45857666 -139.32389404 271.45857666 -139.97314453 270.58740234 C-158.39664097 245.51157659 -170.57371294 212.76006491 -170.92578125 181.46484375 C-170.93552979 180.73913177 -170.94527832 180.0134198 -170.95532227 179.26571655 C-171.13334031 162.5687369 -170.71920422 146.61820927 -166.6875 130.3125 C-166.50558105 129.5503418 -166.32366211 128.78818359 -166.13623047 128.00292969 C-163.32777883 116.54324232 -158.82964685 105.90595049 -153.6875 95.3125 C-153.20192627 94.31041504 -153.20192627 94.31041504 -152.70654297 93.28808594 C-133.23349452 53.70839722 -97.45901299 23.37579179 -56.03125 8.7265625 C-51.26394467 7.12497702 -46.43457817 5.80443871 -41.5625 4.5625 C-40.78825684 4.36382324 -40.01401367 4.16514648 -39.21630859 3.96044922 C-26.18140224 0.79858355 -13.34677311 -0.0653286 0 0 Z M-101.734375 77.11328125 C-116.86845842 94.15425918 -128.17990595 114.16393511 -133.6875 136.3125 C-134.06003906 137.55128906 -134.43257812 138.79007812 -134.81640625 140.06640625 C-140.21041507 159.1189151 -140.0002903 183.32679279 -134.6875 202.3125 C-134.48882324 203.07353027 -134.29014648 203.83456055 -134.08544922 204.61865234 C-124.66723479 240.548964 -102.80616306 271.22421205 -70.6875 290.3125 C-60.71357964 296.13468598 -50.74623648 300.90047521 -39.6875 304.3125 C-38.73359375 304.60769531 -37.7796875 304.90289062 -36.796875 305.20703125 C-24.94347534 308.64451715 -13.37807008 309.69604683 -1.0625 309.625 C-0.35618439 309.62218018 0.35013123 309.61936035 1.07785034 309.61645508 C41.18002841 309.37624425 74.71169901 292.8726648 102.7734375 264.85546875 C109.24995268 258.00399742 114.39425519 250.32238674 119.3125 242.3125 C119.86019043 241.42135498 119.86019043 241.42135498 120.41894531 240.51220703 C137.440153 212.21425279 143.40971918 174.62463232 136.40625 142.36328125 C136.05202576 141.01026633 135.68668503 139.66013117 135.3125 138.3125 C135.09207031 137.51118652 134.87164062 136.70987305 134.64453125 135.88427734 C127.4985303 110.80238116 114.58569726 89.75009281 96.3125 71.3125 C95.53648437 70.52359375 94.76046875 69.7346875 93.9609375 68.921875 C68.21608207 44.32713338 33.88481952 33.10688476 -1.0625 33 C-1.7463678 32.99623352 -2.4302356 32.99246704 -3.13482666 32.98858643 C-40.83829971 32.88334848 -75.77752732 50.2294033 -101.734375 77.11328125 Z " fill="#145C9E" transform="translate(255.6875,84.6875)"/>
</svg>
