<?xml version="1.0" encoding="UTF-8"?>
<svg version="1.1" xmlns="http://www.w3.org/2000/svg" width="512" height="512">
<path d="M0 0 C0.97582031 -0.04253906 1.95164062 -0.08507812 2.95703125 -0.12890625 C12.01842887 1.81047389 18.91295013 11.00244932 25.23754883 17.35375977 C26.32703141 18.44052755 27.41693797 19.52687045 28.50723267 20.61282349 C31.44748754 23.5440135 34.38144469 26.48143041 37.31398606 29.42033505 C40.3911899 32.50262571 43.47329692 35.5800074 46.55461121 38.65818787 C51.72352064 43.82346709 56.88821737 48.99293036 62.05053711 54.16479492 C68.01466849 60.13982631 73.9859938 66.10759554 79.96107274 72.07167774 C85.10038368 77.20190947 90.23578293 82.33603237 95.36793917 87.47342151 C98.42925749 90.5378538 101.49190154 93.60092827 104.55808449 96.66049385 C107.43791657 99.5345433 110.31280186 102.41345153 113.18396378 105.29616165 C114.23719338 106.35203217 115.29212201 107.4062111 116.34887886 108.45855141 C117.79274396 109.89693787 119.22983107 111.34211854 120.6665802 112.78761292 C121.47197644 113.59376321 122.27737268 114.3999135 123.10717487 115.23049259 C126.86126574 119.43876158 128.63854923 122.70587103 128.75 128.375 C128.81380859 129.83873047 128.81380859 129.83873047 128.87890625 131.33203125 C126.93952611 140.39342887 117.74755068 147.28795013 111.39624023 153.61254883 C110.30947245 154.70203141 109.22312955 155.79193797 108.13717651 156.88223267 C105.2059865 159.82248754 102.26856959 162.75644469 99.32966495 165.68898606 C96.24737429 168.7661899 93.1699926 171.84829692 90.09181213 174.92961121 C84.92653291 180.09852064 79.75706964 185.26321737 74.58520508 190.42553711 C68.61017369 196.38966849 62.64240446 202.3609938 56.67832226 208.33607274 C51.54809053 213.47538368 46.41396763 218.61078293 41.27657849 223.74293917 C38.2121462 226.80425749 35.14907173 229.86690154 32.08950615 232.93308449 C29.2154567 235.81291657 26.33654847 238.68780186 23.45383835 241.55896378 C22.39796783 242.61219338 21.3437889 243.66712201 20.29144859 244.72387886 C18.85306213 246.16774396 17.40788146 247.60483107 15.96238708 249.0415802 C15.15623679 249.84697644 14.3500865 250.65237268 13.51950741 251.48217487 C9.31123842 255.23626574 6.04412897 257.01354923 0.375 257.125 C-1.08873047 257.18880859 -1.08873047 257.18880859 -2.58203125 257.25390625 C-11.64342887 255.31452611 -18.53795013 246.12255068 -24.86254883 239.77124023 C-25.95203141 238.68447245 -27.04193797 237.59812955 -28.13223267 236.51217651 C-31.07248754 233.5809865 -34.00644469 230.64356959 -36.93898606 227.70466495 C-40.0161899 224.62237429 -43.09829692 221.5449926 -46.17961121 218.46681213 C-51.34852064 213.30153291 -56.51321737 208.13206964 -61.67553711 202.96020508 C-67.63966849 196.98517369 -73.6109938 191.01740446 -79.58607274 185.05332226 C-84.72538368 179.92309053 -89.86078293 174.78896763 -94.99293917 169.65157849 C-98.05425749 166.5871462 -101.11690154 163.52407173 -104.18308449 160.46450615 C-107.06291657 157.5904567 -109.93780186 154.71154847 -112.80896378 151.82883835 C-113.86219338 150.77296783 -114.91712201 149.7187889 -115.97387886 148.66644859 C-117.41774396 147.22806213 -118.85483107 145.78288146 -120.2915802 144.33738708 C-121.09697644 143.53123679 -121.90237268 142.7250865 -122.73217487 141.89450741 C-126.48626574 137.68623842 -128.26354923 134.41912897 -128.375 128.75 C-128.41753906 127.77417969 -128.46007812 126.79835938 -128.50390625 125.79296875 C-126.56452611 116.73157113 -117.37255068 109.83704987 -111.02124023 103.51245117 C-109.93447245 102.42296859 -108.84812955 101.33306203 -107.76217651 100.24276733 C-104.8309865 97.30251246 -101.89356959 94.36855531 -98.95466495 91.43601394 C-95.87237429 88.3588101 -92.7949926 85.27670308 -89.71681213 82.19538879 C-84.55153291 77.02647936 -79.38206964 71.86178263 -74.21020508 66.69946289 C-68.23517369 60.73533151 -62.26740446 54.7640062 -56.30332226 48.78892726 C-51.17309053 43.64961632 -46.03896763 38.51421707 -40.90157849 33.38206083 C-37.8371462 30.32074251 -34.77407173 27.25809846 -31.71450615 24.19191551 C-28.8404567 21.31208343 -25.96154847 18.43719814 -23.07883835 15.56603622 C-22.02296783 14.51280662 -20.9687889 13.45787799 -19.91644859 12.40112114 C-18.47806213 10.95725604 -17.03288146 9.52016893 -15.58738708 8.0834198 C-14.78123679 7.27802356 -13.9750865 6.47262732 -13.14450741 5.64282513 C-8.93623842 1.88873426 -5.66912897 0.11145077 0 0 Z M-2.44854164 39.95244598 C-3.43025117 40.93692089 -3.43025117 40.93692089 -4.43179321 41.94128418 C-5.55920677 43.06457375 -5.55920677 43.06457375 -6.70939636 44.21055603 C-7.53442154 45.04277176 -8.35944672 45.87498749 -9.20947266 46.73242188 C-10.07783249 47.60048965 -10.94619232 48.46855743 -11.84086609 49.3629303 C-14.22654933 51.74977098 -16.60769843 54.14097434 -18.9869771 56.53418922 C-21.47248502 59.03217049 -23.96362975 61.52451704 -26.45419312 64.01745605 C-31.17200694 68.74149466 -35.88469795 73.47060996 -40.59558904 78.20155096 C-45.95798243 83.58627234 -51.32603258 88.96533912 -56.69457555 94.34392834 C-67.7402093 105.4104867 -78.77868468 116.48415738 -89.8125 127.5625 C-88.40436573 130.75213306 -86.73203332 132.8905734 -84.26913452 135.34637451 C-83.53435379 136.08390457 -82.79957306 136.82143463 -82.04252625 137.58131409 C-80.8330407 138.78001381 -80.8330407 138.78001381 -79.59912109 140.00292969 C-78.7502684 140.85207443 -77.90141571 141.70121918 -77.02684021 142.57609558 C-74.70211079 144.89967119 -72.37300655 147.21875126 -70.04188108 149.53590679 C-67.60528611 151.95999135 -65.17436129 154.38974848 -62.74282837 156.81890869 C-58.13927578 161.41624743 -53.53064913 166.00846453 -48.92017615 170.59886193 C-43.6708182 175.82585793 -38.42714448 181.05854043 -33.1839397 186.29170752 C-22.39977064 197.05497673 -11.60848816 207.81108507 -0.8125 218.5625 C2.37713306 217.15436573 4.5155734 215.48203332 6.97137451 213.01913452 C7.70890457 212.28435379 8.44643463 211.54957306 9.20631409 210.79252625 C10.00544724 209.98620255 10.80458038 209.17987885 11.62792969 208.34912109 C12.47707443 207.5002684 13.32621918 206.65141571 14.20109558 205.77684021 C16.52467119 203.45211079 18.84375126 201.12300655 21.16090679 198.79188108 C23.58499135 196.35528611 26.01474848 193.92436129 28.44390869 191.49282837 C33.04124743 186.88927578 37.63346453 182.28064913 42.22386193 177.67017615 C47.45085793 172.4208182 52.68354043 167.17714448 57.91670752 161.9339397 C68.67997673 151.14977064 79.43608507 140.35848816 90.1875 129.5625 C88.78057782 126.37905192 87.11126029 124.23519697 84.65759277 121.77862549 C83.92570236 121.04109543 83.19381195 120.30356537 82.43974304 119.54368591 C81.63656143 118.74455276 80.83337982 117.94541962 80.00585938 117.12207031 C79.16021927 116.27292557 78.31457916 115.42378082 77.4433136 114.54890442 C75.12687607 112.22517643 72.80599891 109.90600231 70.48274422 107.58909321 C68.05300505 105.16441945 65.62815142 102.73486776 63.20251465 100.30609131 C59.13062607 96.23056606 55.05454242 92.15927216 50.97607422 88.09033203 C46.2564265 83.38158289 41.54404675 78.66565217 36.83534956 73.94595456 C32.79397529 69.89551631 28.74873155 65.84897359 24.70020342 61.80568576 C22.2813465 59.38995157 19.86387242 56.97287522 17.44987488 54.55228424 C14.76109241 51.85845065 12.06603078 49.17106483 9.36914062 46.48535156 C8.56595901 45.67812149 7.7627774 44.87089142 6.93525696 44.03919983 C5.83742134 42.94982368 5.83742134 42.94982368 4.71740723 41.83843994 C4.08028053 41.2020673 3.44315384 40.56569466 2.78672028 39.91003799 C0.55279548 38.02768408 -0.22718579 38.06522957 -2.44854164 39.95244598 Z " fill="#FF6C37" transform="translate(255.8125,127.4375)"/>
<path d="M0 0 C3.5677811 2.35149209 5.84221079 4.99692157 7.75 8.8125 C7.8508203 10.35729322 7.8894168 11.90634643 7.89717102 13.45440674 C7.90790398 14.92220833 7.90790398 14.92220833 7.91885376 16.41966248 C7.92154266 17.49708206 7.92423157 18.57450165 7.92700195 19.68457031 C7.93357315 20.81639236 7.94014435 21.94821442 7.94691467 23.11433411 C7.96668234 26.87309835 7.97831801 30.63182258 7.98828125 34.390625 C7.99235678 35.67211174 7.9964323 36.95359848 8.00063133 38.27391815 C8.01935252 44.3565214 8.03391479 50.43910451 8.0422433 56.52173066 C8.05201104 63.53945591 8.07831711 70.55686535 8.11874419 77.57447934 C8.1525682 83.65494038 8.16439045 89.73526889 8.16844749 95.81581879 C8.17332469 98.40101004 8.18497067 100.98619765 8.20348549 103.57132721 C8.22778312 107.18875877 8.22692849 110.80536371 8.2199707 114.42285156 C8.23918579 116.02683556 8.23918579 116.02683556 8.25878906 117.66322327 C8.21767916 123.52327719 7.90492174 127.30722272 3.75 131.8125 C-0.874777 135.98711739 -6.57664456 135.24139416 -12.46264648 135.21655273 C-13.59490662 135.22341599 -14.72716675 135.23027924 -15.89373779 135.23735046 C-19.63631736 135.25565089 -23.37847904 135.25177616 -27.12109375 135.24609375 C-29.72274411 135.25065395 -32.32439326 135.25595904 -34.92604065 135.26197815 C-40.3792162 135.27091565 -45.83223132 135.26871255 -51.28540039 135.25854492 C-57.58110272 135.24706546 -63.87637896 135.26113808 -70.17202514 135.2879414 C-76.23811218 135.31279657 -82.30400309 135.31527192 -88.37013435 135.30882454 C-90.94693778 135.30867111 -93.52374932 135.31473346 -96.10052299 135.32711601 C-99.70332427 135.34198943 -103.30518712 135.33137433 -106.90795898 135.31420898 C-108.50487328 135.32871094 -108.50487328 135.32871094 -110.13404846 135.34350586 C-116.16383843 135.28333428 -119.65193786 134.82374933 -124.25 130.8125 C-127.79553678 126.77792366 -128.55939271 123.24284196 -128.4609375 117.8671875 C-127.97868069 113.16964894 -125.74665739 110.04292427 -122.3125 107 C-117.18110865 103.33472047 -112.50521415 103.67281557 -106.35058594 103.69897461 C-105.45267334 103.69882858 -104.55476074 103.69868256 -103.62963867 103.6985321 C-100.66452613 103.69922824 -97.69947656 103.70700671 -94.734375 103.71484375 C-92.67742955 103.71670899 -90.62048365 103.71813239 -88.5635376 103.71913147 C-83.15155815 103.7229483 -77.73960556 103.73277149 -72.32763672 103.74383545 C-66.80436568 103.75406748 -61.28109029 103.75863293 -55.7578125 103.76367188 C-44.9218632 103.77439448 -34.08593384 103.79146093 -23.25 103.8125 C-23.25999275 102.10694191 -23.25999275 102.10694191 -23.27018738 100.3669281 C-23.33105464 89.64106951 -23.37599967 78.91524605 -23.40543652 68.18925381 C-23.42107915 62.67516813 -23.44229201 57.16122211 -23.47631836 51.6472168 C-23.50896152 46.32392571 -23.52686357 41.0007688 -23.53463173 35.67738533 C-23.54016631 33.64844718 -23.55097402 31.6195162 -23.56719017 29.5906353 C-23.58903014 26.74442667 -23.59196416 23.89876945 -23.59057617 21.05249023 C-23.601362 20.21738922 -23.61214783 19.38228821 -23.6232605 18.5218811 C-23.59232693 12.64325767 -22.72173084 7.68331238 -18.75 3.0703125 C-12.73895208 -1.46928098 -7.10106749 -2.59462081 0 0 Z " fill="#FF6B37" transform="translate(504.25,377.1875)"/>
<path d="M0 0 C3.75081195 2.5005413 7.00596816 5.38433738 8.44170284 9.81805038 C9.09427607 13.43811656 8.94160982 17.10775183 8.92602539 20.77441406 C8.92617142 21.67232666 8.92631744 22.57023926 8.9264679 23.49536133 C8.92577176 26.46047387 8.91799329 29.42552344 8.91015625 32.390625 C8.90829101 34.44757045 8.90686761 36.50451635 8.90586853 38.5614624 C8.9020517 43.97344185 8.89222851 49.38539444 8.88116455 54.79736328 C8.87093252 60.32063432 8.86636707 65.84390971 8.86132812 71.3671875 C8.85060552 82.2031368 8.83353907 93.03906616 8.8125 103.875 C9.94953873 103.86833817 11.08657745 103.86167633 12.2580719 103.85481262 C22.98393049 103.79394536 33.70975395 103.74900033 44.43574619 103.71956348 C49.94983187 103.70392085 55.46377789 103.68270799 60.9777832 103.64868164 C66.30107429 103.61603848 71.6242312 103.59813643 76.94761467 103.59036827 C78.97655282 103.58483369 81.0054838 103.57402598 83.0343647 103.55780983 C85.88057333 103.53596986 88.72623055 103.53303584 91.57250977 103.53442383 C92.40761078 103.523638 93.24271179 103.51285217 94.1031189 103.5017395 C99.98174233 103.53267307 104.94168762 104.40326916 109.5546875 108.375 C113.40312676 113.4708644 114.47506214 117.52645002 113.8125 123.875 C111.85864079 129.22240414 108.90013713 132.33118143 103.8125 134.875 C102.26770678 134.9758203 100.71865357 135.0144168 99.17059326 135.02217102 C98.19205887 135.02932632 97.21352448 135.03648163 96.20533752 135.04385376 C95.12791794 135.04654266 94.05049835 135.04923157 92.94042969 135.05200195 C91.80860764 135.05857315 90.67678558 135.06514435 89.51066589 135.07191467 C85.75190165 135.09168234 81.99317742 135.10331801 78.234375 135.11328125 C76.95288826 135.11735678 75.67140152 135.1214323 74.35108185 135.12563133 C68.2684786 135.14435252 62.18589549 135.15891479 56.10326934 135.1672433 C49.08554409 135.17701104 42.06813465 135.20331711 35.05052066 135.24374419 C28.97005962 135.2775682 22.88973111 135.28939045 16.80918121 135.29344749 C14.22398996 135.29832469 11.63880235 135.30997067 9.05367279 135.32848549 C5.43624123 135.35278312 1.81963629 135.35192849 -1.79785156 135.3449707 C-3.40183556 135.36418579 -3.40183556 135.36418579 -5.03822327 135.38378906 C-10.89827719 135.34267916 -14.68222272 135.02992174 -19.1875 130.875 C-23.36211739 126.250223 -22.61639416 120.54835544 -22.59155273 114.66235352 C-22.59841599 113.53009338 -22.60527924 112.39783325 -22.61235046 111.23126221 C-22.63065089 107.48868264 -22.62677616 103.74652096 -22.62109375 100.00390625 C-22.62565395 97.40225589 -22.63095904 94.80060674 -22.63697815 92.19895935 C-22.64591565 86.7457838 -22.64371255 81.29276868 -22.63354492 75.83959961 C-22.62206546 69.54389728 -22.63613808 63.24862104 -22.6629414 56.95297486 C-22.68779657 50.88688782 -22.69027192 44.82099691 -22.68382454 38.75486565 C-22.68367111 36.17806222 -22.68973346 33.60125068 -22.70211601 31.02447701 C-22.71698943 27.42167573 -22.70637433 23.81981288 -22.68920898 20.21704102 C-22.69887695 19.15243149 -22.70854492 18.08782196 -22.71850586 16.99095154 C-22.65833428 10.96116157 -22.19874933 7.47306214 -18.1875 2.875 C-12.82692172 -1.83581122 -6.57593834 -2.32091942 0 0 Z " fill="#FF6B37" transform="translate(22.1875,377.125)"/>
<path d="M0 0 C0.97853439 -0.0071553 1.95706879 -0.01431061 2.96525574 -0.02168274 C4.04267532 -0.02437164 5.12009491 -0.02706055 6.23016357 -0.02983093 C7.92789665 -0.03968773 7.92789665 -0.03968773 9.65992737 -0.04974365 C13.41869161 -0.06951132 17.17741584 -0.08114699 20.93621826 -0.09111023 C22.217705 -0.09518576 23.49919174 -0.09926128 24.81951141 -0.10346031 C30.90211466 -0.1221815 36.98469778 -0.13674377 43.06732392 -0.14507228 C50.08504917 -0.15484002 57.10245861 -0.18114609 64.1200726 -0.22157317 C70.20053365 -0.25539718 76.28086215 -0.26721943 82.36141205 -0.27127647 C84.9466033 -0.27615367 87.53179092 -0.28779965 90.11692047 -0.30631447 C93.73435203 -0.3306121 97.35095697 -0.32975747 100.96844482 -0.32279968 C102.03776749 -0.33560974 103.10709015 -0.3484198 104.20881653 -0.36161804 C110.06887046 -0.32050814 113.85281599 -0.00775072 118.35809326 4.14717102 C122.53271065 8.77194802 121.78698743 14.47381558 121.762146 20.3598175 C121.76900925 21.49207764 121.7758725 22.62433777 121.78294373 23.79090881 C121.80124415 27.53348838 121.79736942 31.27565006 121.79168701 35.01826477 C121.79624721 37.61991513 121.8015523 40.22156428 121.80757141 42.82321167 C121.81650891 48.27638722 121.81430581 53.72940234 121.80413818 59.18257141 C121.79265872 65.47827374 121.80673134 71.77354998 121.83353466 78.06919616 C121.85838983 84.1352832 121.86086518 90.20117411 121.8544178 96.26730537 C121.85426437 98.8441088 121.86032672 101.42092034 121.87270927 103.99769402 C121.88758269 107.60049529 121.8769676 111.20235814 121.85980225 114.80513 C121.8743042 116.4020443 121.8743042 116.4020443 121.88909912 118.03121948 C121.82892754 124.06100945 121.36934259 127.54910888 117.35809326 132.14717102 C113.32351692 135.6927078 109.78843522 136.45656373 104.41278076 136.35810852 C99.7152422 135.87585171 96.58851753 133.64382841 93.54559326 130.20967102 C89.88031373 125.07827967 90.21840883 120.40238517 90.24456787 114.24775696 C90.24442184 113.34984436 90.24427582 112.45193176 90.24412537 111.52680969 C90.24482151 108.56169715 90.25259997 105.59664758 90.26043701 102.63154602 C90.26230225 100.57460057 90.26372565 98.51765467 90.26472473 96.46070862 C90.26854156 91.04872917 90.27836476 85.63677658 90.28942871 80.22480774 C90.29966074 74.7015367 90.3042262 69.17826131 90.30926514 63.65498352 C90.31998775 52.81903422 90.33705419 41.98310486 90.35809326 31.14717102 C88.66799637 31.15383286 88.66799637 31.15383286 86.9437561 31.16062927 C76.3205809 31.20118896 65.69742142 31.23116199 55.07418633 31.25079536 C49.61279953 31.26122841 44.1514753 31.27537897 38.69012451 31.29804993 C33.41871654 31.31979522 28.14736871 31.33174326 22.87591934 31.33692551 C20.86570413 31.34061822 18.85549217 31.34782914 16.84530258 31.35863113 C14.02771667 31.37316835 11.21037867 31.37514801 8.39276123 31.3742218 C7.56341568 31.38141235 6.73407013 31.38860291 5.8795929 31.39601135 C-1.87103228 31.36847805 -6.95595297 29.70389857 -12.64190674 24.14717102 C-15.05271741 20.0926258 -15.22225609 15.76276196 -14.64190674 11.14717102 C-12.08326381 4.14456932 -7.45392066 0.03733664 0 0 Z " fill="#FF6B37" transform="translate(390.64190673828125,-0.1471710205078125)"/>
<path d="M0 0 C1.13226013 -0.00686325 2.26452026 -0.0137265 3.43109131 -0.02079773 C7.17367088 -0.03909816 10.91583255 -0.03522343 14.65844727 -0.02954102 C17.26009762 -0.03410122 19.86174677 -0.03940631 22.46339417 -0.04542542 C27.91656972 -0.05436292 33.36958484 -0.05215982 38.82275391 -0.04199219 C45.11845623 -0.03051273 51.41373248 -0.04458535 57.70937866 -0.07138866 C63.77546569 -0.09624383 69.8413566 -0.09871918 75.90748787 -0.0922718 C78.48429129 -0.09211837 81.06110284 -0.09818072 83.63787651 -0.11056328 C87.24067779 -0.12543669 90.84254063 -0.1148216 94.4453125 -0.09765625 C96.04222679 -0.1121582 96.04222679 -0.1121582 97.67140198 -0.12695312 C103.70119194 -0.06678155 107.18929137 0.39280341 111.78735352 4.40405273 C115.3328903 8.43862907 116.09674623 11.97371077 115.99829102 17.34936523 C115.51959368 22.01223183 113.29779078 25.16267891 109.91235352 28.21655273 C104.55031364 31.96998064 99.18668571 31.5448596 92.86621094 31.51757812 C91.97790588 31.51772415 91.08960083 31.51787018 90.17437744 31.51802063 C87.24716728 31.51732566 84.32002127 31.50955274 81.39282227 31.50170898 C79.35972631 31.49984333 77.3266299 31.49842012 75.29353333 31.49742126 C69.9489721 31.49360772 64.60443816 31.48378736 59.2598877 31.47271729 C53.80355193 31.46247817 48.34721175 31.45791828 42.89086914 31.45288086 C32.1896853 31.44216405 21.48852168 31.42510158 10.78735352 31.40405273 C10.79401535 32.54109146 10.80067719 33.67813019 10.80754089 34.84962463 C10.86840816 45.57548323 10.91335318 56.30130668 10.94279003 67.02729893 C10.95843266 72.5413846 10.97964553 78.05533063 11.01367188 83.56933594 C11.04631503 88.89262702 11.06421708 94.21578394 11.07198524 99.5391674 C11.07751983 101.56810556 11.08832753 103.59703654 11.10454369 105.62591743 C11.12638366 108.47212607 11.12931767 111.31778329 11.12792969 114.1640625 C11.13871552 114.99916351 11.14950134 115.83426453 11.16061401 116.69467163 C11.12968045 122.57329506 10.25908435 127.53324036 6.28735352 132.14624023 C1.19148911 135.9946795 -2.8640965 137.06661488 -9.21264648 136.40405273 C-14.56005063 134.45019353 -17.66882792 131.49168987 -20.21264648 126.40405273 C-20.31346678 124.85925951 -20.35206328 123.3102063 -20.3598175 121.762146 C-20.37055046 120.29434441 -20.37055046 120.29434441 -20.38150024 118.79689026 C-20.38418915 117.71947067 -20.38687805 116.64205109 -20.38964844 115.53198242 C-20.39621964 114.40016037 -20.40279083 113.26833832 -20.40956116 112.10221863 C-20.42932882 108.34345438 -20.44096449 104.58473016 -20.45092773 100.82592773 C-20.45500326 99.54444099 -20.45907879 98.26295425 -20.46327782 96.94263458 C-20.48199901 90.86003134 -20.49656128 84.77744822 -20.50488979 78.69482207 C-20.51465753 71.67709682 -20.5409636 64.65968739 -20.58139068 57.64207339 C-20.61521469 51.56161235 -20.62703694 45.48128385 -20.63109398 39.40073395 C-20.63597118 36.81554269 -20.64761716 34.23035508 -20.66613197 31.64522552 C-20.69042961 28.02779397 -20.68957497 24.41118903 -20.68261719 20.79370117 C-20.69542725 19.72437851 -20.7082373 18.65505585 -20.72143555 17.55332947 C-20.68032565 11.69327554 -20.36756823 7.90933001 -16.21264648 3.40405273 C-11.58786948 -0.77056466 -5.88600192 -0.02484143 0 0 Z " fill="#FF6B37" transform="translate(20.212646484375,-0.404052734375)"/>
</svg>
