<?xml version="1.0" encoding="UTF-8"?>
<svg version="1.1" xmlns="http://www.w3.org/2000/svg" width="512" height="512">
<path d="M0 0 C0.81968061 -0.00367669 1.63936122 -0.00735338 2.48388064 -0.01114148 C5.24606542 -0.02220448 8.00821261 -0.02602655 10.77041626 -0.02983093 C12.7444928 -0.03609351 14.71856816 -0.04274012 16.69264221 -0.04974365 C22.0665838 -0.06717026 27.44051649 -0.07770951 32.81447935 -0.08594918 C36.16907247 -0.09109484 39.52366279 -0.0971707 42.87825394 -0.10346031 C53.36582346 -0.12251531 63.85338593 -0.13674691 74.34096944 -0.14507228 C86.46272041 -0.15485287 98.58428916 -0.18119259 110.70597589 -0.22157317 C120.06566317 -0.25168725 129.42529807 -0.2665366 138.78503287 -0.26985329 C144.37993736 -0.27220879 149.97464727 -0.28123414 155.56949997 -0.30631447 C160.83080732 -0.32951848 166.09179089 -0.33385942 171.35313606 -0.32355309 C173.28653729 -0.32305577 175.21995404 -0.32943342 177.15330696 -0.34310913 C179.78838828 -0.36070905 182.42229252 -0.35378124 185.05737305 -0.34057617 C186.21097055 -0.35703004 186.21097055 -0.35703004 187.38787305 -0.37381631 C190.86278943 -0.33163472 192.78230904 -0.13938498 195.57747841 2.00591755 C197.48566668 4.59490253 198.57225203 7.07206032 199.71426392 10.08076477 C200.17574829 11.27226135 200.63723267 12.46375793 201.11270142 13.69136047 C201.35327271 14.32482391 201.59384399 14.95828735 201.84170532 15.61094666 C203.13637196 19.01139195 204.47157304 22.39577991 205.80801392 25.77998352 C206.08297699 26.4770491 206.35794006 27.17411469 206.64123535 27.89230347 C211.38066923 39.83079331 216.75812319 51.49453829 222.15567017 63.14717102 C222.66630005 64.24964172 223.17692993 65.35211243 223.70303345 66.48799133 C230.18566858 80.40346463 237.11149582 94.00717326 244.61709595 107.39814758 C246.19197341 110.21203527 247.75051419 113.034571 249.30801392 115.85810852 C265.06422924 144.26053897 282.92053118 172.54051401 304.09317017 197.27217102 C304.53765503 197.79214661 304.98213989 198.31212219 305.44009399 198.84785461 C307.40469742 201.13538116 309.38586125 203.40593477 311.39004517 205.65888977 C314.35033894 209.14611583 316.56787809 211.77970576 316.84317017 216.45967102 C316.05823374 220.66978459 315.56803417 221.66813333 312.15567017 224.14717102 C309.24496536 224.53908156 306.71350002 224.68473044 303.80349731 224.65053558 C302.94913999 224.65634935 302.09478266 224.66216311 301.21453571 224.66815305 C298.33200152 224.68283074 295.4503085 224.66883168 292.56777954 224.65510559 C290.48827426 224.65971143 288.40877222 224.6660622 286.32927704 224.67401457 C280.59955573 224.69077449 274.87009954 224.68243127 269.14037704 224.67006969 C262.96715207 224.66104873 256.79397385 224.67497422 250.62075806 224.68598938 C239.22128332 224.70277988 227.82191714 224.70128003 216.42244506 224.69034351 C205.89234888 224.68029037 195.36228383 224.67765023 184.83218384 224.68243408 C184.13432052 224.68273962 183.4364572 224.68304516 182.71744651 224.68335996 C179.88475527 224.68460527 177.05206404 224.68587886 174.21937284 224.68719902 C147.63409076 224.69944134 121.0488628 224.68833116 94.46358907 224.66681143 C70.83227462 224.6478283 47.20104637 224.64952678 23.56973267 224.6686554 C-2.96620762 224.69006328 -29.50210007 224.6985732 -56.03804779 224.68620634 C-58.86564635 224.68492343 -61.69324492 224.68367207 -64.52084351 224.68243408 C-65.21709565 224.68211777 -65.9133478 224.68180146 -66.6306985 224.68147557 C-77.15545395 224.67692127 -87.68017487 224.68225497 -98.20492554 224.69235229 C-110.16930293 224.70377339 -122.13357847 224.70057792 -134.09795189 224.67922932 C-140.20673785 224.66868973 -146.31534849 224.66464654 -152.4241333 224.67782593 C-158.01011618 224.68969546 -163.59576026 224.68327741 -169.18171215 224.66191572 C-171.20856483 224.6574265 -173.2354458 224.65976745 -175.26228046 224.66941887 C-178.00598634 224.68148741 -180.74851388 224.66920563 -183.49215698 224.65053558 C-184.68756497 224.66458258 -184.68756497 224.66458258 -185.90712261 224.67891335 C-189.47947924 224.62993537 -191.45592826 224.44469187 -194.33313751 222.24071074 C-195.97057188 219.97228081 -196.38753582 218.91235411 -196.34432983 216.14717102 C-196.35979858 215.15717102 -196.35979858 215.15717102 -196.37557983 214.14717102 C-195.5380303 210.99404337 -194.56957784 209.99120111 -191.84432983 208.14717102 C-188.41129376 207.65717208 -185.05298225 207.77218614 -181.59432983 207.89717102 C-178.37682983 207.97967102 -175.15932983 208.06217102 -171.84432983 208.14717102 C-172.33932983 193.79217102 -172.33932983 193.79217102 -172.84432983 179.14717102 C-174.82432983 181.45717102 -176.80432983 183.76717102 -178.84432983 186.14717102 C-181.69757421 187.57379321 -183.67887532 187.4575097 -186.84432983 187.14717102 C-189.71932983 185.70967102 -189.71932983 185.70967102 -191.84432983 183.14717102 C-192.88125323 178.97429343 -192.53104258 175.42435739 -190.49423218 171.63618469 C-188.62126125 168.9876189 -186.64976316 166.46912336 -184.59432983 163.95967102 C-183.23386619 162.2378744 -181.87446284 160.51523937 -180.51620483 158.79170227 C-179.87747437 157.98813293 -179.2387439 157.1845636 -178.58065796 156.35664368 C-174.08657003 150.92159199 -174.08657003 150.92159199 -172.84432983 144.14717102 C-173.37220093 144.88773743 -173.37220093 144.88773743 -173.91073608 145.64326477 C-176.59672533 149.12873906 -178.11079321 150.91552787 -182.40682983 152.27217102 C-186.51501379 152.12278251 -188.93571755 151.0557833 -191.84432983 148.14717102 C-192.70901496 141.01879124 -191.43676983 137.60069075 -187.11190796 131.94404602 C-186.14414429 130.7452179 -186.14414429 130.7452179 -185.15682983 129.52217102 C-183.90272486 127.90513762 -182.64881533 126.28795263 -181.39511108 124.67060852 C-180.49079346 123.52169128 -180.49079346 123.52169128 -179.56820679 122.3495636 C-174.83345988 116.82790068 -174.83345988 116.82790068 -172.53182983 110.20967102 C-172.63495483 109.52904602 -172.73807983 108.84842102 -172.84432983 108.14717102 C-173.3509314 108.88773743 -173.3509314 108.88773743 -173.86776733 109.64326477 C-174.31378296 110.28392883 -174.75979858 110.9245929 -175.21932983 111.58467102 C-175.66018921 112.22275696 -176.10104858 112.8608429 -176.55526733 113.51826477 C-177.84432983 115.14717102 -177.84432983 115.14717102 -179.84432983 116.14717102 C-186.89646254 116.7158914 -186.89646254 116.7158914 -190.34432983 114.64717102 C-192.4139621 111.1977839 -192.42387627 108.03375428 -191.84432983 104.14717102 C-190.50843653 101.66453744 -189.32184417 99.80648308 -187.59432983 97.64717102 C-186.67633646 96.44406481 -185.75836883 95.24093895 -184.84042358 94.03779602 C-184.35299683 93.41195618 -183.86557007 92.78611633 -183.3633728 92.14131165 C-181.76987586 90.04943074 -180.25856515 87.91348156 -178.75448608 85.75654602 C-177.72220506 84.30322845 -176.68965826 82.85009962 -175.65682983 81.39717102 C-175.1827771 80.70558899 -174.70872437 80.01400696 -174.2203064 79.3014679 C-171.76868171 75.93027304 -170.20980529 74.31906317 -166.35604858 72.50654602 C-161.89753488 72.05027988 -160.46953732 72.49561769 -156.84432983 75.14717102 C-154.29891034 78.01011575 -152.10257416 81.0739656 -149.90682983 84.20967102 C-149.29436401 85.06858948 -148.68189819 85.92750793 -148.0508728 86.81245422 C-146.84710471 88.50250107 -145.64772421 90.19568353 -144.45321655 91.89228821 C-143.13205292 93.7439221 -141.7821699 95.55266618 -140.37948608 97.34248352 C-137.5781936 100.99733957 -135.45566056 103.83479765 -135.15682983 108.52217102 C-135.84432983 112.14717102 -135.84432983 112.14717102 -137.34432983 114.64717102 C-140.81907647 116.732019 -143.95726586 117.05904686 -147.84432983 116.14717102 C-150.8815518 113.70418814 -152.68857417 111.38080452 -154.84432983 108.14717102 C-155.18304923 112.32455744 -154.48761429 114.23767986 -151.95761108 117.54560852 C-151.34852905 118.35513977 -150.73944702 119.16467102 -150.11190796 119.99873352 C-149.46673218 120.8314679 -148.8215564 121.66420227 -148.15682983 122.52217102 C-146.90258134 124.17555729 -145.6486695 125.82919899 -144.39511108 127.48310852 C-141.85009413 130.8281988 -141.85009413 130.8281988 -139.28915405 134.16108704 C-135.70106442 138.94115871 -135.07634552 141.29129063 -135.84432983 147.14717102 C-136.90682983 149.58467102 -136.90682983 149.58467102 -138.84432983 151.14717102 C-142.63994054 152.20150733 -144.86563101 152.5568589 -148.53182983 151.02217102 C-151.06596304 148.96746842 -152.92490146 146.77749879 -154.84432983 144.14717102 C-154.56809449 150.39206297 -151.36085859 153.92390075 -147.59432983 158.58467102 C-145.33941796 161.43498097 -143.08720902 164.28738123 -140.84432983 167.14717102 C-140.34433472 167.78388733 -139.8443396 168.42060364 -139.32919312 169.07661438 C-136.13054194 173.316169 -135.04017529 175.91843324 -135.35995483 181.12373352 C-135.84432983 183.14717102 -135.84432983 183.14717102 -137.96932983 185.70967102 C-141.39874953 187.42438087 -143.0634287 187.84162225 -146.84432983 187.14717102 C-150.25687746 184.71901213 -152.52113747 182.63195957 -154.84432983 179.14717102 C-155.17432983 188.71717102 -155.50432983 198.28717102 -155.84432983 208.14717102 C-139.08774964 209.81865815 -139.08774964 209.81865815 -123.66464233 204.23310852 C-120.99301884 201.15974648 -118.93647725 197.76014534 -116.99179077 194.19160461 C-115.54866155 191.62037821 -113.8571071 189.31194412 -112.09579468 186.9523468 C-110.8282637 185.25060116 -109.6054575 183.5239809 -108.39120483 181.78388977 C-106.62413471 179.25527031 -104.8420753 176.73834755 -103.04745483 174.22920227 C-82.25488304 145.09736372 -63.12640227 114.7930482 -46.03720093 83.3405304 C-45.24215174 81.87865527 -44.4429938 80.41900722 -43.63973999 78.96162415 C-32.45436111 58.63439235 -23.34402637 37.46880442 -15.78182983 15.54560852 C-10.32869053 -0.00246174 -10.32869053 -0.00246174 0 0 Z M-4.84432983 194.14717102 C-7.81432983 201.07717102 -7.81432983 201.07717102 -10.84432983 208.14717102 C-6.22432983 208.14717102 -1.60432983 208.14717102 3.15567017 208.14717102 C1.17567017 203.52717102 -0.80432983 198.90717102 -2.84432983 194.14717102 C-3.50432983 194.14717102 -4.16432983 194.14717102 -4.84432983 194.14717102 Z " fill="#2D4356" transform="translate(195.84432983398438,195.8528289794922)"/>
<path d="M0 0 C58.41 0 116.82 0 177 0 C184 18 184 18 184 20 C182.9815802 20.00364563 181.9631604 20.00729126 180.91387939 20.01104736 C171.32000797 20.04797566 161.72645816 20.10572444 152.13283157 20.18390274 C147.20051993 20.22342569 142.26838811 20.25559048 137.3359375 20.27099609 C132.57653152 20.28613102 127.81761975 20.32051999 123.05843353 20.36830902 C121.24199466 20.38315555 119.42548525 20.39104289 117.6089859 20.39188385 C115.06593529 20.39424548 112.52425943 20.42125855 109.98144531 20.45410156 C109.22906586 20.4490712 108.4766864 20.44404083 107.70150757 20.43885803 C104.21702791 20.50856579 102.32466971 20.75381171 99.51190186 22.88665771 C97.80206173 24.88872708 97.80206173 24.88872708 97.828125 27.359375 C98.03695312 28.54273438 98.03695312 28.54273438 98.25 29.75 C98.44335938 30.94882813 98.44335938 30.94882813 98.640625 32.171875 C98.81851563 33.07679688 98.81851563 33.07679688 99 34 C102.84773857 35.28257952 106.49885763 35.17721415 110.51049805 35.20532227 C111.37900391 35.21522186 112.24750977 35.22512146 113.14233398 35.23532104 C116.01543443 35.26692944 118.88855142 35.29169092 121.76171875 35.31640625 C123.75283744 35.33697634 125.74395177 35.35797283 127.73506165 35.37937927 C132.97767608 35.43459421 138.22032988 35.48400608 143.4630127 35.53222656 C148.81196602 35.58244577 154.16086211 35.63812965 159.50976562 35.69335938 C170.00646154 35.8009339 180.50320712 35.90238048 191 36 C192.17154293 38.28929053 193.33738074 40.58118362 194.5 42.875 C194.83386719 43.52597656 195.16773438 44.17695313 195.51171875 44.84765625 C198 49.7734375 198 49.7734375 198 52 C196.93040039 52.0093457 195.86080078 52.01869141 194.75878906 52.02832031 C190.7850603 52.06823512 186.81210456 52.13399721 182.83886719 52.20751953 C181.12021831 52.23572067 179.40143995 52.25693954 177.68261719 52.27099609 C175.20961253 52.29243833 172.73816325 52.33909156 170.265625 52.390625 C169.11540863 52.39246796 169.11540863 52.39246796 167.94195557 52.39434814 C164.39151204 52.49152403 162.36616098 52.72373825 159.49414062 54.890625 C157.80340597 56.89205008 157.80340597 56.89205008 157.828125 59.359375 C158.03695312 60.54273438 158.03695312 60.54273438 158.25 61.75 C158.44335938 62.94882812 158.44335938 62.94882812 158.640625 64.171875 C158.75921875 64.77515625 158.8778125 65.3784375 159 66 C161.76170144 66.92056715 163.52178855 67.14800149 166.37963867 67.20532227 C167.26032516 67.22526749 168.14101166 67.24521271 169.04838562 67.26576233 C169.99534805 67.28247482 170.94231049 67.29918732 171.91796875 67.31640625 C172.89034988 67.33718735 173.86273102 67.35796844 174.86457825 67.37937927 C177.97214665 67.44478748 181.07979985 67.50371929 184.1875 67.5625 C186.29362858 67.60569351 188.39974856 67.64930807 190.50585938 67.69335938 C195.67048591 67.80045999 200.83519778 67.90175219 206 68 C206.27314529 68.51992523 206.54629059 69.03985046 206.82771301 69.57553101 C221.6654756 97.81200149 236.82884431 125.73036423 255 152 C255.49064941 152.7105957 255.98129883 153.42119141 256.48681641 154.15332031 C263.27047726 163.94385263 270.30493079 173.53085537 277.52124023 183.00634766 C279.72235568 185.97387427 281.85247444 188.99346422 284 192 C248.69 192 213.38 192 177 192 C176.67 178.14 176.34 164.28 176 150 C175.67 148.68 175.34 147.36 175 146 C170.89139752 144.8607481 166.89538034 144.80206497 162.65625 144.76171875 C161.44708923 144.74961113 161.44708923 144.74961113 160.21350098 144.73725891 C158.51231007 144.72345696 156.81109191 144.71271749 155.10986328 144.70483398 C153.36987195 144.69327745 151.62991706 144.67276801 149.89013672 144.64331055 C147.37442978 144.60072387 144.85977217 144.58448162 142.34375 144.57421875 C141.17954529 144.54795662 141.17954529 144.54795662 139.99182129 144.52116394 C136.71661803 144.53433384 134.38322478 144.78175175 131.51660156 146.41430664 C129.16853063 150.41759371 129.39672074 154.2327676 129.390625 158.796875 C129.37408875 159.74564514 129.35755249 160.69441528 129.34051514 161.67193604 C129.29198561 164.69802288 129.27065305 167.72360701 129.25 170.75 C129.22184449 172.80341078 129.19191765 174.85679808 129.16015625 176.91015625 C129.08622516 181.94006279 129.03668067 186.96968944 129 192 C109.35283375 193.30341642 109.35283375 193.30341642 104.25 190.4765625 C102.1417011 187.79412863 100.6275328 185.0018188 99 182 C97.43609632 179.70645252 95.81375288 177.4604926 94.18896484 175.2097168 C70.20859252 141.86634849 48.49894591 106.67092695 30 70 C29.26845412 68.56368749 28.53669874 67.12748165 27.8046875 65.69140625 C26.16405474 62.45832493 24.55427269 59.21121554 22.9609375 55.95458984 C22.31313173 54.63692394 21.65934529 53.32218361 21 52.01025391 C15.33821896 40.73762642 10.55908747 29.1656412 5.9375 17.4375 C5.49393661 16.31470139 5.49393661 16.31470139 5.04141235 15.16921997 C4.19856462 13.03002669 3.3615793 10.88865846 2.52734375 8.74609375 C2.27155548 8.09486542 2.01576721 7.44363708 1.75222778 6.77267456 C0 2.23325159 0 2.23325159 0 0 Z " fill="#FB775D" transform="translate(203,212)"/>
<path d="M0 0 C3.29580603 2.43633937 5.58118077 5.73315212 8 9 C8.55623047 9.74008301 9.11246094 10.48016602 9.68554688 11.24267578 C24.93064828 31.55481377 24.93064828 31.55481377 24 39 C22.9375 41.4375 22.9375 41.4375 21 43 C17.20438929 44.05433631 14.97869882 44.40968788 11.3125 42.875 C8.77836679 40.8202974 6.91942837 38.63032777 5 36 C5.27623535 42.24489195 8.48347124 45.77672973 12.25 50.4375 C14.50491187 53.28780995 16.75712082 56.14021021 19 59 C19.49999512 59.63671631 19.99999023 60.27343262 20.51513672 60.92944336 C23.71378789 65.16899798 24.80415454 67.77126222 24.484375 72.9765625 C24 75 24 75 21.875 77.5625 C18.4455803 79.27720985 16.78090113 79.69445123 13 79 C9.58745237 76.57184111 7.32319237 74.48478855 5 71 C4.54120667 74.5152616 4.90475241 75.8536488 6.87109375 78.875 C7.71636594 79.92495769 8.57251683 80.96622036 9.4375 82 C10.35233806 83.14808711 11.26504391 84.29787597 12.17578125 85.44921875 C12.64322754 86.03493652 13.11067383 86.6206543 13.59228516 87.22412109 C24.5138849 101.00208095 24.5138849 101.00208095 24.8125 106.5625 C24 110 24 110 22.5 112.5 C19.02525336 114.58484798 15.88706397 114.91187584 12 114 C8.96277803 111.55701712 7.15575567 109.2336335 5 106 C4.67 115.24 4.34 124.48 4 134 C-1.6286293 128.3713707 -1.6286293 128.3713707 -4.04296875 124.71484375 C-4.55923828 123.93689453 -5.07550781 123.15894531 -5.60742188 122.35742188 C-6.12884766 121.55884766 -6.65027344 120.76027344 -7.1875 119.9375 C-7.72052734 119.13505859 -8.25355469 118.33261719 -8.80273438 117.50585938 C-12.70475091 111.59148212 -12.70475091 111.59148212 -14.02563477 108.9453125 C-15.93082729 105.14161066 -18.59052076 101.67516803 -21.07421875 98.22070312 C-24.12812483 93.69838534 -24.12812483 93.69838534 -23.5234375 90.40234375 C-21.14207708 86.64712154 -18.43237809 83.20614448 -15.6796875 79.71875 C-13.8724342 76.79352141 -13.62218928 75.36373415 -14 72 C-14.78375 72.969375 -15.5675 73.93875 -16.375 74.9375 C-18.73287314 77.85381678 -19.95997676 78.88444186 -23.8125 79.3125 C-27.79519718 78.92203949 -29.26967749 77.88634094 -32 75 C-33.46701492 71.607528 -33.08221864 70.22389181 -31.80078125 66.734375 C-30.1112363 62.94700314 -27.78254523 59.77625093 -25.1875 56.5625 C-24.74680176 56.00046875 -24.30610352 55.4384375 -23.85205078 54.859375 C-21.92838101 52.40632598 -19.98029283 49.97580161 -18.01171875 47.55859375 C-17.47160156 46.87925781 -16.93148438 46.19992187 -16.375 45.5 C-15.90835937 44.9328125 -15.44171875 44.365625 -14.9609375 43.78125 C-13.6987346 41.44155682 -13.82977786 39.61604552 -14 37 C-14.680625 37.969375 -15.36125 38.93875 -16.0625 39.9375 C-18.2736512 42.58085922 -19.00284019 43.0008622 -22.5 44.0625 C-26.48855507 43.9912758 -28.05874372 43.6891486 -31 41 C-32.5 37.6875 -32.5 37.6875 -33 34 C-30.68838474 28.01488761 -26.49147656 23.11205867 -22.625 18.0625 C-21.30396327 16.32476907 -19.98363693 14.58649785 -18.6640625 12.84765625 C-18.03661133 12.02410645 -17.40916016 11.20055664 -16.76269531 10.35205078 C-15.17988727 8.24003241 -13.65536191 6.10000488 -12.1484375 3.93359375 C-8.93393305 -0.45566596 -5.27462986 -1.34691441 0 0 Z " fill="#2C4255" transform="translate(488,224)"/>
<path d="M0 0 C0.33 0 0.66 0 1 0 C1.12817244 7.25485068 1.2149186 14.50940301 1.2746582 21.76513672 C1.29959695 24.22651072 1.3335605 26.68781226 1.37719727 29.14892578 C1.62238568 43.34677739 1.61000924 55.79152128 -4 69 C-4.3503833 69.8976709 -4.7007666 70.7953418 -5.06176758 71.72021484 C-5.98785948 74.0044355 -6.98985495 76.21879308 -8.0625 78.4375 C-8.44188721 79.22479492 -8.82127441 80.01208984 -9.2121582 80.82324219 C-18.42011778 99.26501085 -32.32486994 114.42416367 -47.6953125 127.94921875 C-48.45585937 128.62597656 -49.21640625 129.30273438 -50 130 C-50.76570313 130.65097656 -51.53140625 131.30195313 -52.3203125 131.97265625 C-54.21966144 133.86597036 -54.21966144 133.86597036 -54.171875 136.359375 C-54.03265625 137.14828125 -53.8934375 137.9371875 -53.75 138.75 C-53.62109375 139.54921875 -53.4921875 140.3484375 -53.359375 141.171875 C-53.24078125 141.77515625 -53.1221875 142.3784375 -53 143 C-52.31550781 143.23589844 -51.63101563 143.47179687 -50.92578125 143.71484375 C-47.38333116 145.27087323 -44.3338571 147.34216104 -41.1875 149.5625 C-40.59001953 149.97435547 -39.99253906 150.38621094 -39.37695312 150.81054688 C-37.8968441 151.84408586 -36.44546837 152.91854416 -35 154 C-35 154.33 -35 154.66 -35 155 C-54.47 155 -73.94 155 -94 155 C-90.25340685 149.38011027 -86.53392659 143.95931157 -82.4375 138.625 C-75.62394419 129.64173435 -69.29369098 120.35161943 -63 111 C-62.12636325 109.709594 -61.25266925 108.41922677 -60.37890625 107.12890625 C-37.36790848 73.0155918 -17.35274845 37.2899488 0 0 Z " fill="#E0EAF3" transform="translate(183,249)"/>
<path d="M0 0 C1.92954772 2.89432158 3.29206282 5.67361473 4.73046875 8.8359375 C5.27832031 10.0307373 5.82617188 11.22553711 6.390625 12.45654297 C6.82858398 13.41291656 6.82858398 13.41291656 7.27539062 14.38861084 C18.56791199 38.98143122 31.00609274 62.82284698 45 86 C45.52239258 86.86963379 46.04478516 87.73926758 46.58300781 88.63525391 C58.23678309 107.97376505 70.64274578 127.03210718 84.0546875 145.203125 C86.23584653 148.33908858 88.10479327 151.68338822 90 155 C72.18 155 54.36 155 36 155 C40.13316958 150.86683042 44.31615462 148.10522724 49.22265625 145 C51.80364443 143.1413981 53.40679862 141.72883973 55 139 C55 135.29025138 54.45151964 133.53891054 52.0625 130.6875 C51.05399452 129.77781062 50.03069776 128.88446604 49 128 C45.6529223 125.01508429 42.31932165 122.01575551 39 119 C38.25363281 118.32195312 37.50726563 117.64390625 36.73828125 116.9453125 C19.21642341 100.27280863 0.35815617 71.40956484 -0.45410156 46.65893555 C-0.45348194 44.48476041 -0.43171416 42.31050567 -0.390625 40.13671875 C-0.38496521 38.97872269 -0.37930542 37.82072662 -0.37347412 36.62763977 C-0.35133733 32.98048026 -0.30118394 29.33435539 -0.25 25.6875 C-0.22990568 23.1933737 -0.2116601 20.69923179 -0.1953125 18.20507812 C-0.15154738 12.13637421 -0.08486742 6.06826105 0 0 Z " fill="#E0EAF3" transform="translate(200,249)"/>
<path d="M0 0 C2.63560031 2.43668708 4.27771875 4.38859377 5 8 C4.81577304 11.07044927 4.50251421 13.19039376 2.875 15.8125 C-0.06664681 17.67554298 -2.55052696 17.88105265 -6 18 C-8.375 16.9375 -8.375 16.9375 -11 15 C-18.74062032 9.39215175 -25.11228419 6.13265651 -35 7 C-41.56034882 8.4142781 -47.33350298 11.0996698 -52 16 C-57.12408913 24.162941 -58.83100571 31.41417356 -58 41 C-56.39914396 47.3942764 -53.31866362 52.08867177 -49.2734375 57.19140625 C-47.42924279 59.8106153 -46.92916011 61.81220479 -47 65 C-48.60411848 68.52906067 -49.74159362 69.82772908 -53 72 C-57.09397042 72.13646568 -59.586903 72.08495104 -62.8671875 69.56640625 C-72.96154853 58.77665591 -76.7217218 45.51979078 -76.30859375 31.10546875 C-75.71520292 20.55493063 -71.67667609 12.04042269 -65 4 C-64.47664062 3.35289062 -63.95328125 2.70578125 -63.4140625 2.0390625 C-47.13657955 -16.14407699 -17.98677564 -14.42650664 0 0 Z " fill="#2C4255" transform="translate(202,153)"/>
<path d="M0 0 C58.41 0 116.82 0 177 0 C184 18 184 18 184 20 C182.109375 19.7421875 182.109375 19.7421875 180 19 C178.953125 17.2578125 178.953125 17.2578125 178.25 15.125 C178.00765625 14.42632812 177.7653125 13.72765625 177.515625 13.0078125 C177 11 177 11 177 8 C119.58 8 62.16 8 3 8 C0 2 0 2 0 0 Z " fill="#FA9481" transform="translate(203,212)"/>
<path d="M0 0 C13.06489558 -0.18537878 26.12947823 -0.32751715 39.19542122 -0.41449738 C45.26258935 -0.45624461 51.32885762 -0.51286652 57.39550781 -0.60351562 C63.25054637 -0.69045504 69.10471963 -0.73827762 74.96035385 -0.75901794 C77.19398498 -0.77379736 79.42756885 -0.80265931 81.66083145 -0.84584045 C84.79071508 -0.90394998 87.91702681 -0.911912 91.04736328 -0.90820312 C91.97021622 -0.93696533 92.89306915 -0.96572754 93.84388733 -0.99536133 C96.44412231 -0.96203613 96.44412231 -0.96203613 101 0 C102.98 2.64 104.96 5.28 107 8 C71.69 8 36.38 8 0 8 C0 5.36 0 2.72 0 0 Z " fill="#D0614F" transform="translate(380,396)"/>
<path d="M0 0 C0.33 0 0.66 0 1 0 C2.21088809 9.40526008 -2.12305569 16.56259271 -6.25 24.6875 C-6.98762799 26.16903027 -7.72427318 27.65105024 -8.45996094 29.13354492 C-52.55960161 117.55960161 -52.55960161 117.55960161 -82 147 C-84.625 147.125 -84.625 147.125 -87 147 C-85.48543398 142.45630195 -82.92934585 138.95634739 -80.0625 135.1875 C-74.15210277 127.271737 -68.53566966 119.18094353 -63 111 C-62.37593262 110.08033447 -62.37593262 110.08033447 -61.73925781 109.14208984 C-38.20306692 74.39774461 -17.69866949 38.03331102 0 0 Z " fill="#EAF0F5" transform="translate(183,249)"/>
<path d="M0 0 C0.33 0 0.66 0 1 0 C0.44557094 18.7951452 -3.0313205 39.33045786 -14 55 C-18.72843614 53.42686828 -22.3433843 50.79358765 -26.3125 47.875 C-26.95767578 47.40707031 -27.60285156 46.93914062 -28.26757812 46.45703125 C-29.84848894 45.3094071 -31.42472301 44.15534523 -33 43 C-31.41415883 38.98819943 -28.56596852 36.46257251 -25.5 33.5625 C-16.5054702 24.78860351 -9.38388051 14.97835053 -2.77856445 4.31689453 C-1.87521162 2.86348545 -0.94081763 1.42944273 0 0 Z " fill="#FCD97F" transform="translate(183,343)"/>
<path d="M0 0 C2.64212862 2.40409901 4.34152219 5.01510196 6.1875 8.0625 C13.85185008 20.2740431 23.6800724 30.97871982 34 41 C32.84300489 44.47098534 32.17523678 44.81559165 29.18359375 46.69921875 C28.41982422 47.18583984 27.65605469 47.67246094 26.86914062 48.17382812 C25.66547852 48.9230957 25.66547852 48.9230957 24.4375 49.6875 C23.63119141 50.19861328 22.82488281 50.70972656 21.99414062 51.23632812 C20.00069651 52.49844955 18.00265915 53.75257157 16 55 C4.02673028 43.88738815 1.27948026 21.64021392 0 6 C-0.02514087 4.00015802 -0.0332783 1.99972312 0 0 Z " fill="#FCD97F" transform="translate(200,343)"/>
<path d="M0 0 C1.92954772 2.89432158 3.29206282 5.67361473 4.73046875 8.8359375 C5.27832031 10.0307373 5.82617188 11.22553711 6.390625 12.45654297 C6.82858398 13.41291656 6.82858398 13.41291656 7.27539062 14.38861084 C18.56791199 38.98143122 31.00609274 62.82284698 45 86 C45.52239258 86.86963379 46.04478516 87.73926758 46.58300781 88.63525391 C53.21865273 99.64657771 60.19139401 110.42366031 67.3125 121.125 C67.68709351 121.6887735 68.06168701 122.252547 68.44763184 122.83340454 C72.97918714 129.64232428 77.63357379 136.31767129 82.55541992 142.85107422 C84 145 84 145 84 147 C81.22900391 147.28637695 81.22900391 147.28637695 78 147 C76.04052734 145.09838867 76.04052734 145.09838867 74.3359375 142.41796875 C73.69495117 141.43280273 73.05396484 140.44763672 72.39355469 139.43261719 C71.72743164 138.36172852 71.06130859 137.29083984 70.375 136.1875 C69.6727832 135.09469727 68.97056641 134.00189453 68.24707031 132.87597656 C66.14542185 129.59579788 64.07187739 126.29903501 62 123 C60.90586625 121.29154471 59.80972148 119.58437449 58.7109375 117.87890625 C40.42875342 89.3908501 22.84768143 59.90380238 8.92089844 29.01123047 C7.90275682 26.78762212 6.84672883 24.583972 5.7890625 22.37890625 C5.04623801 20.79456934 4.30404051 19.20993828 3.5625 17.625 C3.20792725 16.89998291 2.85335449 16.17496582 2.48803711 15.42797852 C0.01512561 10.05333757 -0.33210834 5.90803255 0 0 Z " fill="#EBF0F6" transform="translate(200,249)"/>
<path d="M0 0 C2.875 1.4375 2.875 1.4375 5 4 C5.87257847 7.9041291 5.86441635 11.53056303 3.80810547 15.02612305 C2.13300168 17.01591991 0.37495163 18.82246324 -1.5 20.625 C-2.14203369 21.27017578 -2.78406738 21.91535156 -3.44555664 22.58007812 C-4.71230926 23.84315158 -5.98945235 25.09590859 -7.27783203 26.33691406 C-8.70286987 27.71306345 -10.08932997 29.12903613 -11.46484375 30.5546875 C-14.7738051 33.81778206 -16.04046729 34.96853991 -20.8125 35.125 C-24.69823546 33.75356396 -26.18854973 32.62290053 -28 29 C-28.38786768 25.38829705 -28.32333662 23.53250747 -26.41796875 20.39453125 C-8.11319258 -0.79541104 -8.11319258 -0.79541104 0 0 Z " fill="#2C4255" transform="translate(235,118)"/>
<path d="M0 0 C2.71817497 1.88181344 3.7570672 3.05605591 4.58056641 6.25585938 C5.40318657 11.63784463 5.3120099 17.06567265 5.375 22.5 C5.41238281 23.72332031 5.44976562 24.94664063 5.48828125 26.20703125 C5.5868752 36.23074924 5.5868752 36.23074924 2.73046875 39.3046875 C-1.44912227 41.89974115 -3.14338973 41.77089052 -8 41 C-11.71216242 37.38952374 -12.52946457 34.73614833 -12.71484375 29.6328125 C-12.76060547 28.41722656 -12.80636719 27.20164062 -12.85351562 25.94921875 C-12.88123047 24.68722656 -12.90894531 23.42523438 -12.9375 22.125 C-12.99228516 20.87074219 -13.04707031 19.61648437 -13.10351562 18.32421875 C-13.29997502 11.81003887 -13.43771593 6.65533125 -10 1 C-6.79989699 -0.6000515 -3.47289683 -0.49514569 0 0 Z " fill="#2C4355" transform="translate(174,92)"/>
<path d="M0 0 C4.14866582 0.66674986 5.81886615 1.31264078 8.5 4.5625 C9.31210119 8.62300593 9.54614548 10.91610711 7.30859375 14.4375 C5.45901122 16.57677618 3.49646707 18.55919571 1.5 20.5625 C0.04621706 22.13262676 -1.39143677 23.71664887 -2.82885742 25.30175781 C-11.1743125 34.50276967 -11.1743125 34.50276967 -13.5234375 34.93359375 C-19.83749114 35.11189759 -19.83749114 35.11189759 -23.0625 32.4375 C-24.84433605 28.87382789 -25.33211534 27.49613614 -24.5 23.5625 C-20.80302137 17.48889224 -15.65114666 12.49016849 -10.5625 7.58203125 C-8.89063264 5.94499446 -7.39335501 4.27307905 -5.875 2.5 C-3.5 0.5625 -3.5 0.5625 0 0 Z " fill="#2C4255" transform="translate(128.5,225.4375)"/>
<path d="M0 0 C4.40756833 3.47037432 6.06201884 9.26214465 8.25 14.25 C8.72179687 15.27480469 9.19359375 16.29960938 9.6796875 17.35546875 C12.18400915 23.04511179 13.86619138 26.93893494 12 33 C10.375 35.4375 10.375 35.4375 8 37 C4.5625 37.5625 4.5625 37.5625 1 37 C-4.23662122 32.92050314 -6.30098834 27.64259864 -8.8125 21.625 C-9.21919922 20.70460938 -9.62589844 19.78421875 -10.04492188 18.8359375 C-12.24496844 13.65935735 -13.64882503 9.63298098 -13 4 C-9.85749884 -1.68643067 -5.910576 -1.266552 0 0 Z " fill="#2C4255" transform="translate(142,101)"/>
<path d="M0 0 C1.94858281 0.87613764 3.88994613 1.76848771 5.82421875 2.67578125 C6.81228516 3.11083984 7.80035156 3.54589844 8.81835938 3.99414062 C9.76517578 4.42919922 10.71199219 4.86425781 11.6875 5.3125 C12.54255127 5.70526123 13.39760254 6.09802246 14.27856445 6.50268555 C17.02446577 8.32938386 18.12385178 10.01484789 19.51171875 12.98828125 C19.44783292 16.6936593 19.30431581 19.0054609 16.94921875 21.92578125 C11.5333923 24.28652611 6.58990161 23.22884832 1.27734375 21.1953125 C-0.56770173 20.41228678 -2.4062273 19.61373909 -4.23828125 18.80078125 C-5.17027344 18.41341797 -6.10226563 18.02605469 -7.0625 17.62695312 C-11.93909063 15.5104988 -15.81037519 13.82851951 -18.48828125 8.98828125 C-18.9057658 6.13894917 -18.39021548 3.71176891 -17.48828125 0.98828125 C-13.15581801 -4.55727169 -5.58468341 -2.27636814 0 0 Z " fill="#2D4355" transform="translate(102.48828125,149.01171875)"/>
<path d="M0 0 C3 1.9375 3 1.9375 5 5 C5.31657107 11.5441306 2.96599975 17.7890447 0.6875 23.8125 C0.39166016 24.64458984 0.09582031 25.47667969 -0.20898438 26.33398438 C-1.83009597 30.70013159 -3.19998098 34.07274958 -7 37 C-9.99042163 38.07348469 -11.54765605 38.11847103 -14.625 37.3125 C-17.35945499 35.80135382 -18.54126742 34.76391436 -20 32 C-20.44412732 25.41115255 -18.14681003 20.33457911 -15.75 14.3125 C-15.35425781 13.26771484 -14.95851562 12.22292969 -14.55078125 11.14648438 C-14.15761719 10.14552734 -13.76445312 9.14457031 -13.359375 8.11328125 C-13.00327148 7.20360596 -12.64716797 6.29393066 -12.28027344 5.35668945 C-9.40797728 0.06945169 -5.80164736 -0.8142663 0 0 Z " fill="#2C4355" transform="translate(206,101)"/>
<path d="M0 0 C2.9375 2.0625 2.9375 2.0625 5 5 C5.5625 8.5625 5.5625 8.5625 5 12 C1.07533733 16.66573683 -3.81927385 18.42870554 -9.3125 20.75 C-10.23740234 21.16121094 -11.16230469 21.57242188 -12.11523438 21.99609375 C-17.29049318 24.21038359 -21.35852362 25.74537641 -27 25 C-29.9375 22.875 -29.9375 22.875 -32 20 C-32.56871986 16.01896099 -32.18120787 13.35953295 -30 10 C-27.77270508 8.62792969 -27.77270508 8.62792969 -25.01953125 7.421875 C-24.01986328 6.98359375 -23.02019531 6.5453125 -21.99023438 6.09375 C-20.94158203 5.6503125 -19.89292969 5.206875 -18.8125 4.75 C-17.78318359 4.29109375 -16.75386719 3.8321875 -15.69335938 3.359375 C-10.28950138 1.03305048 -5.90631393 -0.85383053 0 0 Z " fill="#2D4356" transform="translate(118,205)"/>
<path d="M0 0 C1.69769531 -0.05800781 1.69769531 -0.05800781 3.4296875 -0.1171875 C4.45191406 -0.15457031 5.47414063 -0.19195312 6.52734375 -0.23046875 C10.16014761 0.31420198 11.77858016 1.63900507 14.3671875 4.1953125 C15.60393001 7.82824364 15.71176953 9.43723203 14.1171875 12.9453125 C11.82696625 15.88988267 10.18378134 17.07865624 6.46875 17.609375 C2.76876195 17.83386866 -0.92949105 18.03397225 -4.6328125 18.1953125 C-6.43298828 18.29392578 -6.43298828 18.29392578 -8.26953125 18.39453125 C-9.40003906 18.43191406 -10.53054687 18.46929687 -11.6953125 18.5078125 C-13.22865234 18.56388672 -13.22865234 18.56388672 -14.79296875 18.62109375 C-18.41409995 18.07817312 -20.03843821 16.72482743 -22.6328125 14.1953125 C-23.78678064 11.19499534 -23.75865083 9.67578613 -22.9453125 6.5703125 C-21.42562136 3.82039519 -20.31993872 2.8103025 -17.6328125 1.1953125 C-11.82453771 0.20328643 -5.87714241 0.3159754 0 0 Z " fill="#2D4255" transform="translate(102.6328125,179.8046875)"/>
<path d="M0 0 C3.00322036 1.97805104 5.44868376 4.47905657 8 7 C8.97274925 7.91404886 9.94677854 8.82673679 10.921875 9.73828125 C19.70535967 18.12206563 19.70535967 18.12206563 20 23 C19.22362448 25.96434289 18.37783439 27.60867152 16.25 29.8125 C13.06156933 31.49528285 11.58079506 31.68861443 8 31 C5.00518678 29.00565185 2.55738719 26.5182435 0 24 C-1.44632813 22.67935547 -1.44632813 22.67935547 -2.921875 21.33203125 C-3.92843764 20.38946501 -4.93365362 19.44545857 -5.9375 18.5 C-6.87464844 17.6234375 -7.81179687 16.746875 -8.77734375 15.84375 C-11.43231031 12.44688593 -11.90984659 10.27727857 -12 6 C-8.76149887 0.86306717 -6.08685855 -0.90175682 0 0 Z " fill="#2C4255" transform="translate(114,120)"/>
<path d="M0 0 C5.28 0 10.56 0 16 0 C16 10.56 16 21.12 16 32 C10.72 32 5.44 32 0 32 C0 21.44 0 10.88 0 0 Z " fill="#E1EBF4" transform="translate(348,372)"/>
<path d="M0 0 C1.72421359 -0.00394183 3.44907825 0.04386293 5.17089844 0.13476562 C6.09312195 0.15309448 7.01534546 0.17142334 7.96551514 0.19030762 C9.91275335 0.23975685 11.85953349 0.3117369 13.80517578 0.40478516 C16.75808319 0.53999953 19.70361898 0.59089937 22.65917969 0.63085938 C32.06020299 0.87881072 39.63853317 1.09112895 47.10742188 7.46484375 C48.53027344 9.04101562 48.53027344 9.04101562 48.53027344 10.04101562 C29.06027344 10.04101562 9.59027344 10.04101562 -10.46972656 10.04101562 C-4.46972656 1.04101562 -4.46972656 1.04101562 0 0 Z " fill="#C0C8CE" transform="translate(99.4697265625,393.958984375)"/>
<path d="M0 0 C0.8452977 -0.01094193 1.6905954 -0.02188385 2.56150818 -0.03315735 C4.34066697 -0.04896192 6.11994708 -0.05423635 7.89916992 -0.04956055 C10.61776938 -0.05077976 13.33104795 -0.11068108 16.04882812 -0.17382812 C17.78253897 -0.18196695 19.51627026 -0.18664183 21.25 -0.1875 C22.05844864 -0.21108078 22.86689728 -0.23466156 23.69984436 -0.25895691 C29.21278694 -0.16926486 29.21278694 -0.16926486 31.71530151 2.21542358 C35.05859375 6.79756323 35.05859375 6.79756323 35.05859375 8.63671875 C17.23859375 8.63671875 -0.58140625 8.63671875 -18.94140625 8.63671875 C-12.61670654 2.31201904 -8.74400224 0.01425021 0 0 Z " fill="#C0C8CE" transform="translate(254.94140625,395.36328125)"/>
<path d="M0 0 C0.33 0 0.66 0 1 0 C0.44557094 18.7951452 -3.0313205 39.33045786 -14 55 C-18.72843614 53.42686828 -22.3433843 50.79358765 -26.3125 47.875 C-26.95767578 47.40707031 -27.60285156 46.93914062 -28.26757812 46.45703125 C-29.84848894 45.3094071 -31.42472301 44.15534523 -33 43 C-31.63016497 39.83884224 -31.0109362 39.0072908 -28 37 C-27.24074219 37.56589844 -26.48148438 38.13179688 -25.69921875 38.71484375 C-24.70535156 39.44832031 -23.71148437 40.18179688 -22.6875 40.9375 C-21.70136719 41.66839844 -20.71523437 42.39929688 -19.69921875 43.15234375 C-17.08228137 45.12530656 -17.08228137 45.12530656 -14 46 C-7.29956368 33.8425073 -2.32720341 21.04000097 -2 7 C-2.99 7.495 -2.99 7.495 -4 8 C-2.87548273 5.0280615 -1.77706209 2.66559313 0 0 Z " fill="#D4B66D" transform="translate(183,343)"/>
<path d="M0 0 C1.5 1 1.5 1 3 3 C3 4.8191614 2.9893001 6.63884684 2.9296875 8.45703125 C3.27212855 20.84198254 8.30211249 35.61428752 15 46 C20.1588796 43.20274084 25.17342499 40.341475 30 37 C31.32 38.32 32.64 39.64 34 41 C32.84300489 44.47098534 32.17523678 44.81559165 29.18359375 46.69921875 C28.41982422 47.18583984 27.65605469 47.67246094 26.86914062 48.17382812 C25.66547852 48.9230957 25.66547852 48.9230957 24.4375 49.6875 C23.63119141 50.19861328 22.82488281 50.70972656 21.99414062 51.23632812 C20.00069651 52.49844955 18.00265915 53.75257157 16 55 C4.02673028 43.88738815 1.27948026 21.64021392 0 6 C-0.02514087 4.00015802 -0.0332783 1.99972312 0 0 Z " fill="#D7B96E" transform="translate(200,343)"/>
<path d="M0 0 C9.24 0 18.48 0 28 0 C28 2.64 28 5.28 28 8 C24.4594571 8.2335806 20.92089932 8.37479801 17.375 8.5 C16.37597656 8.56703125 15.37695312 8.6340625 14.34765625 8.703125 C13.37441406 8.72890625 12.40117187 8.7546875 11.3984375 8.78125 C10.06304932 8.8440918 10.06304932 8.8440918 8.70068359 8.90820312 C6 8 6 8 0 0 Z " fill="#D0614F" transform="translate(304,396)"/>
<path d="M0 0 C5.28 0 10.56 0 16 0 C16 2.64 16 5.28 16 8 C10.72 8 5.44 8 0 8 C0 5.36 0 2.72 0 0 Z " fill="#C0C8CF" transform="translate(348,396)"/>
<path d="M0 0 C1.92536938 1.60558484 2.91074167 2.47769478 3.34057617 4.99291992 C3.3170105 6.10050659 3.3170105 6.10050659 3.29296875 7.23046875 C3.28330078 8.03291016 3.27363281 8.83535156 3.26367188 9.66210938 C3.23853516 10.49548828 3.21339844 11.32886719 3.1875 12.1875 C3.16719727 13.4549707 3.16719727 13.4549707 3.14648438 14.74804688 C3.11115799 16.83230384 3.05735139 18.91623277 3 21 C2.67 21 2.34 21 2 21 C1.6616656 18.62561751 1.32920998 16.25065041 1 13.875 C0.90460938 13.20984375 0.80921875 12.5446875 0.7109375 11.859375 C0.16388547 7.87371019 -0.10022182 4.02140062 0 0 Z " fill="#CDB36F" transform="translate(200,343)"/>
<path d="M0 0 C0.33 0 0.66 0 1 0 C0.88655624 2.1464753 0.75893655 4.29220592 0.625 6.4375 C0.55539063 7.63246094 0.48578125 8.82742188 0.4140625 10.05859375 C0.27742187 11.02925781 0.14078125 11.99992187 0 13 C-0.99 13.495 -0.99 13.495 -2 14 C-2 11.69 -2 9.38 -2 7 C-2.99 7.495 -2.99 7.495 -4 8 C-2.87548273 5.0280615 -1.77706209 2.66559313 0 0 Z " fill="#D3B972" transform="translate(183,343)"/>
</svg>
