<?xml version="1.0" encoding="UTF-8"?>
<svg version="1.1" xmlns="http://www.w3.org/2000/svg" width="512" height="512">
<path d="M0 0 C0.7373941 0.30195282 1.47478821 0.60390564 2.23452759 0.91500854 C4.67748155 1.91822609 7.11619904 2.93129344 9.5546875 3.9453125 C11.28284524 4.65925803 13.01103602 5.37312359 14.73925781 6.08691406 C35.07129679 14.50919331 55.26497891 23.25632415 75.4296875 32.0703125 C76.12727173 32.37495422 76.82485596 32.67959595 77.5435791 32.99346924 C95.97964634 41.04801169 114.2767889 49.39713984 132.4296875 58.0703125 C133.33557617 58.49940918 134.24146484 58.92850586 135.17480469 59.37060547 C150.30317761 66.60710154 161.46844659 76.79060002 173.10595703 88.73095703 C176.03512073 91.73190197 178.99859253 94.60634162 182.18359375 97.3359375 C187.02875594 101.51524065 191.53619558 106.02651586 196.0480957 110.55834961 C197.48993971 112.00555635 198.93705866 113.44733276 200.38476562 114.88867188 C205.09584203 119.59672338 209.67046873 124.36977056 214.00561523 129.42797852 C215.72282987 131.4083836 217.54443384 133.25006758 219.4296875 135.0703125 C223.30979283 138.90598914 226.88653967 142.92407568 230.4296875 147.0703125 C231.29207031 148.06675781 232.15445312 149.06320313 233.04296875 150.08984375 C245.06981027 164.00548353 256.74507566 178.09005059 267.4296875 193.0703125 C268.04787354 192.82385986 268.66605957 192.57740723 269.30297852 192.32348633 C335.78459947 165.88508765 335.78459947 165.88508765 368.12109375 178.51171875 C378.97133285 183.55643617 386.73700797 190.2680821 393.6171875 199.9453125 C394.21623901 200.78473389 394.21623901 200.78473389 394.82739258 201.64111328 C395.91015625 203.25 395.91015625 203.25 397.4296875 206.0703125 C396.24065392 209.63741324 395.51606523 209.90362535 392.37109375 211.75 C391.09322998 212.51485718 391.09322998 212.51485718 389.78955078 213.29516602 C388.8664209 213.83971436 387.94329102 214.3842627 386.9921875 214.9453125 C371.21532614 224.48584087 356.68690967 235.40992641 342.4296875 247.0703125 C341.46675781 247.85019531 340.50382812 248.63007813 339.51171875 249.43359375 C330.01425536 257.1494262 320.71439283 265.10088282 311.4296875 273.0703125 C311.67726807 273.74610352 311.92484863 274.42189453 312.17993164 275.11816406 C313.29518163 278.18161555 314.39382587 281.25076764 315.4921875 284.3203125 C316.07709961 285.91552734 316.07709961 285.91552734 316.67382812 287.54296875 C317.03798828 288.56777344 317.40214844 289.59257812 317.77734375 290.6484375 C318.11773682 291.59106445 318.45812988 292.53369141 318.80883789 293.50488281 C319.46205917 296.20407638 319.54735074 297.54120026 318.4296875 300.0703125 C315.77734375 301.3359375 315.77734375 301.3359375 312.4921875 302.3203125 C311.41066406 302.65546875 310.32914062 302.990625 309.21484375 303.3359375 C306.4296875 304.0703125 306.4296875 304.0703125 304.4296875 304.0703125 C302.1196875 298.1303125 299.8096875 292.1903125 297.4296875 286.0703125 C294.66917526 286.0703125 293.93856725 287.2316768 291.9296875 289.0703125 C288.65190972 292.0703125 288.65190972 292.0703125 286.4296875 292.0703125 C286.89640869 293.4154895 286.89640869 293.4154895 287.37255859 294.7878418 C293.53349841 312.61108179 299.30650902 330.47314614 304.1796875 348.6953125 C304.39759949 349.50793549 304.61551147 350.32055847 304.84002686 351.1578064 C305.45298615 353.45289223 306.06042914 355.74932018 306.6640625 358.046875 C306.8447226 358.73168442 307.02538269 359.41649384 307.21151733 360.12205505 C308.4296875 364.82959285 308.4296875 364.82959285 308.4296875 367.0703125 C309.09355469 367.11929687 309.75742187 367.16828125 310.44140625 367.21875 C311.32441406 367.29351562 312.20742188 367.36828125 313.1171875 367.4453125 C313.98730469 367.51492188 314.85742188 367.58453125 315.75390625 367.65625 C318.55452185 368.08962993 320.84635302 368.92526695 323.4296875 370.0703125 C323.24792969 369.45510742 323.06617188 368.83990234 322.87890625 368.20605469 C322.05693598 365.41240957 321.24323434 362.61642167 320.4296875 359.8203125 C320.14351563 358.85222656 319.85734375 357.88414062 319.5625 356.88671875 C319.29179687 355.95214844 319.02109375 355.01757812 318.7421875 354.0546875 C318.49082031 353.19584961 318.23945313 352.33701172 317.98046875 351.45214844 C317.4296875 349.0703125 317.4296875 349.0703125 317.4296875 345.0703125 C319.15650187 344.56224803 320.88626729 344.06420783 322.6171875 343.5703125 C323.58011719 343.291875 324.54304688 343.0134375 325.53515625 342.7265625 C328.29528899 342.10078342 330.61679458 342.02056347 333.4296875 342.0703125 C333.67501221 343.21508057 333.92033691 344.35984863 334.1730957 345.53930664 C335.10294749 349.81991112 336.09165497 354.08515525 337.09790039 358.34838867 C337.52368772 360.18851922 337.93383138 362.03234745 338.32739258 363.87963867 C340.36535127 374.72308714 340.36535127 374.72308714 346.0793457 383.81030273 C348.82513074 385.58245071 351.38523006 386.89984166 354.4296875 388.0703125 C355.65896973 388.60398437 355.65896973 388.60398437 356.91308594 389.1484375 C363.84126698 392.01212905 371.07785753 392.17349782 378.1171875 389.6328125 C384.56649536 386.77654627 390.502696 382.94222578 396.49951172 379.25488281 C408.28005246 372.02503413 418.43483168 366.93382488 432.4296875 366.0703125 C432.45653429 368.71621264 432.47645107 371.36184346 432.4921875 374.0078125 C432.50056641 374.76255859 432.50894531 375.51730469 432.51757812 376.29492188 C432.52621191 378.22025563 432.48193083 380.14566831 432.4296875 382.0703125 C430.90327794 383.59672206 429.23471926 383.44372884 427.1171875 383.7578125 C416.39199397 385.87861348 407.68788371 392.14814898 398.73510742 398.08911133 C385.95650948 406.44052388 373.60393706 409.92558227 358.328125 407.59765625 C346.51028143 404.55921843 336.35723085 397.12208542 326.18383789 390.63916016 C325.13764282 389.9766626 325.13764282 389.9766626 324.0703125 389.30078125 C323.15620605 388.71719849 323.15620605 388.71719849 322.22363281 388.12182617 C314.09731116 383.35861614 305.21531089 382.07436004 296.0703125 384.234375 C286.73950468 387.18821061 278.81123591 392.72988266 270.73510742 398.08911133 C257.95650948 406.44052388 245.60393706 409.92558227 230.328125 407.59765625 C218.51028143 404.55921843 208.35723085 397.12208542 198.18383789 390.63916016 C197.13764282 389.9766626 197.13764282 389.9766626 196.0703125 389.30078125 C195.15620605 388.71719849 195.15620605 388.71719849 194.22363281 388.12182617 C186.09731116 383.35861614 177.21531089 382.07436004 168.0703125 384.234375 C158.73950468 387.18821061 150.81123591 392.72988266 142.73510742 398.08911133 C129.95650948 406.44052388 117.60393706 409.92558227 102.328125 407.59765625 C90.51028143 404.55921843 80.35723085 397.12208542 70.18383789 390.63916016 C69.13764282 389.9766626 69.13764282 389.9766626 68.0703125 389.30078125 C67.4609082 388.91172607 66.85150391 388.5226709 66.22363281 388.12182617 C58.09731116 383.35861614 49.21531089 382.07436004 40.0703125 384.234375 C30.73950468 387.18821061 22.81123591 392.72988266 14.73510742 398.08911133 C1.95650948 406.44052388 -10.39606294 409.92558227 -25.671875 407.59765625 C-37.48527787 404.56036016 -47.64735002 397.12906493 -57.81176758 390.63916016 C-58.85627075 389.9766626 -58.85627075 389.9766626 -59.921875 389.30078125 C-60.5298291 388.91172607 -61.1377832 388.5226709 -61.76416016 388.12182617 C-67.11156252 385.00865208 -72.45961353 383.81856135 -78.5703125 383.0703125 C-79.5703125 382.0703125 -79.5703125 382.0703125 -79.66796875 378.47265625 C-79.6612947 376.98434383 -79.64933433 375.49604818 -79.6328125 374.0078125 C-79.62830078 373.24919922 -79.62378906 372.49058594 -79.61914062 371.70898438 C-79.6073193 369.82939379 -79.58938328 367.94984351 -79.5703125 366.0703125 C-63.85440824 367.6279539 -53.2277744 372.99270633 -40.13061523 381.34887695 C-30.46332525 387.51461457 -22.33029405 392.23094929 -10.5703125 391.0703125 C-2.15905979 388.99898904 5.20291053 383.7414424 12.49951172 379.25488281 C27.90579787 369.79987391 40.64458643 364.46265759 58.99609375 367.20703125 C63.66420683 368.38069791 68.00253709 370.19925864 72.4296875 372.0703125 C62.16391937 309.20459528 39.77507231 258.20869633 3.4296875 206.0703125 C2.86781738 205.26384277 2.30594727 204.45737305 1.72705078 203.62646484 C-0.01597481 201.12722674 -1.76134166 198.62964414 -3.5078125 196.1328125 C-4.08337891 195.30958496 -4.65894531 194.48635742 -5.25195312 193.63818359 C-8.26407038 189.33743757 -11.29541573 185.05194648 -14.35546875 180.78515625 C-43.58809055 139.8815567 -51.39921921 75.59588146 -44.8828125 26.1953125 C-43.09848083 17.6577811 -38.57008869 10.30281847 -31.5703125 5.0703125 C-20.16848879 -1.90888832 -12.95294759 -5.39991308 0 0 Z M-22.4453125 18.9453125 C-23.14398438 19.47898437 -23.84265625 20.01265625 -24.5625 20.5625 C-29.68040063 26.95489728 -30.04630351 35.40034097 -29.89453125 43.2890625 C-29.88459641 44.23632202 -29.87466156 45.18358154 -29.86442566 46.1595459 C-29.67103914 56.6939277 -28.60047741 67.11284303 -27.3828125 77.5703125 C-27.2708252 78.56245758 -27.15883789 79.55460266 -27.04345703 80.57681274 C-24.71836793 101.16024117 -22.12722009 121.76153775 -17.0703125 141.8828125 C-16.89306641 142.59977295 -16.71582031 143.3167334 -16.53320312 144.05541992 C-14.03104879 153.20035506 -8.5764958 160.753222 -3.1328125 168.3828125 C-1.87890407 170.15885263 -0.62499788 171.93489434 0.62890625 173.7109375 C1.89557133 175.49758161 3.16249192 177.28404461 4.4296875 179.0703125 C33.50962369 220.12627676 33.50962369 220.12627676 45.4296875 241.0703125 C45.81495605 241.73691895 46.20022461 242.40352539 46.59716797 243.09033203 C70.62876842 284.7394047 85.21448384 330.90626318 88.77734375 378.98046875 C89.553119 382.65494913 90.48205218 383.80211478 93.4296875 386.0703125 C95.84935387 387.55630014 95.84935387 387.55630014 98.4296875 388.7578125 C99.2753125 389.17417969 100.1209375 389.59054687 100.9921875 390.01953125 C107.79182839 392.9507867 115.14342457 393.19412776 122.1171875 390.6328125 C128.56649536 387.77654627 134.502696 383.94222578 140.49951172 380.25488281 C156.89858433 370.19058983 170.9899996 364.47547718 190.4296875 369.0703125 C199.91288407 371.80093506 207.98935941 377.3268338 216.22070312 382.61254883 C217.09404297 383.17095459 217.96738281 383.72936035 218.8671875 384.3046875 C219.64964844 384.81225586 220.43210937 385.31982422 221.23828125 385.84277344 C223.33111222 387.01509453 225.08572196 387.62314368 227.4296875 388.0703125 C226.85414404 379.74777132 224.66426147 371.98688733 222.3671875 364.0078125 C222.1684906 363.31065125 221.9697937 362.61348999 221.76507568 361.89520264 C219.02168486 352.27835782 216.15422774 342.70414629 213.0546875 333.1953125 C212.73363037 332.19234131 212.41257324 331.18937012 212.08178711 330.15600586 C211.77635986 329.24343018 211.47093262 328.33085449 211.15625 327.390625 C210.89408691 326.59930176 210.63192383 325.80797852 210.36181641 324.99267578 C209.46377282 322.72711296 209.46377282 322.72711296 206.4296875 321.0703125 C203.80002404 320.50235063 201.20586444 320.00500998 198.5546875 319.5703125 C193.97778019 318.81166302 189.68308611 318.00519187 185.4296875 316.0703125 C186.55157591 312.98511939 187.8913338 310.20225601 189.5546875 307.3828125 C191.59388691 304.41461813 191.59388691 304.41461813 191.4296875 302.0703125 C192.29980469 302.37775391 192.29980469 302.37775391 193.1875 302.69140625 C194.35925781 303.09552734 194.35925781 303.09552734 195.5546875 303.5078125 C196.70324219 303.90806641 196.70324219 303.90806641 197.875 304.31640625 C215.43036548 309.49711808 238.32540168 304.92028009 254.3515625 296.54296875 C270.85747492 286.40566705 285.85806177 272.94587566 300.48974609 260.3112793 C304.82293411 256.57292771 309.23021816 252.93636697 313.67578125 249.33203125 C316.13120349 247.31545044 318.54898114 245.26099725 320.95825195 243.18969727 C329.18450404 236.13341222 337.75513726 229.56371862 346.4296875 223.0703125 C347.0985498 222.56935059 347.76741211 222.06838867 348.45654297 221.55224609 C355.91702592 215.98231944 363.42123007 210.64605941 371.33203125 205.7265625 C372.02425781 205.18 372.71648437 204.6334375 373.4296875 204.0703125 C373.4296875 203.0803125 373.4296875 202.0903125 373.4296875 201.0703125 C362.68267262 191.33569757 348.73308589 189.29513666 334.80566406 189.89550781 C296.3577106 192.72418996 259.16052256 214.04343542 227.11547852 233.90722656 C211.5843837 243.46047506 196.66737653 248.92259349 178.3203125 245.48828125 C167.49636432 241.71368786 160.14697612 231.83041343 153.08984375 223.2734375 C150.07510115 219.61880899 146.91780083 216.10365491 143.72607422 212.60302734 C142.29985774 211.0300346 140.88141109 209.44991429 139.4753418 207.85888672 C133.70840345 201.34780497 127.66856934 195.15488842 121.5090332 189.01928711 C119.86227346 187.37791454 118.22096655 185.73122431 116.58007812 184.08398438 C111.61110928 179.11183246 106.61287035 174.22460565 101.26489258 169.65600586 C97.93066566 166.77509541 94.75507225 163.72306402 91.5546875 160.6953125 C86.39979228 155.83983727 81.21045804 151.0352029 75.9296875 146.31640625 C68.85122651 139.95685145 61.80074828 133.56200135 55.1484375 126.75488281 C53.40070151 125.04190294 51.58367719 123.46298232 49.71875 121.87890625 C45.41865357 118.13496284 41.49921971 114.11653409 37.6171875 109.9453125 C36.92141602 109.19958984 36.22564453 108.45386719 35.50878906 107.68554688 C10.3650576 80.57909457 -7.06590943 51.60225168 -17.5703125 16.0703125 C-19.5238011 16.0703125 -20.98868592 17.78748111 -22.4453125 18.9453125 Z M-0.5703125 18.0703125 C-0.14117731 19.78076625 0.29843999 21.48859132 0.7421875 23.1953125 C0.98582031 24.14664063 1.22945313 25.09796875 1.48046875 26.078125 C3.40605041 32.29714709 3.40605041 32.29714709 7.94238281 36.69848633 C8.95397461 37.11638428 9.96556641 37.53428223 11.0078125 37.96484375 C12.16990234 38.45936035 13.33199219 38.95387695 14.52929688 39.46337891 C15.47373657 39.85085297 15.47373657 39.85085297 16.43725586 40.24615479 C18.51266757 41.10463672 20.57037638 41.99727795 22.62695312 42.89990234 C26.36681699 44.54046752 30.11590268 46.158277 33.86962891 47.7668457 C36.19214366 48.76315593 38.51210041 49.76526843 40.83203125 50.76757812 C47.95283035 53.83048077 55.00481422 56.80725181 62.4296875 59.0703125 C60.4496875 63.6903125 58.4696875 68.3103125 56.4296875 73.0703125 C51.90027344 72.16442969 48.17181077 70.78547054 44.01171875 68.91015625 C43.3132634 68.60082657 42.61480804 68.29149689 41.89518738 67.97279358 C39.67536599 66.98923292 37.45854758 65.99914567 35.2421875 65.0078125 C33.0149091 64.01340173 30.78700945 63.02051052 28.55705261 62.03211975 C27.17206168 61.41811335 25.78863172 60.80057149 24.40693665 60.17918396 C21.04843033 58.59684038 21.04843033 58.59684038 17.4296875 58.0703125 C21.000662 68.45403285 28.36140111 78.0788832 38.1521759 83.09989929 C42.40100455 85.06051925 46.71199882 86.8299009 51.0546875 88.5703125 C52.91434808 89.35648863 54.77183131 90.14783335 56.62719727 90.9440918 C60.39101387 92.55672025 64.16195934 94.15046512 67.93896484 95.73193359 C75.45554837 98.90401072 82.83532968 102.35771099 90.20404053 105.85693359 C92.30106826 106.85145525 94.40213358 107.83691056 96.50439453 108.8203125 C118.33293071 119.06685543 118.33293071 119.06685543 124.6171875 126.0078125 C127.5911492 129.1836839 130.5625181 132.22931847 133.8828125 135.046875 C139.89783872 140.23470141 145.43463108 145.92654068 151.03881836 151.54907227 C152.9876562 153.50326874 154.94178022 155.45206397 156.89648438 157.40039062 C167.95077783 168.44877487 167.95077783 168.44877487 173.01245117 174.40795898 C175.35119636 177.15120033 177.83903819 179.7541142 180.3046875 182.3828125 C184.78013824 187.19383484 189.03174635 192.1259875 193.14453125 197.25390625 C195.26085145 199.86222568 197.42768992 202.41416942 199.61767578 204.96020508 C204.60171558 210.76136998 209.20398865 216.68128659 213.4296875 223.0703125 C216.7820176 221.81392259 219.73371365 220.38297362 222.7421875 218.4453125 C223.97135417 217.65364583 225.20052083 216.86197917 226.4296875 216.0703125 C222.55109093 210.03138501 218.41451921 204.38092608 213.8046875 198.8828125 C213.19423584 198.1494165 212.58378418 197.41602051 211.95483398 196.66040039 C210.11840527 194.45921302 208.2748113 192.26421278 206.4296875 190.0703125 C205.65117432 189.13880371 205.65117432 189.13880371 204.85693359 188.18847656 C194.12390103 175.35989652 182.68877766 163.20631283 170.78515625 151.4609375 C168.66983478 149.31404407 166.69220467 147.11651249 164.7421875 144.8203125 C162.57312777 142.2736655 160.34184405 140.05331756 157.78515625 137.8984375 C152.27646358 133.13860348 147.24153899 127.9301478 142.140625 122.7421875 C137.41203727 117.96485145 132.58974265 113.38084637 127.4296875 109.0703125 C126.66277588 108.41377686 125.89586426 107.75724121 125.10571289 107.08081055 C122.14756739 104.85835564 119.1978872 103.31681519 115.86328125 101.71484375 C115.2356488 101.41149109 114.60801636 101.10813843 113.96136475 100.79559326 C111.93315691 99.81786905 109.90047344 98.84992621 107.8671875 97.8828125 C106.46969556 97.21304368 105.07231656 96.54303916 103.67504883 95.87280273 C95.69005325 92.05236464 87.68027767 88.28596051 79.6171875 84.6328125 C78.80113037 84.26196533 77.98507324 83.89111816 77.14428711 83.5090332 C73.43249971 81.7103418 73.43249971 81.7103418 69.4296875 81.0703125 C69.790625 80.15507812 70.1515625 79.23984375 70.5234375 78.296875 C70.9875 77.10835937 71.4515625 75.91984375 71.9296875 74.6953125 C72.39375 73.51195312 72.8578125 72.32859375 73.3359375 71.109375 C74.54256544 68.2949881 74.54256544 68.2949881 74.4296875 66.0703125 C132.15320994 90.59819903 132.15320994 90.59819903 141.703125 101.1640625 C143.36821608 103.00244361 145.08948196 104.54587511 146.9921875 106.1328125 C151.90346398 110.34386738 156.37558817 114.99120363 160.92431641 119.58447266 C164.71695249 123.39993875 168.56812956 127.05709667 172.671875 130.5390625 C177.37896368 134.63945975 181.68263214 139.14666458 185.7421875 143.8828125 C188.65223111 147.2723141 191.75181286 150.43425906 194.9296875 153.5703125 C199.31362361 157.90869741 203.42879085 162.37906505 207.4296875 167.0703125 C208.40495531 168.18342735 209.38165489 169.29528854 210.359375 170.40625 C220.68600719 182.16924113 230.34829259 194.31992996 239.4296875 207.0703125 C242.87638375 206.49686917 245.65156915 205.63169672 248.7421875 204.0078125 C249.43957031 203.64558594 250.13695312 203.28335938 250.85546875 202.91015625 C251.37496094 202.63300781 251.89445313 202.35585938 252.4296875 202.0703125 C242.3330639 179.90951814 219.85034605 159.57073112 203.29492188 142.04882812 C201.33845545 139.97353966 199.39116285 137.8899308 197.4453125 135.8046875 C182.63749916 119.83489445 182.63749916 119.83489445 166.65234375 105.07421875 C163.45665192 102.19304141 160.45683046 99.12677979 157.4296875 96.0703125 C143.73584464 82.32991021 129.01803435 74.09614448 111.5546875 65.9453125 C110.38850388 65.39789398 110.38850388 65.39789398 109.19876099 64.8394165 C93.76009945 57.59415796 78.18269453 50.69367815 62.51287842 43.9654541 C60.34913116 43.03569765 58.18640919 42.10359043 56.02392578 41.17089844 C41.16473111 34.76316104 26.28840276 28.39496569 11.3671875 22.1328125 C10.37396484 21.71354492 9.38074219 21.29427734 8.35742188 20.86230469 C7.01454102 20.3020459 7.01454102 20.3020459 5.64453125 19.73046875 C4.87230225 19.40699463 4.10007324 19.08352051 3.30444336 18.75024414 C1.44870094 17.95666358 1.44870094 17.95666358 -0.5703125 18.0703125 Z M60.4296875 110.0703125 C61.12449219 110.76382813 61.81929687 111.45734375 62.53515625 112.171875 C64.52386745 114.15988669 66.50429886 116.15577527 68.48046875 118.15625 C73.56950506 123.29566514 78.63300196 128.38843559 84.1484375 133.07421875 C87.43961237 135.95399676 90.61546954 138.95350737 93.8046875 141.9453125 C97.97957168 145.85920258 102.16094376 149.75842428 106.4296875 153.5703125 C117.74033506 163.72230836 128.67203946 174.21134463 139.4296875 184.9453125 C139.97207062 185.48510742 140.51445374 186.02490234 141.07327271 186.58105469 C147.07728488 192.5624548 152.96200238 198.58714969 158.4296875 205.0703125 C159.45002886 206.25823524 160.4708543 207.44574239 161.4921875 208.6328125 C161.97534424 209.19822754 162.45850098 209.76364258 162.95629883 210.34619141 C163.96993627 211.53232357 164.98551029 212.71680265 166.00268555 213.89990234 C168.1965152 216.45166361 170.37780767 219.00704441 172.51171875 221.609375 C175.9149543 225.71169506 179.1495217 229.59148689 184.4296875 231.0703125 C188.78589037 231.37672771 193.07152856 231.30624291 197.4296875 231.0703125 C197.4296875 226.3075873 196.63229408 225.64427638 193.6171875 222.1328125 C192.38548828 220.68261719 192.38548828 220.68261719 191.12890625 219.203125 C190.68853027 218.69297852 190.2481543 218.18283203 189.79443359 217.65722656 C188.41534197 216.05363165 187.05512926 214.43572549 185.69921875 212.8125 C180.80777057 206.96698156 175.83230516 201.21452124 170.6953125 195.58203125 C168.79789681 193.47851696 166.93028586 191.35519893 165.0703125 189.21875 C155.32229672 178.0620239 144.95189907 167.49287713 134.4921875 157.0078125 C133.75718018 156.26892288 133.75718018 156.26892288 133.00732422 155.5151062 C127.92255199 150.40913322 122.80643106 145.40074109 117.29833984 140.74804688 C115.31645767 138.96865122 113.59461679 137.04871658 111.80859375 135.07421875 C106.58566007 129.79018324 100.02736911 127.04032974 93.3671875 124.0078125 C92.06391854 123.39976718 90.7613488 122.79022099 89.45947266 122.17919922 C86.92516317 120.9926881 84.38689782 119.81547861 81.84423828 118.64697266 C78.98391373 117.32622505 76.13810412 115.98247832 73.30078125 114.61328125 C67.13496344 111.32345371 67.13496344 111.32345371 60.4296875 110.0703125 Z M265.7421875 307.0703125 C264.52982422 307.905625 264.52982422 307.905625 263.29296875 308.7578125 C262.67808594 309.1909375 262.06320312 309.6240625 261.4296875 310.0703125 C262.01335431 314.90893727 263.00096166 319.31233506 264.50390625 323.9453125 C264.92586808 325.2635627 265.34773953 326.58184184 265.76953125 327.90014648 C265.9897998 328.58148651 266.21006836 329.26282654 266.43701172 329.96481323 C270.2268901 341.69646611 273.75956478 353.42957967 276.62768555 365.42773438 C276.84078369 366.29849609 277.05388184 367.16925781 277.2734375 368.06640625 C277.45068359 368.82107178 277.62792969 369.5757373 277.81054688 370.35327148 C278.28400926 372.28484837 278.28400926 372.28484837 280.4296875 373.0703125 C282.50165381 372.33852384 284.5405427 371.51132247 286.5546875 370.6328125 C287.65039062 370.15972656 288.74609375 369.68664062 289.875 369.19921875 C290.71804688 368.82667969 291.56109375 368.45414062 292.4296875 368.0703125 C286.96217518 346.40424503 280.81367765 325.16410485 273.4296875 304.0703125 C269.79773254 304.0703125 268.68254839 305.02484405 265.7421875 307.0703125 Z M238.3203125 317.84765625 C237.56621094 318.03134766 236.81210937 318.21503906 236.03515625 318.40429688 C235.25785156 318.60345703 234.48054688 318.80261719 233.6796875 319.0078125 C232.88691406 319.20310547 232.09414063 319.39839844 231.27734375 319.59960938 C229.32605865 320.08155329 227.37757967 320.57483338 225.4296875 321.0703125 C225.59041748 321.6058374 225.75114746 322.1413623 225.91674805 322.69311523 C226.43225136 324.41104725 226.9474277 326.1290774 227.46240234 327.84716797 C228.14608354 330.12530002 228.83147068 332.40292043 229.51806641 334.68017578 C235.04572496 353.03056129 240.24959211 371.35618683 244.4296875 390.0703125 C248.71922079 391.08728935 250.51675411 390.94797003 254.4296875 388.8203125 C255.29335938 388.35753906 256.15703125 387.89476562 257.046875 387.41796875 C259.53557732 386.010424 262.01384517 384.60034597 264.4296875 383.0703125 C263.7580968 375.58021063 261.87930662 368.50755203 259.9296875 361.2578125 C259.75594604 360.61067291 259.58220459 359.96353333 259.40319824 359.29678345 C256.72747605 349.37656928 253.83584883 339.53622943 250.6796875 329.7578125 C250.31552734 328.59596436 249.95136719 327.43411621 249.57617188 326.23706055 C249.22361328 325.17527588 248.87105469 324.11349121 248.5078125 323.01953125 C248.20262695 322.08455811 247.89744141 321.14958496 247.58300781 320.1862793 C246.63052346 317.93608116 246.63052346 317.93608116 244.55664062 317.21240234 C242.26843777 317.05954031 240.54274039 317.29204928 238.3203125 317.84765625 Z " fill="#000000" transform="translate(79.5703125,53.9296875)"/>
<path d="M0 0 C3.32997682 1.43240688 5.3992896 3.18236524 7.8125 5.875 C8.43769531 6.55304688 9.06289062 7.23109375 9.70703125 7.9296875 C11 10 11 10 11.015625 11.9921875 C9.55617452 14.87740883 7.49822754 16.30514364 4.9375 18.25 C4.01839844 18.95640625 3.09929687 19.6628125 2.15234375 20.390625 C1.44207031 20.92171875 0.73179687 21.4528125 0 22 C-4.24483639 18.64361774 -7.73193589 15.32537896 -11 11 C-11 10.34 -11 9.68 -11 9 C-9.21895282 7.39821407 -7.37462722 5.86618074 -5.5 4.375 C-4.4790625 3.55773437 -3.458125 2.74046875 -2.40625 1.8984375 C-1.6121875 1.27195313 -0.818125 0.64546875 0 0 Z " fill="#000000" transform="translate(183,251)"/>
<path d="M0 0 C0.53532823 1.55759343 1.05265378 3.12138045 1.5625 4.6875 C1.85253906 5.55761719 2.14257812 6.42773438 2.44140625 7.32421875 C3.05141961 10.24631074 2.77703633 12.14400553 2 15 C0.25364835 15.53293835 -1.49727652 16.05090663 -3.25 16.5625 C-4.22453125 16.85253906 -5.1990625 17.14257812 -6.203125 17.44140625 C-10.44943746 18.28948262 -10.44943746 18.28948262 -13 17 C-14.08203125 14.890625 -14.08203125 14.890625 -14.8125 12.25 C-15.19341797 10.95835937 -15.19341797 10.95835937 -15.58203125 9.640625 C-16.03351097 6.78828581 -15.73334046 4.77372309 -15 2 C-13.44240657 1.46467177 -11.87861955 0.94734622 -10.3125 0.4375 C-9.44238281 0.14746094 -8.57226562 -0.14257812 -7.67578125 -0.44140625 C-4.75368926 -1.05141961 -2.85599447 -0.77703633 0 0 Z " fill="#000000" transform="translate(405,368)"/>
<path d="M0 0 C5.28 0 10.56 0 16 0 C16 5.28 16 10.56 16 16 C10.72 16 5.44 16 0 16 C0 10.72 0 5.44 0 0 Z " fill="#000000" transform="translate(348,282)"/>
<path d="M0 0 C5.28 0 10.56 0 16 0 C16 5.28 16 10.56 16 16 C10.72 16 5.44 16 0 16 C0 10.72 0 5.44 0 0 Z " fill="#000000" transform="translate(378,267)"/>
</svg>
