<?xml version="1.0" encoding="UTF-8"?>
<svg version="1.1" xmlns="http://www.w3.org/2000/svg" width="512" height="512">
<path d="M0 0 C15.67866057 10.18479029 32.2829494 13.68445137 50.875 10.625 C60.00236462 8.6624288 68.62201154 4.61105031 76.40234375 -0.55517578 C79.50841526 -2.56737745 81.4034455 -3.37573934 85.13671875 -3.36328125 C88.96910841 -2.27750904 92.09291182 -0.65859951 95.4375 1.4375 C112.64487945 11.71485928 130.81697634 14.81037738 150.625 10.625 C160.78579098 7.74971234 170.39153468 3.49937516 178.9375 -2.75 C182.2527991 -4.75459945 183.79230345 -4.8039636 187.625 -4.375 C190.59765625 -2.6171875 190.59765625 -2.6171875 193.6875 -0.25 C207.60096685 9.89319876 222.93544427 15.06272325 240.203125 13.1875 C253.21206821 11.04904358 266.70362723 6.21866048 277.09765625 -2.12890625 C279.65479264 -3.98854304 281.56588854 -4.81005566 284.734375 -5.0390625 C289.47656022 -4.22965338 291.12749424 -2.41441783 293.875 1.25 C301.1782985 10.03559379 310.26367818 14.38862086 321.625 15.625 C325.03037839 15.85150453 328.42917669 16.05757387 331.83984375 16.18359375 C334.625 16.625 334.625 16.625 336.44921875 17.94921875 C338.41320199 20.74838424 338.50903928 23.26213901 338.625 26.625 C337.27937601 29.57255732 336.53945456 31.16777272 333.625 32.625 C317.36884535 33.61960926 301.50651505 31.87840958 288.5625 20.87109375 C287.43183873 19.82084589 286.32500325 18.74358978 285.2578125 17.62890625 C283.61837769 16.40634154 283.61837769 16.40634154 281.3359375 16.7578125 C278.03545443 17.81358662 275.18012385 19.30132702 272.125 20.9375 C251.31967168 31.69177256 228.54118742 33.48001039 206.1796875 26.55859375 C199.45093633 24.14865095 193.76748642 21.0537346 187.96484375 16.8828125 C185.77597336 15.39975134 185.77597336 15.39975134 183.70263672 15.93969727 C181.0071799 16.82878626 178.52604834 18.09129563 175.98974609 19.35522461 C153.30042744 30.63373432 129.11348956 32.76521675 104.83203125 25.48828125 C99.42865435 23.65240721 94.49492592 21.67124426 89.625 18.6875 C86.41688438 16.7905236 86.41688438 16.7905236 82.6875 17 C81.676875 17.53625 80.66625 18.0725 79.625 18.625 C58.50552504 29.76494284 35.52989488 32.62441255 12.4453125 26.0078125 C7.39468016 24.30141087 2.67600726 21.87855202 -2.00976562 19.35522461 C-6.94036323 16.65492867 -6.94036323 16.65492867 -12.375 15.625 C-14.67782991 16.62736593 -14.67782991 16.62736593 -16.875 18.25 C-35.24331894 29.96116193 -58.3040183 32.51252949 -79.4375 28.3125 C-83.59409644 27.34142864 -86.8557829 26.06524144 -90.375 23.625 C-91.98051137 20.41397726 -91.84307221 17.10800792 -91.375 13.625 C-89.9375 11.125 -89.9375 11.125 -87.375 9.625 C-82.5419111 8.84288188 -77.93501583 9.65869147 -73.1875 10.625 C-56.37352833 13.88007251 -38.61270729 10.71897035 -24.1015625 1.55859375 C-22.0399133 0.16336142 -19.99371542 -1.25516585 -17.96875 -2.703125 C-11.17619686 -7.08145745 -6.31342142 -4.239805 0 0 Z " fill="#000000" transform="translate(132.375,342.375)"/>
<path d="M0 0 C2.484375 1.453125 2.484375 1.453125 4.75 3.25 C18.87809328 13.68042288 36.7613963 17.88065584 54.11425781 15.29614258 C65.34774171 13.29250151 75.90597642 9.20296209 84.9375 2.1015625 C87.89218632 0.5234914 89.67671167 0.5598561 93 1 C95.60364817 2.31182713 97.97913762 3.64894131 100.4375 5.1875 C117.92146314 15.5998263 138.37939823 19.36406622 158.375 14.5 C167.59388539 11.86603275 176.32143361 7.51808647 183.9921875 1.75 C187.76180576 -0.44323244 189.69559626 -0.65317917 194 0 C196.63149348 1.28764481 198.90496235 2.94126742 201.25 4.6875 C217.10942957 15.86159085 232.87516284 19.19771369 252.12304688 16.72753906 C263.10650653 14.69335162 274.7792093 8.94117807 283.74609375 2.28125 C287.60394448 -0.42341365 289.3860631 -0.76898948 294 0 C296.68458819 1.61075292 298.51222514 3.37871494 300.44140625 5.8359375 C306.79976 13.83367402 315.31411316 18.03987626 325.34765625 19.71484375 C329.59208112 20.17116631 333.85075522 20.34785134 338.1171875 20.4609375 C341.63613942 21.1189529 342.80123715 22.23232648 345 25 C346.37749054 28.48964271 346.11114829 29.72477566 344.6875 33.25 C343 36 343 36 341 37 C325.32729858 38.49411026 310.95163123 36.44656931 298 27 C294.89810102 24.43514621 291.91532736 21.77449029 289 19 C288.49251221 19.25168945 287.98502441 19.50337891 287.4621582 19.76269531 C263.79142539 31.43095217 240.21178853 38.75421926 214.01953125 30.36572266 C206.71518659 27.83108636 200.01514467 24.87960386 193.9296875 20.00390625 C192.02397205 18.80795462 192.02397205 18.80795462 189.71484375 19.1015625 C186.15284074 20.28035486 182.97273799 22.031037 179.6875 23.8125 C159.33551782 34.4369968 134.71312109 35.99296443 112.80761719 29.33349609 C106.71407815 27.30820258 100.76789086 25.13504473 95.2890625 21.74609375 C92.32370964 19.82921568 92.32370964 19.82921568 89.984375 20.04296875 C89.32953125 20.35878906 88.6746875 20.67460937 88 21 C86.97390625 21.49113281 85.9478125 21.98226563 84.890625 22.48828125 C84.31014404 22.78081787 83.72966309 23.07335449 83.1315918 23.37475586 C63.31562328 33.25060056 40.12104877 35.71278421 18.69140625 29.41796875 C13.05061765 27.25118964 7.73224106 24.5862287 2.42578125 21.70703125 C-1.62150875 19.64747927 -1.62150875 19.64747927 -6 19 C-8.69072164 20.23587327 -8.69072164 20.23587327 -11.375 22.125 C-30.71522818 34.04314799 -54.0660913 35.44480845 -75.93359375 31.046875 C-79.91263807 29.6884242 -83.07805239 27.84389521 -85 24 C-85.38681451 20.44130654 -85.46190157 18.65732147 -83.375 15.6875 C-80.09567569 13.35745378 -77.09644809 12.77749712 -73.06542969 13.20532227 C-70.92872751 13.57286959 -68.81007866 13.9958264 -66.6875 14.4375 C-49.61268472 17.65964196 -33.09786911 15.00927623 -18.16796875 5.640625 C-17.50732422 5.22699707 -16.84667969 4.81336914 -16.16601562 4.38720703 C-14.87679279 3.56473886 -13.59978863 2.72269388 -12.33789062 1.85888672 C-7.8414778 -1.05595326 -5.13685717 -1.47452376 0 0 Z " fill="#000000" transform="translate(126,395)"/>
<path d="M0 0 C11.41114395 7.9381871 22.58808176 26.9022417 25.37890625 40.4453125 C25.56329991 43.66922747 25.03163295 45.73894508 23.375 48.5 C20.38081291 50.29651226 18.30601006 50.51498599 14.875 50.62890625 C11.27323302 49.49631937 9.68520535 46.48699744 7.93945312 43.28295898 C6.97244546 41.3471548 6.04549027 39.39582548 5.125 37.4375 C-0.22983757 25.07895061 -0.22983757 25.07895061 -9.125 16 C-9.1674585 16.61093506 -9.20991699 17.22187012 -9.25366211 17.85131836 C-9.76360114 24.01126389 -10.87357767 29.66029856 -12.6875 35.5625 C-12.94926025 36.41948486 -13.21102051 37.27646973 -13.48071289 38.15942383 C-18.15236717 52.87805544 -24.4608064 64.88313309 -35.02661133 76.17553711 C-49.51099649 91.69756468 -63.66798926 111.8622956 -68.125 133 C-68.29644531 133.72574219 -68.46789062 134.45148438 -68.64453125 135.19921875 C-69.89004801 145.77780774 -62.20914263 153.16005512 -56.125 161 C-54.18523807 163.54601392 -52.27531369 166.11199222 -50.375 168.6875 C-49.94525879 169.23897705 -49.51551758 169.7904541 -49.07275391 170.35864258 C-46.35593996 174.01416568 -45.53343003 176.47099119 -46.125 181 C-48.20329704 184.74093467 -49.45041719 185.79149259 -53.5625 187.0625 C-57.98112625 186.98498024 -58.93131673 185.94801533 -62.125 183 C-64.11376953 180.49804688 -64.11376953 180.49804688 -66.0078125 177.71875 C-66.70003906 176.71199219 -67.39226562 175.70523438 -68.10546875 174.66796875 C-68.81316406 173.62253906 -69.52085937 172.57710937 -70.25 171.5 C-71.66880069 169.42676152 -73.08805369 167.35383248 -74.5078125 165.28125 C-75.13059082 164.36408203 -75.75336914 163.44691406 -76.39501953 162.50195312 C-76.96591309 161.67630859 -77.53680664 160.85066406 -78.125 160 C-78.61387695 159.2481543 -79.10275391 158.49630859 -79.60644531 157.72167969 C-81.44314523 155.63929901 -82.31347881 155.4233483 -85.0390625 155.171875 C-85.80089844 155.09453125 -86.56273437 155.0171875 -87.34765625 154.9375 C-88.14042969 154.875625 -88.93320313 154.81375 -89.75 154.75 C-90.51957031 154.67265625 -91.28914063 154.5953125 -92.08203125 154.515625 C-112.7422385 152.57764911 -129.95151268 155.92874908 -147.75756836 166.64648438 C-152.02006998 169.14324575 -155.02952834 170.75488469 -160.125 170 C-163 168.5 -163 168.5 -165.125 166 C-165.7824841 162.60299884 -166.03950837 161.16988376 -165.125 158 C-156.73930307 148.14680611 -141.41275651 141.80818678 -129.125 139 C-128.2071875 138.77699219 -127.289375 138.55398437 -126.34375 138.32421875 C-113.60267784 135.80682949 -97.7928339 135.10585609 -85.125 138 C-85.2075 136.96875 -85.29 135.9375 -85.375 134.875 C-85.19870524 109.70892298 -64.94737277 83.3698609 -48.4375 65.875 C-35.57271621 52.12591584 -30.30026765 36.32403546 -26.30444336 18.30004883 C-24.43539267 10.16453264 -22.22395765 4.91466299 -15.125 0 C-10.03212735 -1.69762422 -5.10928733 -1.63497195 0 0 Z " fill="#000000" transform="translate(278.125,81)"/>
<path d="M0 0 C2.84610137 2.31245736 2.9706247 3.7980448 3.5 7.4375 C3 11 3 11 0.9375 13.875 C-5.11982867 18.25689734 -13.24108968 17.12336749 -20.4375 17.0625 C-21.45521484 17.05798828 -22.47292969 17.05347656 -23.52148438 17.04882812 C-26.01438509 17.03712437 -28.50716074 17.02072848 -31 17 C-19.55536397 38.46644138 -1.50611688 52.96044917 21.734375 60.15625 C28.74759354 62.17616994 35.68737905 63.77499628 43 64 C44.83256348 64.07686035 44.83256348 64.07686035 46.70214844 64.15527344 C52.94249023 64.14293874 59.01808334 63.01556917 65.14934921 61.96284485 C67.35513709 61.58511067 69.56248119 61.21810345 71.77053833 60.85388184 C78.0432923 59.81771475 84.31344643 58.76655825 90.58105469 57.69970703 C140.997753 49.13729446 140.997753 49.13729446 156.25 59.6875 C167.12339135 68.75617909 173.7677465 79.93680295 176 94 C176 95.32 176 96.64 176 98 C174.29100181 97.88444496 172.58280131 97.75706997 170.875 97.625 C169.44800781 97.52058594 169.44800781 97.52058594 167.9921875 97.4140625 C164.68284489 96.9561117 162.03279013 96.42719536 159 95 C157.53125 92.4609375 157.53125 92.4609375 156.5 89.375 C153.77220721 82.15284386 150.93546312 76.24337224 143.875 72.5625 C132.35784246 67.40521861 119.73780346 70.77972236 107.8125 72.75 C106.10857091 73.02554763 104.40454995 73.30052768 102.70043945 73.57495117 C92.46637313 75.23071243 82.24031436 76.93888108 72.0402832 78.79394531 C41.71414746 84.25811392 12.94300789 79.89282968 -13.1171875 62.9765625 C-24.76332544 54.66671872 -35.51635056 44.23796791 -43 32 C-43.41765625 31.36578125 -43.8353125 30.7315625 -44.265625 30.078125 C-47.54034967 24.86623926 -48.56422791 20.0285751 -47.4375 14 C-45.99043212 8.94018441 -42.74515268 4.62141031 -38.1940918 1.93334961 C-35.74252827 0.89047353 -33.91744494 0.70281244 -31.26171875 0.62109375 C-29.90723633 0.56985352 -29.90723633 0.56985352 -28.52539062 0.51757812 C-27.58888672 0.49115234 -26.65238281 0.46472656 -25.6875 0.4375 C-1.61909197 -0.35080326 -1.61909197 -0.35080326 0 0 Z " fill="#000000" transform="translate(87,247)"/>
<path d="M0 0 C4.09762502 5.42555906 3.73140914 10.47251847 3 17 C-0.03102412 33.02735775 -6.08629815 47.97518886 -12.9375 62.6875 C-16.37612736 70.08786986 -19.42174587 77.50548995 -22 85.25 C-22.4175354 86.49849731 -22.4175354 86.49849731 -22.84350586 87.7722168 C-27.90498425 103.5164031 -30.6158191 122.67195903 -23 138 C-22.45085937 139.13695312 -22.45085937 139.13695312 -21.890625 140.296875 C-18.04831449 146.98534144 -12.03828579 151.4997702 -6.14453125 156.30078125 C-1.50028018 160.19059503 -1.50028018 160.19059503 0 163 C0.00390625 165.015625 0.00390625 165.015625 -1 167 C-3.28515625 168.921875 -3.28515625 168.921875 -6.0625 170.75 C-7.44115234 171.67039062 -7.44115234 171.67039062 -8.84765625 172.609375 C-9.55792969 173.06828125 -10.26820313 173.5271875 -11 174 C-14.006818 172.66000502 -15.99762609 171.20154709 -18.25 168.8125 C-20.72500323 166.2475928 -23.25968315 163.90328669 -26 161.625 C-39.05697715 150.26012627 -43.70235943 135.75854522 -45.28515625 118.9765625 C-46.11689958 93.15635646 -35.43456638 69.66512131 -24.9765625 46.75830078 C-19.18730739 34.02386074 -15.99945181 21.12078126 -13.80859375 7.36328125 C-13.01742804 4.07249055 -12.36502903 2.37659396 -10 0 C-6.17853346 -1.27382218 -3.89335307 -0.97333827 0 0 Z " fill="#000000" transform="translate(307,164)"/>
</svg>
